<?xml version="1.0" encoding="utf-8" standalone="no"?>
<!DOCTYPE svg PUBLIC "-//W3C//DTD SVG 1.1//EN"
  "http://www.w3.org/Graphics/SVG/1.1/DTD/svg11.dtd">
<svg xmlns:xlink="http://www.w3.org/1999/xlink" width="377.1pt" height="302.12632pt" viewBox="0 0 377.1 302.12632" xmlns="http://www.w3.org/2000/svg" version="1.1">
 <metadata>
  <rdf:RDF xmlns:dc="http://purl.org/dc/elements/1.1/" xmlns:cc="http://creativecommons.org/ns#" xmlns:rdf="http://www.w3.org/1999/02/22-rdf-syntax-ns#">
   <cc:Work>
    <dc:type rdf:resource="http://purl.org/dc/dcmitype/StillImage"/>
    <dc:date>2026-10-08T06:16:08.767770</dc:date>
    <dc:format>image/svg+xml</dc:format>
    <dc:creator>
     <cc:Agent>
      <dc:title>Matplotlib v3.11.2, https://matplotlib.org/</dc:title>
     </cc:Agent>
    </dc:creator>
   </cc:Work>
  </rdf:RDF>
 </metadata>
 <defs>
  <style type="text/css">*{stroke-linejoin: round; stroke-linecap: butt}</style>
 </defs>
 <g id="figure_1">
  <g id="patch_1">
   <path d="M 0 302.12632 
L 377.1 302.12632 
L 377.1 0 
L 0 0 
z
" style="fill: #fcfcfb"/>
  </g>
  <g id="axes_1">
   <g id="patch_2">
    <path d="M 156.701375 48.743815 
Q 113.741231 60.921897 71.856739 72.795059 
" clip-path="url(#pf0810fe1af)" style="fill: none; stroke: #52514e; stroke-linecap: round"/>
    <path d="M 76.250559 73.62833 
L 71.856739 72.795059 
L 75.159648 69.779965 
z
" clip-path="url(#pf0810fe1af)" style="fill: #52514e; stroke: #52514e; stroke-linecap: round"/>
   </g>
   <g id="patch_3">
    <path d="M 188.55 50.195243 
Q 188.55 60.919598 188.55 70.525919 
" clip-path="url(#pf0810fe1af)" style="fill: none; stroke: #52514e; stroke-linecap: round"/>
    <path d="M 190.55 66.525919 
L 188.55 70.525919 
L 186.55 66.525919 
z
" clip-path="url(#pf0810fe1af)" style="fill: #52514e; stroke: #52514e; stroke-linecap: round"/>
   </g>
   <g id="patch_4">
    <path d="M 220.398625 48.743815 
Q 263.358769 60.921897 305.243261 72.795059 
" clip-path="url(#pf0810fe1af)" style="fill: none; stroke: #52514e; stroke-linecap: round"/>
    <path d="M 301.940352 69.779965 
L 305.243261 72.795059 
L 300.849441 73.62833 
z
" clip-path="url(#pf0810fe1af)" style="fill: #52514e; stroke: #52514e; stroke-linecap: round"/>
   </g>
   <g id="patch_5">
    <path d="M 165.120829 153.921684 
Q 135.957931 173.312479 107.726046 192.08423 
" clip-path="url(#pf0810fe1af)" style="fill: none; stroke: #52514e; stroke-linecap: round"/>
    <path d="M 112.164318 191.534922 
L 107.726046 192.08423 
L 109.949563 188.204027 
z
" clip-path="url(#pf0810fe1af)" style="fill: #52514e; stroke: #52514e; stroke-linecap: round"/>
   </g>
   <g id="patch_6">
    <path d="M 192.353435 154.807503 
Q 193.990474 173.311805 195.528987 190.702424 
" clip-path="url(#pf0810fe1af)" style="fill: none; stroke: #52514e; stroke-linecap: round"/>
    <path d="M 197.168711 186.541738 
L 195.528987 190.702424 
L 193.184273 186.894233 
z
" clip-path="url(#pf0810fe1af)" style="fill: #52514e; stroke: #52514e; stroke-linecap: round"/>
   </g>
   <g id="patch_7">
    <path d="M 308.241 154.812507 
Q 308.241 173.309675 308.241 190.688809 
" clip-path="url(#pf0810fe1af)" style="fill: none; stroke: #52514e; stroke-linecap: round"/>
    <path d="M 310.241 186.688809 
L 308.241 190.688809 
L 306.241 186.688809 
z
" clip-path="url(#pf0810fe1af)" style="fill: #52514e; stroke: #52514e; stroke-linecap: round"/>
   </g>
   <g id="patch_8">
    <path d="M 120.28986 47.915136 
L 256.81014 47.915136 
Q 261.16254 47.915136 261.16254 43.673976 
L 261.16254 16.671924 
Q 261.16254 12.430764 256.81014 12.430764 
L 120.28986 12.430764 
Q 115.93746 12.430764 115.93746 16.671924 
L 115.93746 43.673976 
Q 115.93746 47.915136 120.28986 47.915136 
z
" clip-path="url(#pf0810fe1af)" style="fill: #efeee9; stroke: #c3c2b7; stroke-linejoin: miter"/>
   </g>
   <g id="patch_9">
    <path d="M 18.73386 152.176986 
L 118.98414 152.176986 
Q 123.33654 152.176986 123.33654 147.935826 
L 123.33654 78.522174 
Q 123.33654 74.281014 118.98414 74.281014 
L 18.73386 74.281014 
Q 14.38146 74.281014 14.38146 78.522174 
L 14.38146 147.935826 
Q 14.38146 152.176986 18.73386 152.176986 
z
" clip-path="url(#pf0810fe1af)" style="fill: #efeee9; stroke: #c3c2b7; stroke-linejoin: miter"/>
   </g>
   <g id="patch_10">
    <path d="M 138.42486 152.176986 
L 238.67514 152.176986 
Q 243.02754 152.176986 243.02754 147.935826 
L 243.02754 78.522174 
Q 243.02754 74.281014 238.67514 74.281014 
L 138.42486 74.281014 
Q 134.07246 74.281014 134.07246 78.522174 
L 134.07246 147.935826 
Q 134.07246 152.176986 138.42486 152.176986 
z
" clip-path="url(#pf0810fe1af)" style="fill: #fde3d7; stroke: #eb6834; stroke-linejoin: miter"/>
   </g>
   <g id="patch_11">
    <path d="M 258.11586 152.176986 
L 358.36614 152.176986 
Q 362.71854 152.176986 362.71854 147.935826 
L 362.71854 78.522174 
Q 362.71854 74.281014 358.36614 74.281014 
L 258.11586 74.281014 
Q 253.76346 74.281014 253.76346 78.522174 
L 253.76346 147.935826 
Q 253.76346 152.176986 258.11586 152.176986 
z
" clip-path="url(#pf0810fe1af)" style="fill: #d6e6f9; stroke: #2a78d6; stroke-linejoin: miter"/>
   </g>
   <g id="patch_12">
    <path d="M 35.05536 272.343186 
L 131.67864 272.343186 
Q 136.03104 272.343186 136.03104 268.102026 
L 136.03104 198.688374 
Q 136.03104 194.447214 131.67864 194.447214 
L 35.05536 194.447214 
Q 30.70296 194.447214 30.70296 198.688374 
L 30.70296 268.102026 
Q 30.70296 272.343186 35.05536 272.343186 
z
" clip-path="url(#pf0810fe1af)" style="fill: #fde3d7; stroke: #eb6834; stroke-linejoin: miter"/>
   </g>
   <g id="patch_13">
    <path d="M 147.49236 272.343186 
L 244.11564 272.343186 
Q 248.46804 272.343186 248.46804 268.102026 
L 248.46804 198.688374 
Q 248.46804 194.447214 244.11564 194.447214 
L 147.49236 194.447214 
Q 143.13996 194.447214 143.13996 198.688374 
L 143.13996 268.102026 
Q 143.13996 272.343186 147.49236 272.343186 
z
" clip-path="url(#pf0810fe1af)" style="fill: #fde3d7; stroke: #eb6834; stroke-linejoin: miter"/>
   </g>
   <g id="patch_14">
    <path d="M 259.92936 272.343186 
L 356.55264 272.343186 
Q 360.90504 272.343186 360.90504 268.102026 
L 360.90504 198.688374 
Q 360.90504 194.447214 356.55264 194.447214 
L 259.92936 194.447214 
Q 255.57696 194.447214 255.57696 198.688374 
L 255.57696 268.102026 
Q 255.57696 272.343186 259.92936 272.343186 
z
" clip-path="url(#pf0810fe1af)" style="fill: #d6e6f9; stroke: #2a78d6; stroke-linejoin: miter"/>
   </g>
   <g id="text_1">
    <!-- The punt is in the air -->
    <g style="fill: #0b0b0b" transform="translate(141.341875 26.70909) scale(0.08 -0.08)">
     <defs>
      <path id="DejaVuSans-Bold-37" d="M 31 4666 
L 4331 4666 
L 4331 3756 
L 2784 3756 
L 2784 0 
L 1581 0 
L 1581 3756 
L 31 3756 
L 31 4666 
z
" transform="scale(0.015625)"/>
      <path id="DejaVuSans-Bold-4b" d="M 4056 2131 
L 4056 0 
L 2931 0 
L 2931 347 
L 2931 1625 
Q 2931 2084 2911 2256 
Q 2891 2428 2841 2509 
Q 2775 2619 2662 2680 
Q 2550 2741 2406 2741 
Q 2056 2741 1856 2470 
Q 1656 2200 1656 1722 
L 1656 0 
L 538 0 
L 538 4863 
L 1656 4863 
L 1656 2988 
Q 1909 3294 2193 3439 
Q 2478 3584 2822 3584 
Q 3428 3584 3742 3212 
Q 4056 2841 4056 2131 
z
" transform="scale(0.015625)"/>
      <path id="DejaVuSans-Bold-48" d="M 4031 1759 
L 4031 1441 
L 1416 1441 
Q 1456 1047 1700 850 
Q 1944 653 2381 653 
Q 2734 653 3104 758 
Q 3475 863 3866 1075 
L 3866 213 
Q 3469 63 3072 -14 
Q 2675 -91 2278 -91 
Q 1328 -91 801 392 
Q 275 875 275 1747 
Q 275 2603 792 3093 
Q 1309 3584 2216 3584 
Q 3041 3584 3536 3087 
Q 4031 2591 4031 1759 
z
M 2881 2131 
Q 2881 2450 2695 2645 
Q 2509 2841 2209 2841 
Q 1884 2841 1681 2658 
Q 1478 2475 1428 2131 
L 2881 2131 
z
" transform="scale(0.015625)"/>
      <path id="DejaVuSans-Bold-3" transform="scale(0.015625)"/>
      <path id="DejaVuSans-Bold-53" d="M 1656 506 
L 1656 -1331 
L 538 -1331 
L 538 3500 
L 1656 3500 
L 1656 2988 
Q 1888 3294 2169 3439 
Q 2450 3584 2816 3584 
Q 3463 3584 3878 3070 
Q 4294 2556 4294 1747 
Q 4294 938 3878 423 
Q 3463 -91 2816 -91 
Q 2450 -91 2169 54 
Q 1888 200 1656 506 
z
M 2400 2772 
Q 2041 2772 1848 2508 
Q 1656 2244 1656 1747 
Q 1656 1250 1848 986 
Q 2041 722 2400 722 
Q 2759 722 2948 984 
Q 3138 1247 3138 1747 
Q 3138 2247 2948 2509 
Q 2759 2772 2400 2772 
z
" transform="scale(0.015625)"/>
      <path id="DejaVuSans-Bold-58" d="M 500 1363 
L 500 3500 
L 1625 3500 
L 1625 3150 
Q 1625 2866 1622 2436 
Q 1619 2006 1619 1863 
Q 1619 1441 1641 1255 
Q 1663 1069 1716 984 
Q 1784 875 1895 815 
Q 2006 756 2150 756 
Q 2500 756 2700 1025 
Q 2900 1294 2900 1772 
L 2900 3500 
L 4019 3500 
L 4019 0 
L 2900 0 
L 2900 506 
Q 2647 200 2364 54 
Q 2081 -91 1741 -91 
Q 1134 -91 817 281 
Q 500 653 500 1363 
z
" transform="scale(0.015625)"/>
      <path id="DejaVuSans-Bold-51" d="M 4056 2131 
L 4056 0 
L 2931 0 
L 2931 347 
L 2931 1631 
Q 2931 2084 2911 2256 
Q 2891 2428 2841 2509 
Q 2775 2619 2662 2680 
Q 2550 2741 2406 2741 
Q 2056 2741 1856 2470 
Q 1656 2200 1656 1722 
L 1656 0 
L 538 0 
L 538 3500 
L 1656 3500 
L 1656 2988 
Q 1909 3294 2193 3439 
Q 2478 3584 2822 3584 
Q 3428 3584 3742 3212 
Q 4056 2841 4056 2131 
z
" transform="scale(0.015625)"/>
      <path id="DejaVuSans-Bold-57" d="M 1759 4494 
L 1759 3500 
L 2913 3500 
L 2913 2700 
L 1759 2700 
L 1759 1216 
Q 1759 972 1856 886 
Q 1953 800 2241 800 
L 2816 800 
L 2816 0 
L 1856 0 
Q 1194 0 917 276 
Q 641 553 641 1216 
L 641 2700 
L 84 2700 
L 84 3500 
L 641 3500 
L 641 4494 
L 1759 4494 
z
" transform="scale(0.015625)"/>
      <path id="DejaVuSans-Bold-4c" d="M 538 3500 
L 1656 3500 
L 1656 0 
L 538 0 
L 538 3500 
z
M 538 4863 
L 1656 4863 
L 1656 3950 
L 538 3950 
L 538 4863 
z
" transform="scale(0.015625)"/>
      <path id="DejaVuSans-Bold-56" d="M 3272 3391 
L 3272 2541 
Q 2913 2691 2578 2766 
Q 2244 2841 1947 2841 
Q 1628 2841 1473 2761 
Q 1319 2681 1319 2516 
Q 1319 2381 1436 2309 
Q 1553 2238 1856 2203 
L 2053 2175 
Q 2913 2066 3209 1816 
Q 3506 1566 3506 1031 
Q 3506 472 3093 190 
Q 2681 -91 1863 -91 
Q 1516 -91 1145 -36 
Q 775 19 384 128 
L 384 978 
Q 719 816 1070 734 
Q 1422 653 1784 653 
Q 2113 653 2278 743 
Q 2444 834 2444 1013 
Q 2444 1163 2330 1236 
Q 2216 1309 1875 1350 
L 1678 1375 
Q 931 1469 631 1722 
Q 331 1975 331 2491 
Q 331 3047 712 3315 
Q 1094 3584 1881 3584 
Q 2191 3584 2531 3537 
Q 2872 3491 3272 3391 
z
" transform="scale(0.015625)"/>
      <path id="DejaVuSans-Bold-44" d="M 2106 1575 
Q 1756 1575 1579 1456 
Q 1403 1338 1403 1106 
Q 1403 894 1545 773 
Q 1688 653 1941 653 
Q 2256 653 2472 879 
Q 2688 1106 2688 1447 
L 2688 1575 
L 2106 1575 
z
M 3816 1997 
L 3816 0 
L 2688 0 
L 2688 519 
Q 2463 200 2181 54 
Q 1900 -91 1497 -91 
Q 953 -91 614 226 
Q 275 544 275 1050 
Q 275 1666 698 1953 
Q 1122 2241 2028 2241 
L 2688 2241 
L 2688 2328 
Q 2688 2594 2478 2717 
Q 2269 2841 1825 2841 
Q 1466 2841 1156 2769 
Q 847 2697 581 2553 
L 581 3406 
Q 941 3494 1303 3539 
Q 1666 3584 2028 3584 
Q 2975 3584 3395 3211 
Q 3816 2838 3816 1997 
z
" transform="scale(0.015625)"/>
      <path id="DejaVuSans-Bold-55" d="M 3138 2547 
Q 2991 2616 2845 2648 
Q 2700 2681 2553 2681 
Q 2122 2681 1889 2404 
Q 1656 2128 1656 1613 
L 1656 0 
L 538 0 
L 538 3500 
L 1656 3500 
L 1656 2925 
Q 1872 3269 2151 3426 
Q 2431 3584 2822 3584 
Q 2878 3584 2943 3579 
Q 3009 3575 3134 3559 
L 3138 2547 
z
" transform="scale(0.015625)"/>
     </defs>
     <use xlink:href="#DejaVuSans-Bold-37"/>
     <use xlink:href="#DejaVuSans-Bold-4b" transform="translate(68.21875 0)"/>
     <use xlink:href="#DejaVuSans-Bold-48" transform="translate(139.40625 0)"/>
     <use xlink:href="#DejaVuSans-Bold-3" transform="translate(207.234375 0)"/>
     <use xlink:href="#DejaVuSans-Bold-53" transform="translate(242.046875 0)"/>
     <use xlink:href="#DejaVuSans-Bold-58" transform="translate(313.625 0)"/>
     <use xlink:href="#DejaVuSans-Bold-51" transform="translate(384.8125 0)"/>
     <use xlink:href="#DejaVuSans-Bold-57" transform="translate(456 0)"/>
     <use xlink:href="#DejaVuSans-Bold-3" transform="translate(503.796875 0)"/>
     <use xlink:href="#DejaVuSans-Bold-4c" transform="translate(538.609375 0)"/>
     <use xlink:href="#DejaVuSans-Bold-56" transform="translate(572.890625 0)"/>
     <use xlink:href="#DejaVuSans-Bold-3" transform="translate(632.40625 0)"/>
     <use xlink:href="#DejaVuSans-Bold-4c" transform="translate(667.21875 0)"/>
     <use xlink:href="#DejaVuSans-Bold-51" transform="translate(701.5 0)"/>
     <use xlink:href="#DejaVuSans-Bold-3" transform="translate(772.6875 0)"/>
     <use xlink:href="#DejaVuSans-Bold-57" transform="translate(807.5 0)"/>
     <use xlink:href="#DejaVuSans-Bold-4b" transform="translate(855.296875 0)"/>
     <use xlink:href="#DejaVuSans-Bold-48" transform="translate(926.484375 0)"/>
     <use xlink:href="#DejaVuSans-Bold-3" transform="translate(994.3125 0)"/>
     <use xlink:href="#DejaVuSans-Bold-44" transform="translate(1029.125 0)"/>
     <use xlink:href="#DejaVuSans-Bold-4c" transform="translate(1096.609375 0)"/>
     <use xlink:href="#DejaVuSans-Bold-55" transform="translate(1130.890625 0)"/>
    </g>
   </g>
   <g id="text_2">
    <!-- who touches it first, beyond the line? -->
    <g style="fill: #52514e" transform="translate(125.417312 39.663625) scale(0.068 -0.068)">
     <defs>
      <path id="DejaVuSans-5a" d="M 269 3500 
L 844 3500 
L 1563 769 
L 2278 3500 
L 2956 3500 
L 3675 769 
L 4391 3500 
L 4966 3500 
L 4050 0 
L 3372 0 
L 2619 2869 
L 1863 0 
L 1184 0 
L 269 3500 
z
" transform="scale(0.015625)"/>
      <path id="DejaVuSans-4b" d="M 3513 2113 
L 3513 0 
L 2938 0 
L 2938 2094 
Q 2938 2591 2744 2837 
Q 2550 3084 2163 3084 
Q 1697 3084 1428 2787 
Q 1159 2491 1159 1978 
L 1159 0 
L 581 0 
L 581 4863 
L 1159 4863 
L 1159 2956 
Q 1366 3272 1645 3428 
Q 1925 3584 2291 3584 
Q 2894 3584 3203 3211 
Q 3513 2838 3513 2113 
z
" transform="scale(0.015625)"/>
      <path id="DejaVuSans-52" d="M 1959 3097 
Q 1497 3097 1228 2736 
Q 959 2375 959 1747 
Q 959 1119 1226 758 
Q 1494 397 1959 397 
Q 2419 397 2687 759 
Q 2956 1122 2956 1747 
Q 2956 2369 2687 2733 
Q 2419 3097 1959 3097 
z
M 1959 3584 
Q 2709 3584 3137 3096 
Q 3566 2609 3566 1747 
Q 3566 888 3137 398 
Q 2709 -91 1959 -91 
Q 1206 -91 779 398 
Q 353 888 353 1747 
Q 353 2609 779 3096 
Q 1206 3584 1959 3584 
z
" transform="scale(0.015625)"/>
      <path id="DejaVuSans-3" transform="scale(0.015625)"/>
      <path id="DejaVuSans-57" d="M 1172 4494 
L 1172 3500 
L 2356 3500 
L 2356 3053 
L 1172 3053 
L 1172 1153 
Q 1172 725 1289 603 
Q 1406 481 1766 481 
L 2356 481 
L 2356 0 
L 1766 0 
Q 1100 0 847 248 
Q 594 497 594 1153 
L 594 3053 
L 172 3053 
L 172 3500 
L 594 3500 
L 594 4494 
L 1172 4494 
z
" transform="scale(0.015625)"/>
      <path id="DejaVuSans-58" d="M 544 1381 
L 544 3500 
L 1119 3500 
L 1119 1403 
Q 1119 906 1312 657 
Q 1506 409 1894 409 
Q 2359 409 2629 706 
Q 2900 1003 2900 1516 
L 2900 3500 
L 3475 3500 
L 3475 0 
L 2900 0 
L 2900 538 
Q 2691 219 2414 64 
Q 2138 -91 1772 -91 
Q 1169 -91 856 284 
Q 544 659 544 1381 
z
M 1991 3584 
L 1991 3584 
z
" transform="scale(0.015625)"/>
      <path id="DejaVuSans-46" d="M 3122 3366 
L 3122 2828 
Q 2878 2963 2633 3030 
Q 2388 3097 2138 3097 
Q 1578 3097 1268 2742 
Q 959 2388 959 1747 
Q 959 1106 1268 751 
Q 1578 397 2138 397 
Q 2388 397 2633 464 
Q 2878 531 3122 666 
L 3122 134 
Q 2881 22 2623 -34 
Q 2366 -91 2075 -91 
Q 1284 -91 818 406 
Q 353 903 353 1747 
Q 353 2603 823 3093 
Q 1294 3584 2113 3584 
Q 2378 3584 2631 3529 
Q 2884 3475 3122 3366 
z
" transform="scale(0.015625)"/>
      <path id="DejaVuSans-48" d="M 3597 1894 
L 3597 1613 
L 953 1613 
Q 991 1019 1311 708 
Q 1631 397 2203 397 
Q 2534 397 2845 478 
Q 3156 559 3463 722 
L 3463 178 
Q 3153 47 2828 -22 
Q 2503 -91 2169 -91 
Q 1331 -91 842 396 
Q 353 884 353 1716 
Q 353 2575 817 3079 
Q 1281 3584 2069 3584 
Q 2775 3584 3186 3129 
Q 3597 2675 3597 1894 
z
M 3022 2063 
Q 3016 2534 2758 2815 
Q 2500 3097 2075 3097 
Q 1594 3097 1305 2825 
Q 1016 2553 972 2059 
L 3022 2063 
z
" transform="scale(0.015625)"/>
      <path id="DejaVuSans-56" d="M 2834 3397 
L 2834 2853 
Q 2591 2978 2328 3040 
Q 2066 3103 1784 3103 
Q 1356 3103 1142 2972 
Q 928 2841 928 2578 
Q 928 2378 1081 2264 
Q 1234 2150 1697 2047 
L 1894 2003 
Q 2506 1872 2764 1633 
Q 3022 1394 3022 966 
Q 3022 478 2636 193 
Q 2250 -91 1575 -91 
Q 1294 -91 989 -36 
Q 684 19 347 128 
L 347 722 
Q 666 556 975 473 
Q 1284 391 1588 391 
Q 1994 391 2212 530 
Q 2431 669 2431 922 
Q 2431 1156 2273 1281 
Q 2116 1406 1581 1522 
L 1381 1569 
Q 847 1681 609 1914 
Q 372 2147 372 2553 
Q 372 3047 722 3315 
Q 1072 3584 1716 3584 
Q 2034 3584 2315 3537 
Q 2597 3491 2834 3397 
z
" transform="scale(0.015625)"/>
      <path id="DejaVuSans-4c" d="M 603 3500 
L 1178 3500 
L 1178 0 
L 603 0 
L 603 3500 
z
M 603 4863 
L 1178 4863 
L 1178 4134 
L 603 4134 
L 603 4863 
z
" transform="scale(0.015625)"/>
      <path id="DejaVuSans-13af" d="M 3431 3500 
L 3431 0 
L 2853 0 
L 2853 3053 
L 1275 3053 
L 1275 0 
L 697 0 
L 697 3053 
L 147 3053 
L 147 3500 
L 697 3500 
L 697 3744 
Q 697 4316 967 4589 
Q 1238 4863 1797 4863 
L 2375 4863 
L 2375 4384 
L 1825 4384 
Q 1516 4384 1395 4259 
Q 1275 4134 1275 3809 
L 1275 3500 
L 3431 3500 
z
M 2853 4856 
L 3431 4856 
L 3431 4128 
L 2853 4128 
L 2853 4856 
z
" transform="scale(0.015625)"/>
      <path id="DejaVuSans-55" d="M 2631 2963 
Q 2534 3019 2420 3045 
Q 2306 3072 2169 3072 
Q 1681 3072 1420 2755 
Q 1159 2438 1159 1844 
L 1159 0 
L 581 0 
L 581 3500 
L 1159 3500 
L 1159 2956 
Q 1341 3275 1631 3429 
Q 1922 3584 2338 3584 
Q 2397 3584 2469 3576 
Q 2541 3569 2628 3553 
L 2631 2963 
z
" transform="scale(0.015625)"/>
      <path id="DejaVuSans-f" d="M 750 794 
L 1409 794 
L 1409 256 
L 897 -744 
L 494 -744 
L 750 256 
L 750 794 
z
" transform="scale(0.015625)"/>
      <path id="DejaVuSans-45" d="M 3116 1747 
Q 3116 2381 2855 2742 
Q 2594 3103 2138 3103 
Q 1681 3103 1420 2742 
Q 1159 2381 1159 1747 
Q 1159 1113 1420 752 
Q 1681 391 2138 391 
Q 2594 391 2855 752 
Q 3116 1113 3116 1747 
z
M 1159 2969 
Q 1341 3281 1617 3432 
Q 1894 3584 2278 3584 
Q 2916 3584 3314 3078 
Q 3713 2572 3713 1747 
Q 3713 922 3314 415 
Q 2916 -91 2278 -91 
Q 1894 -91 1617 61 
Q 1341 213 1159 525 
L 1159 0 
L 581 0 
L 581 4863 
L 1159 4863 
L 1159 2969 
z
" transform="scale(0.015625)"/>
      <path id="DejaVuSans-5c" d="M 2059 -325 
Q 1816 -950 1584 -1140 
Q 1353 -1331 966 -1331 
L 506 -1331 
L 506 -850 
L 844 -850 
Q 1081 -850 1212 -737 
Q 1344 -625 1503 -206 
L 1606 56 
L 191 3500 
L 800 3500 
L 1894 763 
L 2988 3500 
L 3597 3500 
L 2059 -325 
z
" transform="scale(0.015625)"/>
      <path id="DejaVuSans-51" d="M 3513 2113 
L 3513 0 
L 2938 0 
L 2938 2094 
Q 2938 2591 2744 2837 
Q 2550 3084 2163 3084 
Q 1697 3084 1428 2787 
Q 1159 2491 1159 1978 
L 1159 0 
L 581 0 
L 581 3500 
L 1159 3500 
L 1159 2956 
Q 1366 3272 1645 3428 
Q 1925 3584 2291 3584 
Q 2894 3584 3203 3211 
Q 3513 2838 3513 2113 
z
" transform="scale(0.015625)"/>
      <path id="DejaVuSans-47" d="M 2906 2969 
L 2906 4863 
L 3481 4863 
L 3481 0 
L 2906 0 
L 2906 525 
Q 2725 213 2448 61 
Q 2172 -91 1784 -91 
Q 1150 -91 751 415 
Q 353 922 353 1747 
Q 353 2572 751 3078 
Q 1150 3584 1784 3584 
Q 2172 3584 2448 3432 
Q 2725 3281 2906 2969 
z
M 947 1747 
Q 947 1113 1208 752 
Q 1469 391 1925 391 
Q 2381 391 2643 752 
Q 2906 1113 2906 1747 
Q 2906 2381 2643 2742 
Q 2381 3103 1925 3103 
Q 1469 3103 1208 2742 
Q 947 2381 947 1747 
z
" transform="scale(0.015625)"/>
      <path id="DejaVuSans-4f" d="M 603 4863 
L 1178 4863 
L 1178 0 
L 603 0 
L 603 4863 
z
" transform="scale(0.015625)"/>
      <path id="DejaVuSans-22" d="M 1222 794 
L 1856 794 
L 1856 0 
L 1222 0 
L 1222 794 
z
M 1838 1253 
L 1241 1253 
L 1241 1734 
Q 1241 2050 1328 2253 
Q 1416 2456 1697 2725 
L 1978 3003 
Q 2156 3169 2236 3316 
Q 2316 3463 2316 3616 
Q 2316 3894 2111 4066 
Q 1906 4238 1569 4238 
Q 1322 4238 1042 4128 
Q 763 4019 459 3809 
L 459 4397 
Q 753 4575 1054 4662 
Q 1356 4750 1678 4750 
Q 2253 4750 2601 4447 
Q 2950 4144 2950 3647 
Q 2950 3409 2837 3195 
Q 2725 2981 2444 2713 
L 2169 2444 
Q 2022 2297 1961 2214 
Q 1900 2131 1875 2053 
Q 1856 1988 1847 1894 
Q 1838 1800 1838 1638 
L 1838 1253 
z
" transform="scale(0.015625)"/>
     </defs>
     <use xlink:href="#DejaVuSans-5a"/>
     <use xlink:href="#DejaVuSans-4b" transform="translate(81.78125 0)"/>
     <use xlink:href="#DejaVuSans-52" transform="translate(145.15625 0)"/>
     <use xlink:href="#DejaVuSans-3" transform="translate(206.34375 0)"/>
     <use xlink:href="#DejaVuSans-57" transform="translate(238.125 0)"/>
     <use xlink:href="#DejaVuSans-52" transform="translate(277.328125 0)"/>
     <use xlink:href="#DejaVuSans-58" transform="translate(338.515625 0)"/>
     <use xlink:href="#DejaVuSans-46" transform="translate(401.890625 0)"/>
     <use xlink:href="#DejaVuSans-4b" transform="translate(456.875 0)"/>
     <use xlink:href="#DejaVuSans-48" transform="translate(520.25 0)"/>
     <use xlink:href="#DejaVuSans-56" transform="translate(581.78125 0)"/>
     <use xlink:href="#DejaVuSans-3" transform="translate(633.875 0)"/>
     <use xlink:href="#DejaVuSans-4c" transform="translate(665.65625 0)"/>
     <use xlink:href="#DejaVuSans-57" transform="translate(693.4375 0)"/>
     <use xlink:href="#DejaVuSans-3" transform="translate(732.640625 0)"/>
     <use xlink:href="#DejaVuSans-13af" transform="translate(764.421875 0)"/>
     <use xlink:href="#DejaVuSans-55" transform="translate(827.40625 0)"/>
     <use xlink:href="#DejaVuSans-56" transform="translate(868.515625 0)"/>
     <use xlink:href="#DejaVuSans-57" transform="translate(920.609375 0)"/>
     <use xlink:href="#DejaVuSans-f" transform="translate(959.8125 0)"/>
     <use xlink:href="#DejaVuSans-3" transform="translate(991.59375 0)"/>
     <use xlink:href="#DejaVuSans-45" transform="translate(1023.375 0)"/>
     <use xlink:href="#DejaVuSans-48" transform="translate(1086.859375 0)"/>
     <use xlink:href="#DejaVuSans-5c" transform="translate(1148.390625 0)"/>
     <use xlink:href="#DejaVuSans-52" transform="translate(1207.578125 0)"/>
     <use xlink:href="#DejaVuSans-51" transform="translate(1268.765625 0)"/>
     <use xlink:href="#DejaVuSans-47" transform="translate(1332.140625 0)"/>
     <use xlink:href="#DejaVuSans-3" transform="translate(1395.625 0)"/>
     <use xlink:href="#DejaVuSans-57" transform="translate(1427.40625 0)"/>
     <use xlink:href="#DejaVuSans-4b" transform="translate(1466.609375 0)"/>
     <use xlink:href="#DejaVuSans-48" transform="translate(1529.984375 0)"/>
     <use xlink:href="#DejaVuSans-3" transform="translate(1591.515625 0)"/>
     <use xlink:href="#DejaVuSans-4f" transform="translate(1623.296875 0)"/>
     <use xlink:href="#DejaVuSans-4c" transform="translate(1651.078125 0)"/>
     <use xlink:href="#DejaVuSans-51" transform="translate(1678.859375 0)"/>
     <use xlink:href="#DejaVuSans-48" transform="translate(1742.234375 0)"/>
     <use xlink:href="#DejaVuSans-22" transform="translate(1803.765625 0)"/>
    </g>
   </g>
   <g id="text_3">
    <!-- Nobody -->
    <g style="fill: #0b0b0b" transform="translate(51.6815 88.55934) scale(0.08 -0.08)">
     <defs>
      <path id="DejaVuSans-Bold-31" d="M 588 4666 
L 1931 4666 
L 3628 1466 
L 3628 4666 
L 4769 4666 
L 4769 0 
L 3425 0 
L 1728 3200 
L 1728 0 
L 588 0 
L 588 4666 
z
" transform="scale(0.015625)"/>
      <path id="DejaVuSans-Bold-52" d="M 2203 2784 
Q 1831 2784 1636 2517 
Q 1441 2250 1441 1747 
Q 1441 1244 1636 976 
Q 1831 709 2203 709 
Q 2569 709 2762 976 
Q 2956 1244 2956 1747 
Q 2956 2250 2762 2517 
Q 2569 2784 2203 2784 
z
M 2203 3584 
Q 3106 3584 3614 3096 
Q 4122 2609 4122 1747 
Q 4122 884 3614 396 
Q 3106 -91 2203 -91 
Q 1297 -91 786 396 
Q 275 884 275 1747 
Q 275 2609 786 3096 
Q 1297 3584 2203 3584 
z
" transform="scale(0.015625)"/>
      <path id="DejaVuSans-Bold-45" d="M 2400 722 
Q 2759 722 2948 984 
Q 3138 1247 3138 1747 
Q 3138 2247 2948 2509 
Q 2759 2772 2400 2772 
Q 2041 2772 1848 2508 
Q 1656 2244 1656 1747 
Q 1656 1250 1848 986 
Q 2041 722 2400 722 
z
M 1656 2988 
Q 1888 3294 2169 3439 
Q 2450 3584 2816 3584 
Q 3463 3584 3878 3070 
Q 4294 2556 4294 1747 
Q 4294 938 3878 423 
Q 3463 -91 2816 -91 
Q 2450 -91 2169 54 
Q 1888 200 1656 506 
L 1656 0 
L 538 0 
L 538 4863 
L 1656 4863 
L 1656 2988 
z
" transform="scale(0.015625)"/>
      <path id="DejaVuSans-Bold-47" d="M 2919 2988 
L 2919 4863 
L 4044 4863 
L 4044 0 
L 2919 0 
L 2919 506 
Q 2688 197 2409 53 
Q 2131 -91 1766 -91 
Q 1119 -91 703 423 
Q 288 938 288 1747 
Q 288 2556 703 3070 
Q 1119 3584 1766 3584 
Q 2128 3584 2408 3439 
Q 2688 3294 2919 2988 
z
M 2181 722 
Q 2541 722 2730 984 
Q 2919 1247 2919 1747 
Q 2919 2247 2730 2509 
Q 2541 2772 2181 2772 
Q 1825 2772 1636 2509 
Q 1447 2247 1447 1747 
Q 1447 1247 1636 984 
Q 1825 722 2181 722 
z
" transform="scale(0.015625)"/>
      <path id="DejaVuSans-Bold-5c" d="M 78 3500 
L 1197 3500 
L 2138 1125 
L 2938 3500 
L 4056 3500 
L 2584 -331 
Q 2363 -916 2067 -1148 
Q 1772 -1381 1288 -1381 
L 641 -1381 
L 641 -647 
L 991 -647 
Q 1275 -647 1404 -556 
Q 1534 -466 1606 -231 
L 1638 -134 
L 78 3500 
z
" transform="scale(0.015625)"/>
     </defs>
     <use xlink:href="#DejaVuSans-Bold-31"/>
     <use xlink:href="#DejaVuSans-Bold-52" transform="translate(83.6875 0)"/>
     <use xlink:href="#DejaVuSans-Bold-45" transform="translate(152.390625 0)"/>
     <use xlink:href="#DejaVuSans-Bold-52" transform="translate(223.96875 0)"/>
     <use xlink:href="#DejaVuSans-Bold-47" transform="translate(292.671875 0)"/>
     <use xlink:href="#DejaVuSans-Bold-5c" transform="translate(364.25 0)"/>
    </g>
   </g>
   <g id="text_4">
    <!-- into the end zone: touchback -->
    <g style="fill: #52514e" transform="translate(19.109562 102.172625) scale(0.068 -0.068)">
     <defs>
      <path id="DejaVuSans-5d" d="M 353 3500 
L 3084 3500 
L 3084 2975 
L 922 459 
L 3084 459 
L 3084 0 
L 275 0 
L 275 525 
L 2438 3041 
L 353 3041 
L 353 3500 
z
" transform="scale(0.015625)"/>
      <path id="DejaVuSans-1d" d="M 750 794 
L 1409 794 
L 1409 0 
L 750 0 
L 750 794 
z
M 750 3309 
L 1409 3309 
L 1409 2516 
L 750 2516 
L 750 3309 
z
" transform="scale(0.015625)"/>
      <path id="DejaVuSans-44" d="M 2194 1759 
Q 1497 1759 1228 1600 
Q 959 1441 959 1056 
Q 959 750 1161 570 
Q 1363 391 1709 391 
Q 2188 391 2477 730 
Q 2766 1069 2766 1631 
L 2766 1759 
L 2194 1759 
z
M 3341 1997 
L 3341 0 
L 2766 0 
L 2766 531 
Q 2569 213 2275 61 
Q 1981 -91 1556 -91 
Q 1019 -91 701 211 
Q 384 513 384 1019 
Q 384 1609 779 1909 
Q 1175 2209 1959 2209 
L 2766 2209 
L 2766 2266 
Q 2766 2663 2505 2880 
Q 2244 3097 1772 3097 
Q 1472 3097 1187 3025 
Q 903 2953 641 2809 
L 641 3341 
Q 956 3463 1253 3523 
Q 1550 3584 1831 3584 
Q 2591 3584 2966 3190 
Q 3341 2797 3341 1997 
z
" transform="scale(0.015625)"/>
      <path id="DejaVuSans-4e" d="M 581 4863 
L 1159 4863 
L 1159 1991 
L 2875 3500 
L 3609 3500 
L 1753 1863 
L 3688 0 
L 2938 0 
L 1159 1709 
L 1159 0 
L 581 0 
L 581 4863 
z
" transform="scale(0.015625)"/>
     </defs>
     <use xlink:href="#DejaVuSans-4c"/>
     <use xlink:href="#DejaVuSans-51" transform="translate(27.78125 0)"/>
     <use xlink:href="#DejaVuSans-57" transform="translate(91.15625 0)"/>
     <use xlink:href="#DejaVuSans-52" transform="translate(130.359375 0)"/>
     <use xlink:href="#DejaVuSans-3" transform="translate(191.546875 0)"/>
     <use xlink:href="#DejaVuSans-57" transform="translate(223.328125 0)"/>
     <use xlink:href="#DejaVuSans-4b" transform="translate(262.53125 0)"/>
     <use xlink:href="#DejaVuSans-48" transform="translate(325.90625 0)"/>
     <use xlink:href="#DejaVuSans-3" transform="translate(387.4375 0)"/>
     <use xlink:href="#DejaVuSans-48" transform="translate(419.21875 0)"/>
     <use xlink:href="#DejaVuSans-51" transform="translate(480.75 0)"/>
     <use xlink:href="#DejaVuSans-47" transform="translate(544.125 0)"/>
     <use xlink:href="#DejaVuSans-3" transform="translate(607.609375 0)"/>
     <use xlink:href="#DejaVuSans-5d" transform="translate(639.390625 0)"/>
     <use xlink:href="#DejaVuSans-52" transform="translate(691.875 0)"/>
     <use xlink:href="#DejaVuSans-51" transform="translate(753.0625 0)"/>
     <use xlink:href="#DejaVuSans-48" transform="translate(816.4375 0)"/>
     <use xlink:href="#DejaVuSans-1d" transform="translate(877.96875 0)"/>
     <use xlink:href="#DejaVuSans-3" transform="translate(911.65625 0)"/>
     <use xlink:href="#DejaVuSans-57" transform="translate(943.4375 0)"/>
     <use xlink:href="#DejaVuSans-52" transform="translate(982.640625 0)"/>
     <use xlink:href="#DejaVuSans-58" transform="translate(1043.828125 0)"/>
     <use xlink:href="#DejaVuSans-46" transform="translate(1107.203125 0)"/>
     <use xlink:href="#DejaVuSans-4b" transform="translate(1162.1875 0)"/>
     <use xlink:href="#DejaVuSans-45" transform="translate(1225.5625 0)"/>
     <use xlink:href="#DejaVuSans-44" transform="translate(1289.046875 0)"/>
     <use xlink:href="#DejaVuSans-46" transform="translate(1350.328125 0)"/>
     <use xlink:href="#DejaVuSans-4e" transform="translate(1405.3125 0)"/>
    </g>
    <!-- (ball at the 20) -->
    <g style="fill: #52514e" transform="translate(43.510406 109.932594) scale(0.068 -0.068)">
     <defs>
      <path id="DejaVuSans-b" d="M 1984 4856 
Q 1566 4138 1362 3434 
Q 1159 2731 1159 2009 
Q 1159 1288 1364 580 
Q 1569 -128 1984 -844 
L 1484 -844 
Q 1016 -109 783 600 
Q 550 1309 550 2009 
Q 550 2706 781 3412 
Q 1013 4119 1484 4856 
L 1984 4856 
z
" transform="scale(0.015625)"/>
      <path id="DejaVuSans-15" d="M 1228 531 
L 3431 531 
L 3431 0 
L 469 0 
L 469 531 
Q 828 903 1448 1529 
Q 2069 2156 2228 2338 
Q 2531 2678 2651 2914 
Q 2772 3150 2772 3378 
Q 2772 3750 2511 3984 
Q 2250 4219 1831 4219 
Q 1534 4219 1204 4116 
Q 875 4013 500 3803 
L 500 4441 
Q 881 4594 1212 4672 
Q 1544 4750 1819 4750 
Q 2544 4750 2975 4387 
Q 3406 4025 3406 3419 
Q 3406 3131 3298 2873 
Q 3191 2616 2906 2266 
Q 2828 2175 2409 1742 
Q 1991 1309 1228 531 
z
" transform="scale(0.015625)"/>
      <path id="DejaVuSans-13" d="M 2034 4250 
Q 1547 4250 1301 3770 
Q 1056 3291 1056 2328 
Q 1056 1369 1301 889 
Q 1547 409 2034 409 
Q 2525 409 2770 889 
Q 3016 1369 3016 2328 
Q 3016 3291 2770 3770 
Q 2525 4250 2034 4250 
z
M 2034 4750 
Q 2819 4750 3233 4129 
Q 3647 3509 3647 2328 
Q 3647 1150 3233 529 
Q 2819 -91 2034 -91 
Q 1250 -91 836 529 
Q 422 1150 422 2328 
Q 422 3509 836 4129 
Q 1250 4750 2034 4750 
z
" transform="scale(0.015625)"/>
      <path id="DejaVuSans-c" d="M 513 4856 
L 1013 4856 
Q 1481 4119 1714 3412 
Q 1947 2706 1947 2009 
Q 1947 1309 1714 600 
Q 1481 -109 1013 -844 
L 513 -844 
Q 928 -128 1133 580 
Q 1338 1288 1338 2009 
Q 1338 2731 1133 3434 
Q 928 4138 513 4856 
z
" transform="scale(0.015625)"/>
     </defs>
     <use xlink:href="#DejaVuSans-b"/>
     <use xlink:href="#DejaVuSans-45" transform="translate(39.015625 0)"/>
     <use xlink:href="#DejaVuSans-44" transform="translate(102.5 0)"/>
     <use xlink:href="#DejaVuSans-4f" transform="translate(163.78125 0)"/>
     <use xlink:href="#DejaVuSans-4f" transform="translate(191.5625 0)"/>
     <use xlink:href="#DejaVuSans-3" transform="translate(219.34375 0)"/>
     <use xlink:href="#DejaVuSans-44" transform="translate(251.125 0)"/>
     <use xlink:href="#DejaVuSans-57" transform="translate(312.40625 0)"/>
     <use xlink:href="#DejaVuSans-3" transform="translate(351.609375 0)"/>
     <use xlink:href="#DejaVuSans-57" transform="translate(383.390625 0)"/>
     <use xlink:href="#DejaVuSans-4b" transform="translate(422.59375 0)"/>
     <use xlink:href="#DejaVuSans-48" transform="translate(485.96875 0)"/>
     <use xlink:href="#DejaVuSans-3" transform="translate(547.5 0)"/>
     <use xlink:href="#DejaVuSans-15" transform="translate(579.28125 0)"/>
     <use xlink:href="#DejaVuSans-13" transform="translate(642.90625 0)"/>
     <use xlink:href="#DejaVuSans-c" transform="translate(706.53125 0)"/>
    </g>
    <!-- out of bounds: their ball there -->
    <g style="fill: #52514e" transform="translate(17.93975 118.492625) scale(0.068 -0.068)">
     <defs>
      <path id="DejaVuSans-49" d="M 2375 4863 
L 2375 4384 
L 1825 4384 
Q 1516 4384 1395 4259 
Q 1275 4134 1275 3809 
L 1275 3500 
L 2222 3500 
L 2222 3053 
L 1275 3053 
L 1275 0 
L 697 0 
L 697 3053 
L 147 3053 
L 147 3500 
L 697 3500 
L 697 3744 
Q 697 4328 969 4595 
Q 1241 4863 1831 4863 
L 2375 4863 
z
" transform="scale(0.015625)"/>
     </defs>
     <use xlink:href="#DejaVuSans-52"/>
     <use xlink:href="#DejaVuSans-58" transform="translate(61.1875 0)"/>
     <use xlink:href="#DejaVuSans-57" transform="translate(124.5625 0)"/>
     <use xlink:href="#DejaVuSans-3" transform="translate(163.765625 0)"/>
     <use xlink:href="#DejaVuSans-52" transform="translate(195.546875 0)"/>
     <use xlink:href="#DejaVuSans-49" transform="translate(256.734375 0)"/>
     <use xlink:href="#DejaVuSans-3" transform="translate(291.9375 0)"/>
     <use xlink:href="#DejaVuSans-45" transform="translate(323.71875 0)"/>
     <use xlink:href="#DejaVuSans-52" transform="translate(387.203125 0)"/>
     <use xlink:href="#DejaVuSans-58" transform="translate(448.390625 0)"/>
     <use xlink:href="#DejaVuSans-51" transform="translate(511.765625 0)"/>
     <use xlink:href="#DejaVuSans-47" transform="translate(575.140625 0)"/>
     <use xlink:href="#DejaVuSans-56" transform="translate(638.625 0)"/>
     <use xlink:href="#DejaVuSans-1d" transform="translate(690.71875 0)"/>
     <use xlink:href="#DejaVuSans-3" transform="translate(724.40625 0)"/>
     <use xlink:href="#DejaVuSans-57" transform="translate(756.1875 0)"/>
     <use xlink:href="#DejaVuSans-4b" transform="translate(795.390625 0)"/>
     <use xlink:href="#DejaVuSans-48" transform="translate(858.765625 0)"/>
     <use xlink:href="#DejaVuSans-4c" transform="translate(920.296875 0)"/>
     <use xlink:href="#DejaVuSans-55" transform="translate(948.078125 0)"/>
     <use xlink:href="#DejaVuSans-3" transform="translate(989.1875 0)"/>
     <use xlink:href="#DejaVuSans-45" transform="translate(1020.96875 0)"/>
     <use xlink:href="#DejaVuSans-44" transform="translate(1084.453125 0)"/>
     <use xlink:href="#DejaVuSans-4f" transform="translate(1145.734375 0)"/>
     <use xlink:href="#DejaVuSans-4f" transform="translate(1173.515625 0)"/>
     <use xlink:href="#DejaVuSans-3" transform="translate(1201.296875 0)"/>
     <use xlink:href="#DejaVuSans-57" transform="translate(1233.078125 0)"/>
     <use xlink:href="#DejaVuSans-4b" transform="translate(1272.28125 0)"/>
     <use xlink:href="#DejaVuSans-48" transform="translate(1335.65625 0)"/>
     <use xlink:href="#DejaVuSans-55" transform="translate(1397.1875 0)"/>
     <use xlink:href="#DejaVuSans-48" transform="translate(1436.09375 0)"/>
    </g>
    <!-- comes to rest: their ball there -->
    <g style="fill: #52514e" transform="translate(18.205906 126.652625) scale(0.068 -0.068)">
     <defs>
      <path id="DejaVuSans-50" d="M 3328 2828 
Q 3544 3216 3844 3400 
Q 4144 3584 4550 3584 
Q 5097 3584 5394 3201 
Q 5691 2819 5691 2113 
L 5691 0 
L 5113 0 
L 5113 2094 
Q 5113 2597 4934 2840 
Q 4756 3084 4391 3084 
Q 3944 3084 3684 2787 
Q 3425 2491 3425 1978 
L 3425 0 
L 2847 0 
L 2847 2094 
Q 2847 2600 2669 2842 
Q 2491 3084 2119 3084 
Q 1678 3084 1418 2786 
Q 1159 2488 1159 1978 
L 1159 0 
L 581 0 
L 581 3500 
L 1159 3500 
L 1159 2956 
Q 1356 3278 1631 3431 
Q 1906 3584 2284 3584 
Q 2666 3584 2933 3390 
Q 3200 3197 3328 2828 
z
" transform="scale(0.015625)"/>
     </defs>
     <use xlink:href="#DejaVuSans-46"/>
     <use xlink:href="#DejaVuSans-52" transform="translate(54.984375 0)"/>
     <use xlink:href="#DejaVuSans-50" transform="translate(116.171875 0)"/>
     <use xlink:href="#DejaVuSans-48" transform="translate(213.578125 0)"/>
     <use xlink:href="#DejaVuSans-56" transform="translate(275.109375 0)"/>
     <use xlink:href="#DejaVuSans-3" transform="translate(327.203125 0)"/>
     <use xlink:href="#DejaVuSans-57" transform="translate(358.984375 0)"/>
     <use xlink:href="#DejaVuSans-52" transform="translate(398.1875 0)"/>
     <use xlink:href="#DejaVuSans-3" transform="translate(459.375 0)"/>
     <use xlink:href="#DejaVuSans-55" transform="translate(491.15625 0)"/>
     <use xlink:href="#DejaVuSans-48" transform="translate(530.0625 0)"/>
     <use xlink:href="#DejaVuSans-56" transform="translate(591.59375 0)"/>
     <use xlink:href="#DejaVuSans-57" transform="translate(643.6875 0)"/>
     <use xlink:href="#DejaVuSans-1d" transform="translate(682.890625 0)"/>
     <use xlink:href="#DejaVuSans-3" transform="translate(716.578125 0)"/>
     <use xlink:href="#DejaVuSans-57" transform="translate(748.359375 0)"/>
     <use xlink:href="#DejaVuSans-4b" transform="translate(787.5625 0)"/>
     <use xlink:href="#DejaVuSans-48" transform="translate(850.9375 0)"/>
     <use xlink:href="#DejaVuSans-4c" transform="translate(912.46875 0)"/>
     <use xlink:href="#DejaVuSans-55" transform="translate(940.25 0)"/>
     <use xlink:href="#DejaVuSans-3" transform="translate(981.359375 0)"/>
     <use xlink:href="#DejaVuSans-45" transform="translate(1013.140625 0)"/>
     <use xlink:href="#DejaVuSans-44" transform="translate(1076.625 0)"/>
     <use xlink:href="#DejaVuSans-4f" transform="translate(1137.90625 0)"/>
     <use xlink:href="#DejaVuSans-4f" transform="translate(1165.6875 0)"/>
     <use xlink:href="#DejaVuSans-3" transform="translate(1193.46875 0)"/>
     <use xlink:href="#DejaVuSans-57" transform="translate(1225.25 0)"/>
     <use xlink:href="#DejaVuSans-4b" transform="translate(1264.453125 0)"/>
     <use xlink:href="#DejaVuSans-48" transform="translate(1327.828125 0)"/>
     <use xlink:href="#DejaVuSans-55" transform="translate(1389.359375 0)"/>
     <use xlink:href="#DejaVuSans-48" transform="translate(1428.265625 0)"/>
    </g>
   </g>
   <g id="text_5">
    <!-- The receiving team -->
    <g style="fill: #0b0b0b" transform="translate(145.1525 88.55934) scale(0.08 -0.08)">
     <defs>
      <path id="DejaVuSans-Bold-46" d="M 3366 3391 
L 3366 2478 
Q 3138 2634 2908 2709 
Q 2678 2784 2431 2784 
Q 1963 2784 1702 2511 
Q 1441 2238 1441 1747 
Q 1441 1256 1702 982 
Q 1963 709 2431 709 
Q 2694 709 2930 787 
Q 3166 866 3366 1019 
L 3366 103 
Q 3103 6 2833 -42 
Q 2563 -91 2291 -91 
Q 1344 -91 809 395 
Q 275 881 275 1747 
Q 275 2613 809 3098 
Q 1344 3584 2291 3584 
Q 2566 3584 2833 3536 
Q 3100 3488 3366 3391 
z
" transform="scale(0.015625)"/>
      <path id="DejaVuSans-Bold-59" d="M 97 3500 
L 1216 3500 
L 2088 1081 
L 2956 3500 
L 4078 3500 
L 2700 0 
L 1472 0 
L 97 3500 
z
" transform="scale(0.015625)"/>
      <path id="DejaVuSans-Bold-4a" d="M 2919 594 
Q 2688 288 2409 144 
Q 2131 0 1766 0 
Q 1125 0 706 504 
Q 288 1009 288 1791 
Q 288 2575 706 3076 
Q 1125 3578 1766 3578 
Q 2131 3578 2409 3434 
Q 2688 3291 2919 2981 
L 2919 3500 
L 4044 3500 
L 4044 353 
Q 4044 -491 3511 -936 
Q 2978 -1381 1966 -1381 
Q 1638 -1381 1331 -1331 
Q 1025 -1281 716 -1178 
L 716 -306 
Q 1009 -475 1290 -558 
Q 1572 -641 1856 -641 
Q 2406 -641 2662 -400 
Q 2919 -159 2919 353 
L 2919 594 
z
M 2181 2772 
Q 1834 2772 1640 2515 
Q 1447 2259 1447 1791 
Q 1447 1309 1634 1061 
Q 1822 813 2181 813 
Q 2531 813 2725 1069 
Q 2919 1325 2919 1791 
Q 2919 2259 2725 2515 
Q 2531 2772 2181 2772 
z
" transform="scale(0.015625)"/>
      <path id="DejaVuSans-Bold-50" d="M 3781 2919 
Q 3994 3244 4286 3414 
Q 4578 3584 4928 3584 
Q 5531 3584 5847 3212 
Q 6163 2841 6163 2131 
L 6163 0 
L 5038 0 
L 5038 1825 
Q 5041 1866 5042 1909 
Q 5044 1953 5044 2034 
Q 5044 2406 4934 2573 
Q 4825 2741 4581 2741 
Q 4263 2741 4089 2478 
Q 3916 2216 3909 1719 
L 3909 0 
L 2784 0 
L 2784 1825 
Q 2784 2406 2684 2573 
Q 2584 2741 2328 2741 
Q 2006 2741 1831 2477 
Q 1656 2213 1656 1722 
L 1656 0 
L 531 0 
L 531 3500 
L 1656 3500 
L 1656 2988 
Q 1863 3284 2130 3434 
Q 2397 3584 2719 3584 
Q 3081 3584 3359 3409 
Q 3638 3234 3781 2919 
z
" transform="scale(0.015625)"/>
     </defs>
     <use xlink:href="#DejaVuSans-Bold-37"/>
     <use xlink:href="#DejaVuSans-Bold-4b" transform="translate(68.21875 0)"/>
     <use xlink:href="#DejaVuSans-Bold-48" transform="translate(139.40625 0)"/>
     <use xlink:href="#DejaVuSans-Bold-3" transform="translate(207.234375 0)"/>
     <use xlink:href="#DejaVuSans-Bold-55" transform="translate(242.046875 0)"/>
     <use xlink:href="#DejaVuSans-Bold-48" transform="translate(291.359375 0)"/>
     <use xlink:href="#DejaVuSans-Bold-46" transform="translate(359.1875 0)"/>
     <use xlink:href="#DejaVuSans-Bold-48" transform="translate(418.46875 0)"/>
     <use xlink:href="#DejaVuSans-Bold-4c" transform="translate(486.296875 0)"/>
     <use xlink:href="#DejaVuSans-Bold-59" transform="translate(520.578125 0)"/>
     <use xlink:href="#DejaVuSans-Bold-4c" transform="translate(585.765625 0)"/>
     <use xlink:href="#DejaVuSans-Bold-51" transform="translate(620.046875 0)"/>
     <use xlink:href="#DejaVuSans-Bold-4a" transform="translate(691.234375 0)"/>
     <use xlink:href="#DejaVuSans-Bold-3" transform="translate(762.8125 0)"/>
     <use xlink:href="#DejaVuSans-Bold-57" transform="translate(797.625 0)"/>
     <use xlink:href="#DejaVuSans-Bold-48" transform="translate(845.421875 0)"/>
     <use xlink:href="#DejaVuSans-Bold-44" transform="translate(913.25 0)"/>
     <use xlink:href="#DejaVuSans-Bold-50" transform="translate(980.734375 0)"/>
    </g>
   </g>
   <g id="text_6">
    <!-- catch after a fair-catch signal: -->
    <g style="fill: #52514e" transform="translate(137.645625 101.513875) scale(0.068 -0.068)">
     <defs>
      <path id="DejaVuSans-10" d="M 313 2009 
L 1997 2009 
L 1997 1497 
L 313 1497 
L 313 2009 
z
" transform="scale(0.015625)"/>
      <path id="DejaVuSans-4a" d="M 2906 1791 
Q 2906 2416 2648 2759 
Q 2391 3103 1925 3103 
Q 1463 3103 1205 2759 
Q 947 2416 947 1791 
Q 947 1169 1205 825 
Q 1463 481 1925 481 
Q 2391 481 2648 825 
Q 2906 1169 2906 1791 
z
M 3481 434 
Q 3481 -459 3084 -895 
Q 2688 -1331 1869 -1331 
Q 1566 -1331 1297 -1286 
Q 1028 -1241 775 -1147 
L 775 -588 
Q 1028 -725 1275 -790 
Q 1522 -856 1778 -856 
Q 2344 -856 2625 -561 
Q 2906 -266 2906 331 
L 2906 616 
Q 2728 306 2450 153 
Q 2172 0 1784 0 
Q 1141 0 747 490 
Q 353 981 353 1791 
Q 353 2603 747 3093 
Q 1141 3584 1784 3584 
Q 2172 3584 2450 3431 
Q 2728 3278 2906 2969 
L 2906 3500 
L 3481 3500 
L 3481 434 
z
" transform="scale(0.015625)"/>
     </defs>
     <use xlink:href="#DejaVuSans-46"/>
     <use xlink:href="#DejaVuSans-44" transform="translate(54.984375 0)"/>
     <use xlink:href="#DejaVuSans-57" transform="translate(116.265625 0)"/>
     <use xlink:href="#DejaVuSans-46" transform="translate(155.46875 0)"/>
     <use xlink:href="#DejaVuSans-4b" transform="translate(210.453125 0)"/>
     <use xlink:href="#DejaVuSans-3" transform="translate(273.828125 0)"/>
     <use xlink:href="#DejaVuSans-44" transform="translate(305.609375 0)"/>
     <use xlink:href="#DejaVuSans-49" transform="translate(366.890625 0)"/>
     <use xlink:href="#DejaVuSans-57" transform="translate(400.34375 0)"/>
     <use xlink:href="#DejaVuSans-48" transform="translate(439.546875 0)"/>
     <use xlink:href="#DejaVuSans-55" transform="translate(501.078125 0)"/>
     <use xlink:href="#DejaVuSans-3" transform="translate(542.1875 0)"/>
     <use xlink:href="#DejaVuSans-44" transform="translate(573.96875 0)"/>
     <use xlink:href="#DejaVuSans-3" transform="translate(635.25 0)"/>
     <use xlink:href="#DejaVuSans-49" transform="translate(667.03125 0)"/>
     <use xlink:href="#DejaVuSans-44" transform="translate(702.234375 0)"/>
     <use xlink:href="#DejaVuSans-4c" transform="translate(763.515625 0)"/>
     <use xlink:href="#DejaVuSans-55" transform="translate(791.296875 0)"/>
     <use xlink:href="#DejaVuSans-10" transform="translate(826.015625 0)"/>
     <use xlink:href="#DejaVuSans-46" transform="translate(862.09375 0)"/>
     <use xlink:href="#DejaVuSans-44" transform="translate(917.078125 0)"/>
     <use xlink:href="#DejaVuSans-57" transform="translate(978.359375 0)"/>
     <use xlink:href="#DejaVuSans-46" transform="translate(1017.5625 0)"/>
     <use xlink:href="#DejaVuSans-4b" transform="translate(1072.546875 0)"/>
     <use xlink:href="#DejaVuSans-3" transform="translate(1135.921875 0)"/>
     <use xlink:href="#DejaVuSans-56" transform="translate(1167.703125 0)"/>
     <use xlink:href="#DejaVuSans-4c" transform="translate(1219.796875 0)"/>
     <use xlink:href="#DejaVuSans-4a" transform="translate(1247.578125 0)"/>
     <use xlink:href="#DejaVuSans-51" transform="translate(1311.0625 0)"/>
     <use xlink:href="#DejaVuSans-44" transform="translate(1374.4375 0)"/>
     <use xlink:href="#DejaVuSans-4f" transform="translate(1435.71875 0)"/>
     <use xlink:href="#DejaVuSans-1d" transform="translate(1463.5 0)"/>
    </g>
    <!-- dead there, no return -->
    <g style="fill: #52514e" transform="translate(152.109969 109.985719) scale(0.068 -0.068)">
     <use xlink:href="#DejaVuSans-47"/>
     <use xlink:href="#DejaVuSans-48" transform="translate(63.484375 0)"/>
     <use xlink:href="#DejaVuSans-44" transform="translate(125.015625 0)"/>
     <use xlink:href="#DejaVuSans-47" transform="translate(186.296875 0)"/>
     <use xlink:href="#DejaVuSans-3" transform="translate(249.78125 0)"/>
     <use xlink:href="#DejaVuSans-57" transform="translate(281.5625 0)"/>
     <use xlink:href="#DejaVuSans-4b" transform="translate(320.765625 0)"/>
     <use xlink:href="#DejaVuSans-48" transform="translate(384.140625 0)"/>
     <use xlink:href="#DejaVuSans-55" transform="translate(445.671875 0)"/>
     <use xlink:href="#DejaVuSans-48" transform="translate(484.578125 0)"/>
     <use xlink:href="#DejaVuSans-f" transform="translate(546.109375 0)"/>
     <use xlink:href="#DejaVuSans-3" transform="translate(577.890625 0)"/>
     <use xlink:href="#DejaVuSans-51" transform="translate(609.671875 0)"/>
     <use xlink:href="#DejaVuSans-52" transform="translate(673.046875 0)"/>
     <use xlink:href="#DejaVuSans-3" transform="translate(734.234375 0)"/>
     <use xlink:href="#DejaVuSans-55" transform="translate(766.015625 0)"/>
     <use xlink:href="#DejaVuSans-48" transform="translate(804.921875 0)"/>
     <use xlink:href="#DejaVuSans-57" transform="translate(866.453125 0)"/>
     <use xlink:href="#DejaVuSans-58" transform="translate(905.65625 0)"/>
     <use xlink:href="#DejaVuSans-55" transform="translate(969.03125 0)"/>
     <use xlink:href="#DejaVuSans-51" transform="translate(1008.390625 0)"/>
    </g>
    <!-- catch without one: return it -->
    <g style="fill: #52514e" transform="translate(141.99125 118.492625) scale(0.068 -0.068)">
     <use xlink:href="#DejaVuSans-46"/>
     <use xlink:href="#DejaVuSans-44" transform="translate(54.984375 0)"/>
     <use xlink:href="#DejaVuSans-57" transform="translate(116.265625 0)"/>
     <use xlink:href="#DejaVuSans-46" transform="translate(155.46875 0)"/>
     <use xlink:href="#DejaVuSans-4b" transform="translate(210.453125 0)"/>
     <use xlink:href="#DejaVuSans-3" transform="translate(273.828125 0)"/>
     <use xlink:href="#DejaVuSans-5a" transform="translate(305.609375 0)"/>
     <use xlink:href="#DejaVuSans-4c" transform="translate(387.390625 0)"/>
     <use xlink:href="#DejaVuSans-57" transform="translate(415.171875 0)"/>
     <use xlink:href="#DejaVuSans-4b" transform="translate(454.375 0)"/>
     <use xlink:href="#DejaVuSans-52" transform="translate(517.75 0)"/>
     <use xlink:href="#DejaVuSans-58" transform="translate(578.9375 0)"/>
     <use xlink:href="#DejaVuSans-57" transform="translate(642.3125 0)"/>
     <use xlink:href="#DejaVuSans-3" transform="translate(681.515625 0)"/>
     <use xlink:href="#DejaVuSans-52" transform="translate(713.296875 0)"/>
     <use xlink:href="#DejaVuSans-51" transform="translate(774.484375 0)"/>
     <use xlink:href="#DejaVuSans-48" transform="translate(837.859375 0)"/>
     <use xlink:href="#DejaVuSans-1d" transform="translate(899.390625 0)"/>
     <use xlink:href="#DejaVuSans-3" transform="translate(933.078125 0)"/>
     <use xlink:href="#DejaVuSans-55" transform="translate(964.859375 0)"/>
     <use xlink:href="#DejaVuSans-48" transform="translate(1003.765625 0)"/>
     <use xlink:href="#DejaVuSans-57" transform="translate(1065.296875 0)"/>
     <use xlink:href="#DejaVuSans-58" transform="translate(1104.5 0)"/>
     <use xlink:href="#DejaVuSans-55" transform="translate(1167.875 0)"/>
     <use xlink:href="#DejaVuSans-51" transform="translate(1207.234375 0)"/>
     <use xlink:href="#DejaVuSans-3" transform="translate(1270.609375 0)"/>
     <use xlink:href="#DejaVuSans-4c" transform="translate(1302.390625 0)"/>
     <use xlink:href="#DejaVuSans-57" transform="translate(1330.171875 0)"/>
    </g>
    <!-- nobody may interfere -->
    <g style="fill: #52514e" transform="translate(151.710469 125.993875) scale(0.068 -0.068)">
     <use xlink:href="#DejaVuSans-51"/>
     <use xlink:href="#DejaVuSans-52" transform="translate(63.375 0)"/>
     <use xlink:href="#DejaVuSans-45" transform="translate(124.5625 0)"/>
     <use xlink:href="#DejaVuSans-52" transform="translate(188.046875 0)"/>
     <use xlink:href="#DejaVuSans-47" transform="translate(249.234375 0)"/>
     <use xlink:href="#DejaVuSans-5c" transform="translate(312.71875 0)"/>
     <use xlink:href="#DejaVuSans-3" transform="translate(371.90625 0)"/>
     <use xlink:href="#DejaVuSans-50" transform="translate(403.6875 0)"/>
     <use xlink:href="#DejaVuSans-44" transform="translate(501.09375 0)"/>
     <use xlink:href="#DejaVuSans-5c" transform="translate(562.375 0)"/>
     <use xlink:href="#DejaVuSans-3" transform="translate(621.5625 0)"/>
     <use xlink:href="#DejaVuSans-4c" transform="translate(653.34375 0)"/>
     <use xlink:href="#DejaVuSans-51" transform="translate(681.125 0)"/>
     <use xlink:href="#DejaVuSans-57" transform="translate(744.5 0)"/>
     <use xlink:href="#DejaVuSans-48" transform="translate(783.703125 0)"/>
     <use xlink:href="#DejaVuSans-55" transform="translate(845.234375 0)"/>
     <use xlink:href="#DejaVuSans-49" transform="translate(886.34375 0)"/>
     <use xlink:href="#DejaVuSans-48" transform="translate(921.546875 0)"/>
     <use xlink:href="#DejaVuSans-55" transform="translate(983.078125 0)"/>
     <use xlink:href="#DejaVuSans-48" transform="translate(1021.984375 0)"/>
    </g>
   </g>
   <g id="text_7">
    <!-- The kicking team -->
    <g style="fill: #0b0b0b" transform="translate(269.52975 88.55934) scale(0.08 -0.08)">
     <defs>
      <path id="DejaVuSans-Bold-4e" d="M 538 4863 
L 1656 4863 
L 1656 2216 
L 2944 3500 
L 4244 3500 
L 2534 1894 
L 4378 0 
L 3022 0 
L 1656 1459 
L 1656 0 
L 538 0 
L 538 4863 
z
" transform="scale(0.015625)"/>
     </defs>
     <use xlink:href="#DejaVuSans-Bold-37"/>
     <use xlink:href="#DejaVuSans-Bold-4b" transform="translate(68.21875 0)"/>
     <use xlink:href="#DejaVuSans-Bold-48" transform="translate(139.40625 0)"/>
     <use xlink:href="#DejaVuSans-Bold-3" transform="translate(207.234375 0)"/>
     <use xlink:href="#DejaVuSans-Bold-4e" transform="translate(242.046875 0)"/>
     <use xlink:href="#DejaVuSans-Bold-4c" transform="translate(308.546875 0)"/>
     <use xlink:href="#DejaVuSans-Bold-46" transform="translate(342.828125 0)"/>
     <use xlink:href="#DejaVuSans-Bold-4e" transform="translate(402.109375 0)"/>
     <use xlink:href="#DejaVuSans-Bold-4c" transform="translate(468.609375 0)"/>
     <use xlink:href="#DejaVuSans-Bold-51" transform="translate(502.890625 0)"/>
     <use xlink:href="#DejaVuSans-Bold-4a" transform="translate(574.078125 0)"/>
     <use xlink:href="#DejaVuSans-Bold-3" transform="translate(645.65625 0)"/>
     <use xlink:href="#DejaVuSans-Bold-57" transform="translate(680.46875 0)"/>
     <use xlink:href="#DejaVuSans-Bold-48" transform="translate(728.265625 0)"/>
     <use xlink:href="#DejaVuSans-Bold-44" transform="translate(796.09375 0)"/>
     <use xlink:href="#DejaVuSans-Bold-50" transform="translate(863.578125 0)"/>
    </g>
   </g>
   <g id="text_8">
    <!-- first touching: a violation, -->
    <g style="fill: #52514e" transform="translate(264.618469 101.513875) scale(0.068 -0.068)">
     <defs>
      <path id="DejaVuSans-59" d="M 191 3500 
L 800 3500 
L 1894 563 
L 2988 3500 
L 3597 3500 
L 2284 0 
L 1503 0 
L 191 3500 
z
" transform="scale(0.015625)"/>
     </defs>
     <use xlink:href="#DejaVuSans-13af"/>
     <use xlink:href="#DejaVuSans-55" transform="translate(62.984375 0)"/>
     <use xlink:href="#DejaVuSans-56" transform="translate(104.09375 0)"/>
     <use xlink:href="#DejaVuSans-57" transform="translate(156.1875 0)"/>
     <use xlink:href="#DejaVuSans-3" transform="translate(195.390625 0)"/>
     <use xlink:href="#DejaVuSans-57" transform="translate(227.171875 0)"/>
     <use xlink:href="#DejaVuSans-52" transform="translate(266.375 0)"/>
     <use xlink:href="#DejaVuSans-58" transform="translate(327.5625 0)"/>
     <use xlink:href="#DejaVuSans-46" transform="translate(390.9375 0)"/>
     <use xlink:href="#DejaVuSans-4b" transform="translate(445.921875 0)"/>
     <use xlink:href="#DejaVuSans-4c" transform="translate(509.296875 0)"/>
     <use xlink:href="#DejaVuSans-51" transform="translate(537.078125 0)"/>
     <use xlink:href="#DejaVuSans-4a" transform="translate(600.453125 0)"/>
     <use xlink:href="#DejaVuSans-1d" transform="translate(663.9375 0)"/>
     <use xlink:href="#DejaVuSans-3" transform="translate(697.625 0)"/>
     <use xlink:href="#DejaVuSans-44" transform="translate(729.40625 0)"/>
     <use xlink:href="#DejaVuSans-3" transform="translate(790.6875 0)"/>
     <use xlink:href="#DejaVuSans-59" transform="translate(822.46875 0)"/>
     <use xlink:href="#DejaVuSans-4c" transform="translate(881.65625 0)"/>
     <use xlink:href="#DejaVuSans-52" transform="translate(909.4375 0)"/>
     <use xlink:href="#DejaVuSans-4f" transform="translate(970.625 0)"/>
     <use xlink:href="#DejaVuSans-44" transform="translate(998.40625 0)"/>
     <use xlink:href="#DejaVuSans-57" transform="translate(1059.6875 0)"/>
     <use xlink:href="#DejaVuSans-4c" transform="translate(1098.890625 0)"/>
     <use xlink:href="#DejaVuSans-52" transform="translate(1126.671875 0)"/>
     <use xlink:href="#DejaVuSans-51" transform="translate(1187.859375 0)"/>
     <use xlink:href="#DejaVuSans-f" transform="translate(1251.234375 0)"/>
    </g>
    <!-- not a foul. Loose, it stays live; -->
    <g style="fill: #52514e" transform="translate(257.32175 109.673875) scale(0.068 -0.068)">
     <defs>
      <path id="DejaVuSans-11" d="M 684 794 
L 1344 794 
L 1344 0 
L 684 0 
L 684 794 
z
" transform="scale(0.015625)"/>
      <path id="DejaVuSans-2f" d="M 628 4666 
L 1259 4666 
L 1259 531 
L 3531 531 
L 3531 0 
L 628 0 
L 628 4666 
z
" transform="scale(0.015625)"/>
      <path id="DejaVuSans-1e" d="M 750 3309 
L 1409 3309 
L 1409 2516 
L 750 2516 
L 750 3309 
z
M 750 794 
L 1409 794 
L 1409 256 
L 897 -744 
L 494 -744 
L 750 256 
L 750 794 
z
" transform="scale(0.015625)"/>
     </defs>
     <use xlink:href="#DejaVuSans-51"/>
     <use xlink:href="#DejaVuSans-52" transform="translate(63.375 0)"/>
     <use xlink:href="#DejaVuSans-57" transform="translate(124.5625 0)"/>
     <use xlink:href="#DejaVuSans-3" transform="translate(163.765625 0)"/>
     <use xlink:href="#DejaVuSans-44" transform="translate(195.546875 0)"/>
     <use xlink:href="#DejaVuSans-3" transform="translate(256.828125 0)"/>
     <use xlink:href="#DejaVuSans-49" transform="translate(288.609375 0)"/>
     <use xlink:href="#DejaVuSans-52" transform="translate(323.8125 0)"/>
     <use xlink:href="#DejaVuSans-58" transform="translate(385 0)"/>
     <use xlink:href="#DejaVuSans-4f" transform="translate(448.375 0)"/>
     <use xlink:href="#DejaVuSans-11" transform="translate(476.15625 0)"/>
     <use xlink:href="#DejaVuSans-3" transform="translate(507.9375 0)"/>
     <use xlink:href="#DejaVuSans-2f" transform="translate(539.71875 0)"/>
     <use xlink:href="#DejaVuSans-52" transform="translate(593.6875 0)"/>
     <use xlink:href="#DejaVuSans-52" transform="translate(654.875 0)"/>
     <use xlink:href="#DejaVuSans-56" transform="translate(716.0625 0)"/>
     <use xlink:href="#DejaVuSans-48" transform="translate(768.15625 0)"/>
     <use xlink:href="#DejaVuSans-f" transform="translate(829.6875 0)"/>
     <use xlink:href="#DejaVuSans-3" transform="translate(861.46875 0)"/>
     <use xlink:href="#DejaVuSans-4c" transform="translate(893.25 0)"/>
     <use xlink:href="#DejaVuSans-57" transform="translate(921.03125 0)"/>
     <use xlink:href="#DejaVuSans-3" transform="translate(960.234375 0)"/>
     <use xlink:href="#DejaVuSans-56" transform="translate(992.015625 0)"/>
     <use xlink:href="#DejaVuSans-57" transform="translate(1044.109375 0)"/>
     <use xlink:href="#DejaVuSans-44" transform="translate(1083.3125 0)"/>
     <use xlink:href="#DejaVuSans-5c" transform="translate(1144.59375 0)"/>
     <use xlink:href="#DejaVuSans-56" transform="translate(1203.78125 0)"/>
     <use xlink:href="#DejaVuSans-3" transform="translate(1255.875 0)"/>
     <use xlink:href="#DejaVuSans-4f" transform="translate(1287.65625 0)"/>
     <use xlink:href="#DejaVuSans-4c" transform="translate(1315.4375 0)"/>
     <use xlink:href="#DejaVuSans-59" transform="translate(1343.21875 0)"/>
     <use xlink:href="#DejaVuSans-48" transform="translate(1402.40625 0)"/>
     <use xlink:href="#DejaVuSans-1e" transform="translate(1463.9375 0)"/>
    </g>
    <!-- receivers may take it at the -->
    <g style="fill: #52514e" transform="translate(261.20625 117.833875) scale(0.068 -0.068)">
     <use xlink:href="#DejaVuSans-55"/>
     <use xlink:href="#DejaVuSans-48" transform="translate(38.90625 0)"/>
     <use xlink:href="#DejaVuSans-46" transform="translate(100.4375 0)"/>
     <use xlink:href="#DejaVuSans-48" transform="translate(155.421875 0)"/>
     <use xlink:href="#DejaVuSans-4c" transform="translate(216.953125 0)"/>
     <use xlink:href="#DejaVuSans-59" transform="translate(244.734375 0)"/>
     <use xlink:href="#DejaVuSans-48" transform="translate(303.921875 0)"/>
     <use xlink:href="#DejaVuSans-55" transform="translate(365.453125 0)"/>
     <use xlink:href="#DejaVuSans-56" transform="translate(406.5625 0)"/>
     <use xlink:href="#DejaVuSans-3" transform="translate(458.65625 0)"/>
     <use xlink:href="#DejaVuSans-50" transform="translate(490.4375 0)"/>
     <use xlink:href="#DejaVuSans-44" transform="translate(587.84375 0)"/>
     <use xlink:href="#DejaVuSans-5c" transform="translate(649.125 0)"/>
     <use xlink:href="#DejaVuSans-3" transform="translate(708.3125 0)"/>
     <use xlink:href="#DejaVuSans-57" transform="translate(740.09375 0)"/>
     <use xlink:href="#DejaVuSans-44" transform="translate(779.296875 0)"/>
     <use xlink:href="#DejaVuSans-4e" transform="translate(840.578125 0)"/>
     <use xlink:href="#DejaVuSans-48" transform="translate(894.921875 0)"/>
     <use xlink:href="#DejaVuSans-3" transform="translate(956.453125 0)"/>
     <use xlink:href="#DejaVuSans-4c" transform="translate(988.234375 0)"/>
     <use xlink:href="#DejaVuSans-57" transform="translate(1016.015625 0)"/>
     <use xlink:href="#DejaVuSans-3" transform="translate(1055.21875 0)"/>
     <use xlink:href="#DejaVuSans-44" transform="translate(1087 0)"/>
     <use xlink:href="#DejaVuSans-57" transform="translate(1148.28125 0)"/>
     <use xlink:href="#DejaVuSans-3" transform="translate(1187.484375 0)"/>
     <use xlink:href="#DejaVuSans-57" transform="translate(1219.265625 0)"/>
     <use xlink:href="#DejaVuSans-4b" transform="translate(1258.46875 0)"/>
     <use xlink:href="#DejaVuSans-48" transform="translate(1321.84375 0)"/>
    </g>
    <!-- spot of first touching -->
    <g style="fill: #52514e" transform="translate(272.885781 125.993875) scale(0.068 -0.068)">
     <defs>
      <path id="DejaVuSans-53" d="M 1159 525 
L 1159 -1331 
L 581 -1331 
L 581 3500 
L 1159 3500 
L 1159 2969 
Q 1341 3281 1617 3432 
Q 1894 3584 2278 3584 
Q 2916 3584 3314 3078 
Q 3713 2572 3713 1747 
Q 3713 922 3314 415 
Q 2916 -91 2278 -91 
Q 1894 -91 1617 61 
Q 1341 213 1159 525 
z
M 3116 1747 
Q 3116 2381 2855 2742 
Q 2594 3103 2138 3103 
Q 1681 3103 1420 2742 
Q 1159 2381 1159 1747 
Q 1159 1113 1420 752 
Q 1681 391 2138 391 
Q 2594 391 2855 752 
Q 3116 1113 3116 1747 
z
" transform="scale(0.015625)"/>
     </defs>
     <use xlink:href="#DejaVuSans-56"/>
     <use xlink:href="#DejaVuSans-53" transform="translate(52.09375 0)"/>
     <use xlink:href="#DejaVuSans-52" transform="translate(115.578125 0)"/>
     <use xlink:href="#DejaVuSans-57" transform="translate(176.765625 0)"/>
     <use xlink:href="#DejaVuSans-3" transform="translate(215.96875 0)"/>
     <use xlink:href="#DejaVuSans-52" transform="translate(247.75 0)"/>
     <use xlink:href="#DejaVuSans-49" transform="translate(308.9375 0)"/>
     <use xlink:href="#DejaVuSans-3" transform="translate(344.140625 0)"/>
     <use xlink:href="#DejaVuSans-13af" transform="translate(375.921875 0)"/>
     <use xlink:href="#DejaVuSans-55" transform="translate(438.90625 0)"/>
     <use xlink:href="#DejaVuSans-56" transform="translate(480.015625 0)"/>
     <use xlink:href="#DejaVuSans-57" transform="translate(532.109375 0)"/>
     <use xlink:href="#DejaVuSans-3" transform="translate(571.3125 0)"/>
     <use xlink:href="#DejaVuSans-57" transform="translate(603.09375 0)"/>
     <use xlink:href="#DejaVuSans-52" transform="translate(642.296875 0)"/>
     <use xlink:href="#DejaVuSans-58" transform="translate(703.484375 0)"/>
     <use xlink:href="#DejaVuSans-46" transform="translate(766.859375 0)"/>
     <use xlink:href="#DejaVuSans-4b" transform="translate(821.84375 0)"/>
     <use xlink:href="#DejaVuSans-4c" transform="translate(885.21875 0)"/>
     <use xlink:href="#DejaVuSans-51" transform="translate(913 0)"/>
     <use xlink:href="#DejaVuSans-4a" transform="translate(976.375 0)"/>
    </g>
   </g>
   <g id="text_9">
    <!-- Muff -->
    <g style="fill: #0b0b0b" transform="translate(73.298875 208.72554) scale(0.08 -0.08)">
     <defs>
      <path id="DejaVuSans-Bold-30" d="M 588 4666 
L 2119 4666 
L 3181 2169 
L 4250 4666 
L 5778 4666 
L 5778 0 
L 4641 0 
L 4641 3413 
L 3566 897 
L 2803 897 
L 1728 3413 
L 1728 0 
L 588 0 
L 588 4666 
z
" transform="scale(0.015625)"/>
      <path id="DejaVuSans-Bold-13aa" d="M 2841 4863 
L 2841 4128 
L 2222 4128 
Q 1984 4128 1891 4044 
Q 1797 3956 1797 3744 
L 1797 3500 
L 3078 3500 
L 3078 3744 
Q 3078 4316 3397 4588 
Q 3716 4863 4384 4863 
L 5241 4863 
L 5241 4128 
L 4622 4128 
Q 4384 4128 4291 4044 
Q 4197 3956 4197 3744 
L 4197 3500 
L 5153 3500 
L 5153 2700 
L 4197 2700 
L 4197 0 
L 3078 0 
L 3078 2700 
L 1797 2700 
L 1797 0 
L 678 0 
L 678 2700 
L 122 2700 
L 122 3500 
L 678 3500 
L 678 3744 
Q 678 4316 997 4588 
Q 1316 4863 1984 4863 
L 2841 4863 
z
" transform="scale(0.015625)"/>
     </defs>
     <use xlink:href="#DejaVuSans-Bold-30"/>
     <use xlink:href="#DejaVuSans-Bold-58" transform="translate(99.515625 0)"/>
     <use xlink:href="#DejaVuSans-Bold-13aa" transform="translate(170.703125 0)"/>
    </g>
   </g>
   <g id="text_10">
    <!-- touched, never possessed -->
    <g style="fill: #52514e" transform="translate(38.867375 221.680075) scale(0.068 -0.068)">
     <use xlink:href="#DejaVuSans-57"/>
     <use xlink:href="#DejaVuSans-52" transform="translate(39.203125 0)"/>
     <use xlink:href="#DejaVuSans-58" transform="translate(100.390625 0)"/>
     <use xlink:href="#DejaVuSans-46" transform="translate(163.765625 0)"/>
     <use xlink:href="#DejaVuSans-4b" transform="translate(218.75 0)"/>
     <use xlink:href="#DejaVuSans-48" transform="translate(282.125 0)"/>
     <use xlink:href="#DejaVuSans-47" transform="translate(343.65625 0)"/>
     <use xlink:href="#DejaVuSans-f" transform="translate(407.140625 0)"/>
     <use xlink:href="#DejaVuSans-3" transform="translate(438.921875 0)"/>
     <use xlink:href="#DejaVuSans-51" transform="translate(470.703125 0)"/>
     <use xlink:href="#DejaVuSans-48" transform="translate(534.078125 0)"/>
     <use xlink:href="#DejaVuSans-59" transform="translate(595.609375 0)"/>
     <use xlink:href="#DejaVuSans-48" transform="translate(654.796875 0)"/>
     <use xlink:href="#DejaVuSans-55" transform="translate(716.328125 0)"/>
     <use xlink:href="#DejaVuSans-3" transform="translate(757.4375 0)"/>
     <use xlink:href="#DejaVuSans-53" transform="translate(789.21875 0)"/>
     <use xlink:href="#DejaVuSans-52" transform="translate(852.703125 0)"/>
     <use xlink:href="#DejaVuSans-56" transform="translate(913.890625 0)"/>
     <use xlink:href="#DejaVuSans-56" transform="translate(965.984375 0)"/>
     <use xlink:href="#DejaVuSans-48" transform="translate(1018.078125 0)"/>
     <use xlink:href="#DejaVuSans-56" transform="translate(1079.609375 0)"/>
     <use xlink:href="#DejaVuSans-56" transform="translate(1131.703125 0)"/>
     <use xlink:href="#DejaVuSans-48" transform="translate(1183.796875 0)"/>
     <use xlink:href="#DejaVuSans-47" transform="translate(1245.328125 0)"/>
    </g>
    <!-- (off a hand, a leg, a helmet). -->
    <g style="fill: #52514e" transform="translate(34.64075 229.840075) scale(0.068 -0.068)">
     <defs>
      <path id="DejaVuSans-13ae" d="M 4531 4863 
L 4531 4384 
L 3981 4384 
Q 3672 4384 3551 4259 
Q 3431 4134 3431 3809 
L 3431 3500 
L 4378 3500 
L 4378 3053 
L 3431 3053 
L 3431 0 
L 2853 0 
L 2853 3053 
L 1275 3053 
L 1275 0 
L 697 0 
L 697 3053 
L 147 3053 
L 147 3500 
L 697 3500 
L 697 3744 
Q 697 4328 969 4595 
Q 1241 4863 1831 4863 
L 2375 4863 
L 2375 4384 
L 1825 4384 
Q 1516 4384 1394 4259 
Q 1275 4134 1275 3809 
L 1275 3500 
L 2853 3500 
L 2853 3744 
Q 2853 4328 3125 4595 
Q 3397 4863 3988 4863 
L 4531 4863 
z
" transform="scale(0.015625)"/>
     </defs>
     <use xlink:href="#DejaVuSans-b"/>
     <use xlink:href="#DejaVuSans-52" transform="translate(39.015625 0)"/>
     <use xlink:href="#DejaVuSans-13ae" transform="translate(100.203125 0)"/>
     <use xlink:href="#DejaVuSans-3" transform="translate(169.09375 0)"/>
     <use xlink:href="#DejaVuSans-44" transform="translate(200.875 0)"/>
     <use xlink:href="#DejaVuSans-3" transform="translate(262.15625 0)"/>
     <use xlink:href="#DejaVuSans-4b" transform="translate(293.9375 0)"/>
     <use xlink:href="#DejaVuSans-44" transform="translate(357.3125 0)"/>
     <use xlink:href="#DejaVuSans-51" transform="translate(418.59375 0)"/>
     <use xlink:href="#DejaVuSans-47" transform="translate(481.96875 0)"/>
     <use xlink:href="#DejaVuSans-f" transform="translate(545.453125 0)"/>
     <use xlink:href="#DejaVuSans-3" transform="translate(577.234375 0)"/>
     <use xlink:href="#DejaVuSans-44" transform="translate(609.015625 0)"/>
     <use xlink:href="#DejaVuSans-3" transform="translate(670.296875 0)"/>
     <use xlink:href="#DejaVuSans-4f" transform="translate(702.078125 0)"/>
     <use xlink:href="#DejaVuSans-48" transform="translate(729.859375 0)"/>
     <use xlink:href="#DejaVuSans-4a" transform="translate(791.390625 0)"/>
     <use xlink:href="#DejaVuSans-f" transform="translate(854.875 0)"/>
     <use xlink:href="#DejaVuSans-3" transform="translate(886.65625 0)"/>
     <use xlink:href="#DejaVuSans-44" transform="translate(918.4375 0)"/>
     <use xlink:href="#DejaVuSans-3" transform="translate(979.71875 0)"/>
     <use xlink:href="#DejaVuSans-4b" transform="translate(1011.5 0)"/>
     <use xlink:href="#DejaVuSans-48" transform="translate(1074.875 0)"/>
     <use xlink:href="#DejaVuSans-4f" transform="translate(1136.40625 0)"/>
     <use xlink:href="#DejaVuSans-50" transform="translate(1164.1875 0)"/>
     <use xlink:href="#DejaVuSans-48" transform="translate(1261.59375 0)"/>
     <use xlink:href="#DejaVuSans-57" transform="translate(1323.125 0)"/>
     <use xlink:href="#DejaVuSans-c" transform="translate(1362.328125 0)"/>
     <use xlink:href="#DejaVuSans-11" transform="translate(1401.34375 0)"/>
    </g>
    <!-- Either team may recover; -->
    <g style="fill: #52514e" transform="translate(39.814594 238.000075) scale(0.068 -0.068)">
     <defs>
      <path id="DejaVuSans-28" d="M 628 4666 
L 3578 4666 
L 3578 4134 
L 1259 4134 
L 1259 2753 
L 3481 2753 
L 3481 2222 
L 1259 2222 
L 1259 531 
L 3634 531 
L 3634 0 
L 628 0 
L 628 4666 
z
" transform="scale(0.015625)"/>
     </defs>
     <use xlink:href="#DejaVuSans-28"/>
     <use xlink:href="#DejaVuSans-4c" transform="translate(63.1875 0)"/>
     <use xlink:href="#DejaVuSans-57" transform="translate(90.96875 0)"/>
     <use xlink:href="#DejaVuSans-4b" transform="translate(130.171875 0)"/>
     <use xlink:href="#DejaVuSans-48" transform="translate(193.546875 0)"/>
     <use xlink:href="#DejaVuSans-55" transform="translate(255.078125 0)"/>
     <use xlink:href="#DejaVuSans-3" transform="translate(296.1875 0)"/>
     <use xlink:href="#DejaVuSans-57" transform="translate(327.96875 0)"/>
     <use xlink:href="#DejaVuSans-48" transform="translate(367.171875 0)"/>
     <use xlink:href="#DejaVuSans-44" transform="translate(428.703125 0)"/>
     <use xlink:href="#DejaVuSans-50" transform="translate(489.984375 0)"/>
     <use xlink:href="#DejaVuSans-3" transform="translate(587.390625 0)"/>
     <use xlink:href="#DejaVuSans-50" transform="translate(619.171875 0)"/>
     <use xlink:href="#DejaVuSans-44" transform="translate(716.578125 0)"/>
     <use xlink:href="#DejaVuSans-5c" transform="translate(777.859375 0)"/>
     <use xlink:href="#DejaVuSans-3" transform="translate(837.046875 0)"/>
     <use xlink:href="#DejaVuSans-55" transform="translate(868.828125 0)"/>
     <use xlink:href="#DejaVuSans-48" transform="translate(907.734375 0)"/>
     <use xlink:href="#DejaVuSans-46" transform="translate(969.265625 0)"/>
     <use xlink:href="#DejaVuSans-52" transform="translate(1024.25 0)"/>
     <use xlink:href="#DejaVuSans-59" transform="translate(1085.4375 0)"/>
     <use xlink:href="#DejaVuSans-48" transform="translate(1144.625 0)"/>
     <use xlink:href="#DejaVuSans-55" transform="translate(1206.15625 0)"/>
     <use xlink:href="#DejaVuSans-1e" transform="translate(1247.265625 0)"/>
    </g>
    <!-- kickers may not advance it -->
    <g style="fill: #52514e" transform="translate(37.44575 246.160075) scale(0.068 -0.068)">
     <use xlink:href="#DejaVuSans-4e"/>
     <use xlink:href="#DejaVuSans-4c" transform="translate(57.90625 0)"/>
     <use xlink:href="#DejaVuSans-46" transform="translate(85.6875 0)"/>
     <use xlink:href="#DejaVuSans-4e" transform="translate(140.671875 0)"/>
     <use xlink:href="#DejaVuSans-48" transform="translate(195.015625 0)"/>
     <use xlink:href="#DejaVuSans-55" transform="translate(256.546875 0)"/>
     <use xlink:href="#DejaVuSans-56" transform="translate(297.65625 0)"/>
     <use xlink:href="#DejaVuSans-3" transform="translate(349.75 0)"/>
     <use xlink:href="#DejaVuSans-50" transform="translate(381.53125 0)"/>
     <use xlink:href="#DejaVuSans-44" transform="translate(478.9375 0)"/>
     <use xlink:href="#DejaVuSans-5c" transform="translate(540.21875 0)"/>
     <use xlink:href="#DejaVuSans-3" transform="translate(599.40625 0)"/>
     <use xlink:href="#DejaVuSans-51" transform="translate(631.1875 0)"/>
     <use xlink:href="#DejaVuSans-52" transform="translate(694.5625 0)"/>
     <use xlink:href="#DejaVuSans-57" transform="translate(755.75 0)"/>
     <use xlink:href="#DejaVuSans-3" transform="translate(794.953125 0)"/>
     <use xlink:href="#DejaVuSans-44" transform="translate(826.734375 0)"/>
     <use xlink:href="#DejaVuSans-47" transform="translate(888.015625 0)"/>
     <use xlink:href="#DejaVuSans-59" transform="translate(951.5 0)"/>
     <use xlink:href="#DejaVuSans-44" transform="translate(1010.6875 0)"/>
     <use xlink:href="#DejaVuSans-51" transform="translate(1071.96875 0)"/>
     <use xlink:href="#DejaVuSans-46" transform="translate(1135.34375 0)"/>
     <use xlink:href="#DejaVuSans-48" transform="translate(1190.328125 0)"/>
     <use xlink:href="#DejaVuSans-3" transform="translate(1251.859375 0)"/>
     <use xlink:href="#DejaVuSans-4c" transform="translate(1283.640625 0)"/>
     <use xlink:href="#DejaVuSans-57" transform="translate(1311.421875 0)"/>
    </g>
   </g>
   <g id="text_11">
    <!-- Fumble -->
    <g style="fill: #0b0b0b" transform="translate(179.30775 208.72554) scale(0.08 -0.08)">
     <defs>
      <path id="DejaVuSans-Bold-29" d="M 588 4666 
L 3834 4666 
L 3834 3756 
L 1791 3756 
L 1791 2888 
L 3713 2888 
L 3713 1978 
L 1791 1978 
L 1791 0 
L 588 0 
L 588 4666 
z
" transform="scale(0.015625)"/>
      <path id="DejaVuSans-Bold-4f" d="M 538 4863 
L 1656 4863 
L 1656 0 
L 538 0 
L 538 4863 
z
" transform="scale(0.015625)"/>
     </defs>
     <use xlink:href="#DejaVuSans-Bold-29"/>
     <use xlink:href="#DejaVuSans-Bold-58" transform="translate(63.328125 0)"/>
     <use xlink:href="#DejaVuSans-Bold-50" transform="translate(134.515625 0)"/>
     <use xlink:href="#DejaVuSans-Bold-45" transform="translate(238.71875 0)"/>
     <use xlink:href="#DejaVuSans-Bold-4f" transform="translate(310.296875 0)"/>
     <use xlink:href="#DejaVuSans-Bold-48" transform="translate(344.578125 0)"/>
    </g>
   </g>
   <g id="text_12">
    <!-- caught, then dropped. -->
    <g style="fill: #52514e" transform="translate(157.86425 221.680075) scale(0.068 -0.068)">
     <use xlink:href="#DejaVuSans-46"/>
     <use xlink:href="#DejaVuSans-44" transform="translate(54.984375 0)"/>
     <use xlink:href="#DejaVuSans-58" transform="translate(116.265625 0)"/>
     <use xlink:href="#DejaVuSans-4a" transform="translate(179.640625 0)"/>
     <use xlink:href="#DejaVuSans-4b" transform="translate(243.125 0)"/>
     <use xlink:href="#DejaVuSans-57" transform="translate(306.5 0)"/>
     <use xlink:href="#DejaVuSans-f" transform="translate(345.703125 0)"/>
     <use xlink:href="#DejaVuSans-3" transform="translate(377.484375 0)"/>
     <use xlink:href="#DejaVuSans-57" transform="translate(409.265625 0)"/>
     <use xlink:href="#DejaVuSans-4b" transform="translate(448.46875 0)"/>
     <use xlink:href="#DejaVuSans-48" transform="translate(511.84375 0)"/>
     <use xlink:href="#DejaVuSans-51" transform="translate(573.375 0)"/>
     <use xlink:href="#DejaVuSans-3" transform="translate(636.75 0)"/>
     <use xlink:href="#DejaVuSans-47" transform="translate(668.53125 0)"/>
     <use xlink:href="#DejaVuSans-55" transform="translate(732.015625 0)"/>
     <use xlink:href="#DejaVuSans-52" transform="translate(770.921875 0)"/>
     <use xlink:href="#DejaVuSans-53" transform="translate(832.109375 0)"/>
     <use xlink:href="#DejaVuSans-53" transform="translate(895.59375 0)"/>
     <use xlink:href="#DejaVuSans-48" transform="translate(959.078125 0)"/>
     <use xlink:href="#DejaVuSans-47" transform="translate(1020.609375 0)"/>
     <use xlink:href="#DejaVuSans-11" transform="translate(1084.09375 0)"/>
    </g>
    <!-- Either team may recover -->
    <g style="fill: #52514e" transform="translate(153.396969 229.840075) scale(0.068 -0.068)">
     <use xlink:href="#DejaVuSans-28"/>
     <use xlink:href="#DejaVuSans-4c" transform="translate(63.1875 0)"/>
     <use xlink:href="#DejaVuSans-57" transform="translate(90.96875 0)"/>
     <use xlink:href="#DejaVuSans-4b" transform="translate(130.171875 0)"/>
     <use xlink:href="#DejaVuSans-48" transform="translate(193.546875 0)"/>
     <use xlink:href="#DejaVuSans-55" transform="translate(255.078125 0)"/>
     <use xlink:href="#DejaVuSans-3" transform="translate(296.1875 0)"/>
     <use xlink:href="#DejaVuSans-57" transform="translate(327.96875 0)"/>
     <use xlink:href="#DejaVuSans-48" transform="translate(367.171875 0)"/>
     <use xlink:href="#DejaVuSans-44" transform="translate(428.703125 0)"/>
     <use xlink:href="#DejaVuSans-50" transform="translate(489.984375 0)"/>
     <use xlink:href="#DejaVuSans-3" transform="translate(587.390625 0)"/>
     <use xlink:href="#DejaVuSans-50" transform="translate(619.171875 0)"/>
     <use xlink:href="#DejaVuSans-44" transform="translate(716.578125 0)"/>
     <use xlink:href="#DejaVuSans-5c" transform="translate(777.859375 0)"/>
     <use xlink:href="#DejaVuSans-3" transform="translate(837.046875 0)"/>
     <use xlink:href="#DejaVuSans-55" transform="translate(868.828125 0)"/>
     <use xlink:href="#DejaVuSans-48" transform="translate(907.734375 0)"/>
     <use xlink:href="#DejaVuSans-46" transform="translate(969.265625 0)"/>
     <use xlink:href="#DejaVuSans-52" transform="translate(1024.25 0)"/>
     <use xlink:href="#DejaVuSans-59" transform="translate(1085.4375 0)"/>
     <use xlink:href="#DejaVuSans-48" transform="translate(1144.625 0)"/>
     <use xlink:href="#DejaVuSans-55" transform="translate(1206.15625 0)"/>
    </g>
    <!-- and advance it, like any -->
    <g style="fill: #52514e" transform="translate(155.193125 238.000075) scale(0.068 -0.068)">
     <use xlink:href="#DejaVuSans-44"/>
     <use xlink:href="#DejaVuSans-51" transform="translate(61.28125 0)"/>
     <use xlink:href="#DejaVuSans-47" transform="translate(124.65625 0)"/>
     <use xlink:href="#DejaVuSans-3" transform="translate(188.140625 0)"/>
     <use xlink:href="#DejaVuSans-44" transform="translate(219.921875 0)"/>
     <use xlink:href="#DejaVuSans-47" transform="translate(281.203125 0)"/>
     <use xlink:href="#DejaVuSans-59" transform="translate(344.6875 0)"/>
     <use xlink:href="#DejaVuSans-44" transform="translate(403.875 0)"/>
     <use xlink:href="#DejaVuSans-51" transform="translate(465.15625 0)"/>
     <use xlink:href="#DejaVuSans-46" transform="translate(528.53125 0)"/>
     <use xlink:href="#DejaVuSans-48" transform="translate(583.515625 0)"/>
     <use xlink:href="#DejaVuSans-3" transform="translate(645.046875 0)"/>
     <use xlink:href="#DejaVuSans-4c" transform="translate(676.828125 0)"/>
     <use xlink:href="#DejaVuSans-57" transform="translate(704.609375 0)"/>
     <use xlink:href="#DejaVuSans-f" transform="translate(743.8125 0)"/>
     <use xlink:href="#DejaVuSans-3" transform="translate(775.59375 0)"/>
     <use xlink:href="#DejaVuSans-4f" transform="translate(807.375 0)"/>
     <use xlink:href="#DejaVuSans-4c" transform="translate(835.15625 0)"/>
     <use xlink:href="#DejaVuSans-4e" transform="translate(862.9375 0)"/>
     <use xlink:href="#DejaVuSans-48" transform="translate(917.28125 0)"/>
     <use xlink:href="#DejaVuSans-3" transform="translate(978.8125 0)"/>
     <use xlink:href="#DejaVuSans-44" transform="translate(1010.59375 0)"/>
     <use xlink:href="#DejaVuSans-51" transform="translate(1071.875 0)"/>
     <use xlink:href="#DejaVuSans-5c" transform="translate(1135.25 0)"/>
    </g>
    <!-- other fumble -->
    <g style="fill: #52514e" transform="translate(173.807062 246.818825) scale(0.068 -0.068)">
     <use xlink:href="#DejaVuSans-52"/>
     <use xlink:href="#DejaVuSans-57" transform="translate(61.1875 0)"/>
     <use xlink:href="#DejaVuSans-4b" transform="translate(100.390625 0)"/>
     <use xlink:href="#DejaVuSans-48" transform="translate(163.765625 0)"/>
     <use xlink:href="#DejaVuSans-55" transform="translate(225.296875 0)"/>
     <use xlink:href="#DejaVuSans-3" transform="translate(266.40625 0)"/>
     <use xlink:href="#DejaVuSans-49" transform="translate(298.1875 0)"/>
     <use xlink:href="#DejaVuSans-58" transform="translate(333.390625 0)"/>
     <use xlink:href="#DejaVuSans-50" transform="translate(396.765625 0)"/>
     <use xlink:href="#DejaVuSans-45" transform="translate(494.171875 0)"/>
     <use xlink:href="#DejaVuSans-4f" transform="translate(557.65625 0)"/>
     <use xlink:href="#DejaVuSans-48" transform="translate(585.4375 0)"/>
    </g>
   </g>
   <g id="text_13">
    <!-- Downed -->
    <g style="fill: #0b0b0b" transform="translate(290.052875 208.72554) scale(0.08 -0.08)">
     <defs>
      <path id="DejaVuSans-Bold-27" d="M 1791 3756 
L 1791 909 
L 2222 909 
Q 2959 909 3348 1275 
Q 3738 1641 3738 2338 
Q 3738 3031 3350 3393 
Q 2963 3756 2222 3756 
L 1791 3756 
z
M 588 4666 
L 1856 4666 
Q 2919 4666 3439 4514 
Q 3959 4363 4331 4000 
Q 4659 3684 4818 3271 
Q 4978 2859 4978 2338 
Q 4978 1809 4818 1395 
Q 4659 981 4331 666 
Q 3956 303 3431 151 
Q 2906 0 1856 0 
L 588 0 
L 588 4666 
z
" transform="scale(0.015625)"/>
      <path id="DejaVuSans-Bold-5a" d="M 225 3500 
L 1313 3500 
L 1900 1088 
L 2491 3500 
L 3425 3500 
L 4013 1113 
L 4603 3500 
L 5691 3500 
L 4769 0 
L 3547 0 
L 2956 2406 
L 2369 0 
L 1147 0 
L 225 3500 
z
" transform="scale(0.015625)"/>
     </defs>
     <use xlink:href="#DejaVuSans-Bold-27"/>
     <use xlink:href="#DejaVuSans-Bold-52" transform="translate(83.015625 0)"/>
     <use xlink:href="#DejaVuSans-Bold-5a" transform="translate(151.71875 0)"/>
     <use xlink:href="#DejaVuSans-Bold-51" transform="translate(244.109375 0)"/>
     <use xlink:href="#DejaVuSans-Bold-48" transform="translate(315.296875 0)"/>
     <use xlink:href="#DejaVuSans-Bold-47" transform="translate(383.125 0)"/>
    </g>
   </g>
   <g id="text_14">
    <!-- a kicking-team player catches -->
    <g style="fill: #52514e" transform="translate(256.997156 221.680075) scale(0.068 -0.068)">
     <use xlink:href="#DejaVuSans-44"/>
     <use xlink:href="#DejaVuSans-3" transform="translate(61.28125 0)"/>
     <use xlink:href="#DejaVuSans-4e" transform="translate(93.0625 0)"/>
     <use xlink:href="#DejaVuSans-4c" transform="translate(150.96875 0)"/>
     <use xlink:href="#DejaVuSans-46" transform="translate(178.75 0)"/>
     <use xlink:href="#DejaVuSans-4e" transform="translate(233.734375 0)"/>
     <use xlink:href="#DejaVuSans-4c" transform="translate(291.640625 0)"/>
     <use xlink:href="#DejaVuSans-51" transform="translate(319.421875 0)"/>
     <use xlink:href="#DejaVuSans-4a" transform="translate(382.796875 0)"/>
     <use xlink:href="#DejaVuSans-10" transform="translate(446.28125 0)"/>
     <use xlink:href="#DejaVuSans-57" transform="translate(482.359375 0)"/>
     <use xlink:href="#DejaVuSans-48" transform="translate(521.5625 0)"/>
     <use xlink:href="#DejaVuSans-44" transform="translate(583.09375 0)"/>
     <use xlink:href="#DejaVuSans-50" transform="translate(644.375 0)"/>
     <use xlink:href="#DejaVuSans-3" transform="translate(741.78125 0)"/>
     <use xlink:href="#DejaVuSans-53" transform="translate(773.5625 0)"/>
     <use xlink:href="#DejaVuSans-4f" transform="translate(837.046875 0)"/>
     <use xlink:href="#DejaVuSans-44" transform="translate(864.828125 0)"/>
     <use xlink:href="#DejaVuSans-5c" transform="translate(926.109375 0)"/>
     <use xlink:href="#DejaVuSans-48" transform="translate(985.296875 0)"/>
     <use xlink:href="#DejaVuSans-55" transform="translate(1046.828125 0)"/>
     <use xlink:href="#DejaVuSans-3" transform="translate(1087.9375 0)"/>
     <use xlink:href="#DejaVuSans-46" transform="translate(1119.71875 0)"/>
     <use xlink:href="#DejaVuSans-44" transform="translate(1174.703125 0)"/>
     <use xlink:href="#DejaVuSans-57" transform="translate(1235.984375 0)"/>
     <use xlink:href="#DejaVuSans-46" transform="translate(1275.1875 0)"/>
     <use xlink:href="#DejaVuSans-4b" transform="translate(1330.171875 0)"/>
     <use xlink:href="#DejaVuSans-48" transform="translate(1393.546875 0)"/>
     <use xlink:href="#DejaVuSans-56" transform="translate(1455.078125 0)"/>
    </g>
    <!-- or falls on it first. Possession -->
    <g style="fill: #52514e" transform="translate(259.817031 230.498825) scale(0.068 -0.068)">
     <defs>
      <path id="DejaVuSans-33" d="M 1259 4147 
L 1259 2394 
L 2053 2394 
Q 2494 2394 2734 2622 
Q 2975 2850 2975 3272 
Q 2975 3691 2734 3919 
Q 2494 4147 2053 4147 
L 1259 4147 
z
M 628 4666 
L 2053 4666 
Q 2838 4666 3239 4311 
Q 3641 3956 3641 3272 
Q 3641 2581 3239 2228 
Q 2838 1875 2053 1875 
L 1259 1875 
L 1259 0 
L 628 0 
L 628 4666 
z
" transform="scale(0.015625)"/>
     </defs>
     <use xlink:href="#DejaVuSans-52"/>
     <use xlink:href="#DejaVuSans-55" transform="translate(61.1875 0)"/>
     <use xlink:href="#DejaVuSans-3" transform="translate(102.296875 0)"/>
     <use xlink:href="#DejaVuSans-49" transform="translate(134.078125 0)"/>
     <use xlink:href="#DejaVuSans-44" transform="translate(169.28125 0)"/>
     <use xlink:href="#DejaVuSans-4f" transform="translate(230.5625 0)"/>
     <use xlink:href="#DejaVuSans-4f" transform="translate(258.34375 0)"/>
     <use xlink:href="#DejaVuSans-56" transform="translate(286.125 0)"/>
     <use xlink:href="#DejaVuSans-3" transform="translate(338.21875 0)"/>
     <use xlink:href="#DejaVuSans-52" transform="translate(370 0)"/>
     <use xlink:href="#DejaVuSans-51" transform="translate(431.1875 0)"/>
     <use xlink:href="#DejaVuSans-3" transform="translate(494.5625 0)"/>
     <use xlink:href="#DejaVuSans-4c" transform="translate(526.34375 0)"/>
     <use xlink:href="#DejaVuSans-57" transform="translate(554.125 0)"/>
     <use xlink:href="#DejaVuSans-3" transform="translate(593.328125 0)"/>
     <use xlink:href="#DejaVuSans-13af" transform="translate(625.109375 0)"/>
     <use xlink:href="#DejaVuSans-55" transform="translate(688.09375 0)"/>
     <use xlink:href="#DejaVuSans-56" transform="translate(729.203125 0)"/>
     <use xlink:href="#DejaVuSans-57" transform="translate(781.296875 0)"/>
     <use xlink:href="#DejaVuSans-11" transform="translate(820.5 0)"/>
     <use xlink:href="#DejaVuSans-3" transform="translate(852.28125 0)"/>
     <use xlink:href="#DejaVuSans-33" transform="translate(884.0625 0)"/>
     <use xlink:href="#DejaVuSans-52" transform="translate(940.796875 0)"/>
     <use xlink:href="#DejaVuSans-56" transform="translate(1001.984375 0)"/>
     <use xlink:href="#DejaVuSans-56" transform="translate(1054.078125 0)"/>
     <use xlink:href="#DejaVuSans-48" transform="translate(1106.171875 0)"/>
     <use xlink:href="#DejaVuSans-56" transform="translate(1167.703125 0)"/>
     <use xlink:href="#DejaVuSans-56" transform="translate(1219.796875 0)"/>
     <use xlink:href="#DejaVuSans-4c" transform="translate(1271.890625 0)"/>
     <use xlink:href="#DejaVuSans-52" transform="translate(1299.671875 0)"/>
     <use xlink:href="#DejaVuSans-51" transform="translate(1360.859375 0)"/>
    </g>
    <!-- kills the ball: dead there, -->
    <g style="fill: #52514e" transform="translate(265.921094 238.311919) scale(0.068 -0.068)">
     <use xlink:href="#DejaVuSans-4e"/>
     <use xlink:href="#DejaVuSans-4c" transform="translate(57.90625 0)"/>
     <use xlink:href="#DejaVuSans-4f" transform="translate(85.6875 0)"/>
     <use xlink:href="#DejaVuSans-4f" transform="translate(113.46875 0)"/>
     <use xlink:href="#DejaVuSans-56" transform="translate(141.25 0)"/>
     <use xlink:href="#DejaVuSans-3" transform="translate(193.34375 0)"/>
     <use xlink:href="#DejaVuSans-57" transform="translate(225.125 0)"/>
     <use xlink:href="#DejaVuSans-4b" transform="translate(264.328125 0)"/>
     <use xlink:href="#DejaVuSans-48" transform="translate(327.703125 0)"/>
     <use xlink:href="#DejaVuSans-3" transform="translate(389.234375 0)"/>
     <use xlink:href="#DejaVuSans-45" transform="translate(421.015625 0)"/>
     <use xlink:href="#DejaVuSans-44" transform="translate(484.5 0)"/>
     <use xlink:href="#DejaVuSans-4f" transform="translate(545.78125 0)"/>
     <use xlink:href="#DejaVuSans-4f" transform="translate(573.5625 0)"/>
     <use xlink:href="#DejaVuSans-1d" transform="translate(601.34375 0)"/>
     <use xlink:href="#DejaVuSans-3" transform="translate(635.03125 0)"/>
     <use xlink:href="#DejaVuSans-47" transform="translate(666.8125 0)"/>
     <use xlink:href="#DejaVuSans-48" transform="translate(730.296875 0)"/>
     <use xlink:href="#DejaVuSans-44" transform="translate(791.828125 0)"/>
     <use xlink:href="#DejaVuSans-47" transform="translate(853.109375 0)"/>
     <use xlink:href="#DejaVuSans-3" transform="translate(916.59375 0)"/>
     <use xlink:href="#DejaVuSans-57" transform="translate(948.375 0)"/>
     <use xlink:href="#DejaVuSans-4b" transform="translate(987.578125 0)"/>
     <use xlink:href="#DejaVuSans-48" transform="translate(1050.953125 0)"/>
     <use xlink:href="#DejaVuSans-55" transform="translate(1112.484375 0)"/>
     <use xlink:href="#DejaVuSans-48" transform="translate(1151.390625 0)"/>
     <use xlink:href="#DejaVuSans-f" transform="translate(1212.921875 0)"/>
    </g>
    <!-- receivers' ball at that spot -->
    <g style="fill: #52514e" transform="translate(263.595281 246.160075) scale(0.068 -0.068)">
     <defs>
      <path id="DejaVuSans-a" d="M 1147 4666 
L 1147 2931 
L 616 2931 
L 616 4666 
L 1147 4666 
z
" transform="scale(0.015625)"/>
     </defs>
     <use xlink:href="#DejaVuSans-55"/>
     <use xlink:href="#DejaVuSans-48" transform="translate(38.90625 0)"/>
     <use xlink:href="#DejaVuSans-46" transform="translate(100.4375 0)"/>
     <use xlink:href="#DejaVuSans-48" transform="translate(155.421875 0)"/>
     <use xlink:href="#DejaVuSans-4c" transform="translate(216.953125 0)"/>
     <use xlink:href="#DejaVuSans-59" transform="translate(244.734375 0)"/>
     <use xlink:href="#DejaVuSans-48" transform="translate(303.921875 0)"/>
     <use xlink:href="#DejaVuSans-55" transform="translate(365.453125 0)"/>
     <use xlink:href="#DejaVuSans-56" transform="translate(406.5625 0)"/>
     <use xlink:href="#DejaVuSans-a" transform="translate(458.65625 0)"/>
     <use xlink:href="#DejaVuSans-3" transform="translate(486.140625 0)"/>
     <use xlink:href="#DejaVuSans-45" transform="translate(517.921875 0)"/>
     <use xlink:href="#DejaVuSans-44" transform="translate(581.40625 0)"/>
     <use xlink:href="#DejaVuSans-4f" transform="translate(642.6875 0)"/>
     <use xlink:href="#DejaVuSans-4f" transform="translate(670.46875 0)"/>
     <use xlink:href="#DejaVuSans-3" transform="translate(698.25 0)"/>
     <use xlink:href="#DejaVuSans-44" transform="translate(730.03125 0)"/>
     <use xlink:href="#DejaVuSans-57" transform="translate(791.3125 0)"/>
     <use xlink:href="#DejaVuSans-3" transform="translate(830.515625 0)"/>
     <use xlink:href="#DejaVuSans-57" transform="translate(862.296875 0)"/>
     <use xlink:href="#DejaVuSans-4b" transform="translate(901.5 0)"/>
     <use xlink:href="#DejaVuSans-44" transform="translate(964.875 0)"/>
     <use xlink:href="#DejaVuSans-57" transform="translate(1026.15625 0)"/>
     <use xlink:href="#DejaVuSans-3" transform="translate(1065.359375 0)"/>
     <use xlink:href="#DejaVuSans-56" transform="translate(1097.140625 0)"/>
     <use xlink:href="#DejaVuSans-53" transform="translate(1149.234375 0)"/>
     <use xlink:href="#DejaVuSans-52" transform="translate(1212.71875 0)"/>
     <use xlink:href="#DejaVuSans-57" transform="translate(1273.90625 0)"/>
    </g>
   </g>
   <g id="legend_1">
    <g id="patch_15">
     <path d="M 45.698594 290.444679 
L 59.698594 290.444679 
L 59.698594 285.544679 
L 45.698594 285.544679 
z
" style="fill: #fde3d7; stroke: #eb6834; stroke-linejoin: miter"/>
    </g>
    <g id="text_15">
     <!-- receiving team touched it -->
     <g transform="translate(65.298594 290.444679) scale(0.07 -0.07)">
      <use xlink:href="#DejaVuSans-55"/>
      <use xlink:href="#DejaVuSans-48" transform="translate(38.90625 0)"/>
      <use xlink:href="#DejaVuSans-46" transform="translate(100.4375 0)"/>
      <use xlink:href="#DejaVuSans-48" transform="translate(155.421875 0)"/>
      <use xlink:href="#DejaVuSans-4c" transform="translate(216.953125 0)"/>
      <use xlink:href="#DejaVuSans-59" transform="translate(244.734375 0)"/>
      <use xlink:href="#DejaVuSans-4c" transform="translate(303.921875 0)"/>
      <use xlink:href="#DejaVuSans-51" transform="translate(331.703125 0)"/>
      <use xlink:href="#DejaVuSans-4a" transform="translate(395.078125 0)"/>
      <use xlink:href="#DejaVuSans-3" transform="translate(458.5625 0)"/>
      <use xlink:href="#DejaVuSans-57" transform="translate(490.34375 0)"/>
      <use xlink:href="#DejaVuSans-48" transform="translate(529.546875 0)"/>
      <use xlink:href="#DejaVuSans-44" transform="translate(591.078125 0)"/>
      <use xlink:href="#DejaVuSans-50" transform="translate(652.359375 0)"/>
      <use xlink:href="#DejaVuSans-3" transform="translate(749.765625 0)"/>
      <use xlink:href="#DejaVuSans-57" transform="translate(781.546875 0)"/>
      <use xlink:href="#DejaVuSans-52" transform="translate(820.75 0)"/>
      <use xlink:href="#DejaVuSans-58" transform="translate(881.9375 0)"/>
      <use xlink:href="#DejaVuSans-46" transform="translate(945.3125 0)"/>
      <use xlink:href="#DejaVuSans-4b" transform="translate(1000.296875 0)"/>
      <use xlink:href="#DejaVuSans-48" transform="translate(1063.671875 0)"/>
      <use xlink:href="#DejaVuSans-47" transform="translate(1125.203125 0)"/>
      <use xlink:href="#DejaVuSans-3" transform="translate(1188.6875 0)"/>
      <use xlink:href="#DejaVuSans-4c" transform="translate(1220.46875 0)"/>
      <use xlink:href="#DejaVuSans-57" transform="translate(1248.25 0)"/>
     </g>
    </g>
    <g id="patch_16">
     <path d="M 169.420312 290.444679 
L 183.420312 290.444679 
L 183.420312 285.544679 
L 169.420312 285.544679 
z
" style="fill: #d6e6f9; stroke: #2a78d6; stroke-linejoin: miter"/>
    </g>
    <g id="text_16">
     <!-- kicking team touched it -->
     <g transform="translate(189.020312 290.444679) scale(0.07 -0.07)">
      <use xlink:href="#DejaVuSans-4e"/>
      <use xlink:href="#DejaVuSans-4c" transform="translate(57.90625 0)"/>
      <use xlink:href="#DejaVuSans-46" transform="translate(85.6875 0)"/>
      <use xlink:href="#DejaVuSans-4e" transform="translate(140.671875 0)"/>
      <use xlink:href="#DejaVuSans-4c" transform="translate(198.578125 0)"/>
      <use xlink:href="#DejaVuSans-51" transform="translate(226.359375 0)"/>
      <use xlink:href="#DejaVuSans-4a" transform="translate(289.734375 0)"/>
      <use xlink:href="#DejaVuSans-3" transform="translate(353.21875 0)"/>
      <use xlink:href="#DejaVuSans-57" transform="translate(385 0)"/>
      <use xlink:href="#DejaVuSans-48" transform="translate(424.203125 0)"/>
      <use xlink:href="#DejaVuSans-44" transform="translate(485.734375 0)"/>
      <use xlink:href="#DejaVuSans-50" transform="translate(547.015625 0)"/>
      <use xlink:href="#DejaVuSans-3" transform="translate(644.421875 0)"/>
      <use xlink:href="#DejaVuSans-57" transform="translate(676.203125 0)"/>
      <use xlink:href="#DejaVuSans-52" transform="translate(715.40625 0)"/>
      <use xlink:href="#DejaVuSans-58" transform="translate(776.59375 0)"/>
      <use xlink:href="#DejaVuSans-46" transform="translate(839.96875 0)"/>
      <use xlink:href="#DejaVuSans-4b" transform="translate(894.953125 0)"/>
      <use xlink:href="#DejaVuSans-48" transform="translate(958.328125 0)"/>
      <use xlink:href="#DejaVuSans-47" transform="translate(1019.859375 0)"/>
      <use xlink:href="#DejaVuSans-3" transform="translate(1083.34375 0)"/>
      <use xlink:href="#DejaVuSans-4c" transform="translate(1115.125 0)"/>
      <use xlink:href="#DejaVuSans-57" transform="translate(1142.90625 0)"/>
     </g>
    </g>
    <g id="patch_17">
     <path d="M 285.767969 290.444679 
L 299.767969 290.444679 
L 299.767969 285.544679 
L 285.767969 285.544679 
z
" style="fill: #efeee9; stroke: #c3c2b7; stroke-linejoin: miter"/>
    </g>
    <g id="text_17">
     <!-- nobody -->
     <g transform="translate(305.367969 290.444679) scale(0.07 -0.07)">
      <use xlink:href="#DejaVuSans-51"/>
      <use xlink:href="#DejaVuSans-52" transform="translate(63.375 0)"/>
      <use xlink:href="#DejaVuSans-45" transform="translate(124.5625 0)"/>
      <use xlink:href="#DejaVuSans-52" transform="translate(188.046875 0)"/>
      <use xlink:href="#DejaVuSans-47" transform="translate(249.234375 0)"/>
      <use xlink:href="#DejaVuSans-5c" transform="translate(312.71875 0)"/>
     </g>
    </g>
   </g>
  </g>
 </g>
 <defs>
  <clipPath id="pf0810fe1af">
   <rect x="7.2" y="7.2" width="362.7" height="282.744"/>
  </clipPath>
 </defs>
</svg>
