<?xml version="1.0" encoding="utf-8" standalone="no"?>
<!DOCTYPE svg PUBLIC "-//W3C//DTD SVG 1.1//EN"
  "http://www.w3.org/Graphics/SVG/1.1/DTD/svg11.dtd">
<svg xmlns:xlink="http://www.w3.org/1999/xlink" width="377.1pt" height="287.713008pt" viewBox="0 0 377.1 287.713008" xmlns="http://www.w3.org/2000/svg" version="1.1">
 <metadata>
  <rdf:RDF xmlns:dc="http://purl.org/dc/elements/1.1/" xmlns:cc="http://creativecommons.org/ns#" xmlns:rdf="http://www.w3.org/1999/02/22-rdf-syntax-ns#">
   <cc:Work>
    <dc:type rdf:resource="http://purl.org/dc/dcmitype/StillImage"/>
    <dc:date>2026-10-06T19:13:03.398491</dc:date>
    <dc:format>image/svg+xml</dc:format>
    <dc:creator>
     <cc:Agent>
      <dc:title>Matplotlib v3.11.2, https://matplotlib.org/</dc:title>
     </cc:Agent>
    </dc:creator>
   </cc:Work>
  </rdf:RDF>
 </metadata>
 <defs>
  <style type="text/css">*{stroke-linejoin: round; stroke-linecap: butt}</style>
 </defs>
 <g id="figure_1">
  <g id="patch_1">
   <path d="M 0 287.713008 
L 377.1 287.713008 
L 377.1 0 
L 0 0 
z
" style="fill: #fcfcfb"/>
  </g>
  <g id="axes_1">
   <g id="text_1">
    <g id="patch_2">
     <path d="M 10.392079 23.79176 
C 11.834784 23.79176 13.218594 23.218567 14.23874 22.198421 
C 15.258886 21.178274 15.832079 19.794465 15.832079 18.35176 
C 15.832079 16.909055 15.258886 15.525246 14.23874 14.505099 
C 13.218594 13.484953 11.834784 12.91176 10.392079 12.91176 
C 8.949374 12.91176 7.565565 13.484953 6.545418 14.505099 
C 5.525272 15.525246 4.952079 16.909055 4.952079 18.35176 
C 4.952079 19.794465 5.525272 21.178274 6.545418 22.198421 
C 7.565565 23.218567 8.949374 23.79176 10.392079 23.79176 
z
" style="fill: #1baf7a"/>
    </g>
    <!-- 1 -->
    <g style="fill: #ffffff" transform="translate(7.608954 20.429885) scale(0.08 -0.08)">
     <defs>
      <path id="DejaVuSans-Bold-14" d="M 750 831 
L 1813 831 
L 1813 3847 
L 722 3622 
L 722 4441 
L 1806 4666 
L 2950 4666 
L 2950 831 
L 4013 831 
L 4013 0 
L 750 0 
L 750 831 
z
" transform="scale(0.015625)"/>
     </defs>
     <use xlink:href="#DejaVuSans-Bold-14"/>
    </g>
   </g>
   <g id="text_2">
    <!-- Touchdown. -->
    <g style="fill: #0b0b0b" transform="translate(21.564356 19.476942) scale(0.08 -0.08)">
     <defs>
      <path id="DejaVuSans-Bold-37" d="M 31 4666 
L 4331 4666 
L 4331 3756 
L 2784 3756 
L 2784 0 
L 1581 0 
L 1581 3756 
L 31 3756 
L 31 4666 
z
" transform="scale(0.015625)"/>
      <path id="DejaVuSans-Bold-52" d="M 2203 2784 
Q 1831 2784 1636 2517 
Q 1441 2250 1441 1747 
Q 1441 1244 1636 976 
Q 1831 709 2203 709 
Q 2569 709 2762 976 
Q 2956 1244 2956 1747 
Q 2956 2250 2762 2517 
Q 2569 2784 2203 2784 
z
M 2203 3584 
Q 3106 3584 3614 3096 
Q 4122 2609 4122 1747 
Q 4122 884 3614 396 
Q 3106 -91 2203 -91 
Q 1297 -91 786 396 
Q 275 884 275 1747 
Q 275 2609 786 3096 
Q 1297 3584 2203 3584 
z
" transform="scale(0.015625)"/>
      <path id="DejaVuSans-Bold-58" d="M 500 1363 
L 500 3500 
L 1625 3500 
L 1625 3150 
Q 1625 2866 1622 2436 
Q 1619 2006 1619 1863 
Q 1619 1441 1641 1255 
Q 1663 1069 1716 984 
Q 1784 875 1895 815 
Q 2006 756 2150 756 
Q 2500 756 2700 1025 
Q 2900 1294 2900 1772 
L 2900 3500 
L 4019 3500 
L 4019 0 
L 2900 0 
L 2900 506 
Q 2647 200 2364 54 
Q 2081 -91 1741 -91 
Q 1134 -91 817 281 
Q 500 653 500 1363 
z
" transform="scale(0.015625)"/>
      <path id="DejaVuSans-Bold-46" d="M 3366 3391 
L 3366 2478 
Q 3138 2634 2908 2709 
Q 2678 2784 2431 2784 
Q 1963 2784 1702 2511 
Q 1441 2238 1441 1747 
Q 1441 1256 1702 982 
Q 1963 709 2431 709 
Q 2694 709 2930 787 
Q 3166 866 3366 1019 
L 3366 103 
Q 3103 6 2833 -42 
Q 2563 -91 2291 -91 
Q 1344 -91 809 395 
Q 275 881 275 1747 
Q 275 2613 809 3098 
Q 1344 3584 2291 3584 
Q 2566 3584 2833 3536 
Q 3100 3488 3366 3391 
z
" transform="scale(0.015625)"/>
      <path id="DejaVuSans-Bold-4b" d="M 4056 2131 
L 4056 0 
L 2931 0 
L 2931 347 
L 2931 1625 
Q 2931 2084 2911 2256 
Q 2891 2428 2841 2509 
Q 2775 2619 2662 2680 
Q 2550 2741 2406 2741 
Q 2056 2741 1856 2470 
Q 1656 2200 1656 1722 
L 1656 0 
L 538 0 
L 538 4863 
L 1656 4863 
L 1656 2988 
Q 1909 3294 2193 3439 
Q 2478 3584 2822 3584 
Q 3428 3584 3742 3212 
Q 4056 2841 4056 2131 
z
" transform="scale(0.015625)"/>
      <path id="DejaVuSans-Bold-47" d="M 2919 2988 
L 2919 4863 
L 4044 4863 
L 4044 0 
L 2919 0 
L 2919 506 
Q 2688 197 2409 53 
Q 2131 -91 1766 -91 
Q 1119 -91 703 423 
Q 288 938 288 1747 
Q 288 2556 703 3070 
Q 1119 3584 1766 3584 
Q 2128 3584 2408 3439 
Q 2688 3294 2919 2988 
z
M 2181 722 
Q 2541 722 2730 984 
Q 2919 1247 2919 1747 
Q 2919 2247 2730 2509 
Q 2541 2772 2181 2772 
Q 1825 2772 1636 2509 
Q 1447 2247 1447 1747 
Q 1447 1247 1636 984 
Q 1825 722 2181 722 
z
" transform="scale(0.015625)"/>
      <path id="DejaVuSans-Bold-5a" d="M 225 3500 
L 1313 3500 
L 1900 1088 
L 2491 3500 
L 3425 3500 
L 4013 1113 
L 4603 3500 
L 5691 3500 
L 4769 0 
L 3547 0 
L 2956 2406 
L 2369 0 
L 1147 0 
L 225 3500 
z
" transform="scale(0.015625)"/>
      <path id="DejaVuSans-Bold-51" d="M 4056 2131 
L 4056 0 
L 2931 0 
L 2931 347 
L 2931 1631 
Q 2931 2084 2911 2256 
Q 2891 2428 2841 2509 
Q 2775 2619 2662 2680 
Q 2550 2741 2406 2741 
Q 2056 2741 1856 2470 
Q 1656 2200 1656 1722 
L 1656 0 
L 538 0 
L 538 3500 
L 1656 3500 
L 1656 2988 
Q 1909 3294 2193 3439 
Q 2478 3584 2822 3584 
Q 3428 3584 3742 3212 
Q 4056 2841 4056 2131 
z
" transform="scale(0.015625)"/>
      <path id="DejaVuSans-Bold-11" d="M 653 1209 
L 1778 1209 
L 1778 0 
L 653 0 
L 653 1209 
z
" transform="scale(0.015625)"/>
     </defs>
     <use xlink:href="#DejaVuSans-Bold-37"/>
     <use xlink:href="#DejaVuSans-Bold-52" transform="translate(54.9375 0)"/>
     <use xlink:href="#DejaVuSans-Bold-58" transform="translate(123.640625 0)"/>
     <use xlink:href="#DejaVuSans-Bold-46" transform="translate(194.828125 0)"/>
     <use xlink:href="#DejaVuSans-Bold-4b" transform="translate(254.109375 0)"/>
     <use xlink:href="#DejaVuSans-Bold-47" transform="translate(325.296875 0)"/>
     <use xlink:href="#DejaVuSans-Bold-52" transform="translate(396.875 0)"/>
     <use xlink:href="#DejaVuSans-Bold-5a" transform="translate(465.578125 0)"/>
     <use xlink:href="#DejaVuSans-Bold-51" transform="translate(557.96875 0)"/>
     <use xlink:href="#DejaVuSans-Bold-11" transform="translate(629.15625 0)"/>
    </g>
   </g>
   <g id="text_3">
    <!-- Any part of the ball, held by a -->
    <g style="fill: #52514e" transform="translate(21.564356 31.38615) scale(0.072 -0.072)">
     <defs>
      <path id="DejaVuSans-24" d="M 2188 4044 
L 1331 1722 
L 3047 1722 
L 2188 4044 
z
M 1831 4666 
L 2547 4666 
L 4325 0 
L 3669 0 
L 3244 1197 
L 1141 1197 
L 716 0 
L 50 0 
L 1831 4666 
z
" transform="scale(0.015625)"/>
      <path id="DejaVuSans-51" d="M 3513 2113 
L 3513 0 
L 2938 0 
L 2938 2094 
Q 2938 2591 2744 2837 
Q 2550 3084 2163 3084 
Q 1697 3084 1428 2787 
Q 1159 2491 1159 1978 
L 1159 0 
L 581 0 
L 581 3500 
L 1159 3500 
L 1159 2956 
Q 1366 3272 1645 3428 
Q 1925 3584 2291 3584 
Q 2894 3584 3203 3211 
Q 3513 2838 3513 2113 
z
" transform="scale(0.015625)"/>
      <path id="DejaVuSans-5c" d="M 2059 -325 
Q 1816 -950 1584 -1140 
Q 1353 -1331 966 -1331 
L 506 -1331 
L 506 -850 
L 844 -850 
Q 1081 -850 1212 -737 
Q 1344 -625 1503 -206 
L 1606 56 
L 191 3500 
L 800 3500 
L 1894 763 
L 2988 3500 
L 3597 3500 
L 2059 -325 
z
" transform="scale(0.015625)"/>
      <path id="DejaVuSans-3" transform="scale(0.015625)"/>
      <path id="DejaVuSans-53" d="M 1159 525 
L 1159 -1331 
L 581 -1331 
L 581 3500 
L 1159 3500 
L 1159 2969 
Q 1341 3281 1617 3432 
Q 1894 3584 2278 3584 
Q 2916 3584 3314 3078 
Q 3713 2572 3713 1747 
Q 3713 922 3314 415 
Q 2916 -91 2278 -91 
Q 1894 -91 1617 61 
Q 1341 213 1159 525 
z
M 3116 1747 
Q 3116 2381 2855 2742 
Q 2594 3103 2138 3103 
Q 1681 3103 1420 2742 
Q 1159 2381 1159 1747 
Q 1159 1113 1420 752 
Q 1681 391 2138 391 
Q 2594 391 2855 752 
Q 3116 1113 3116 1747 
z
" transform="scale(0.015625)"/>
      <path id="DejaVuSans-44" d="M 2194 1759 
Q 1497 1759 1228 1600 
Q 959 1441 959 1056 
Q 959 750 1161 570 
Q 1363 391 1709 391 
Q 2188 391 2477 730 
Q 2766 1069 2766 1631 
L 2766 1759 
L 2194 1759 
z
M 3341 1997 
L 3341 0 
L 2766 0 
L 2766 531 
Q 2569 213 2275 61 
Q 1981 -91 1556 -91 
Q 1019 -91 701 211 
Q 384 513 384 1019 
Q 384 1609 779 1909 
Q 1175 2209 1959 2209 
L 2766 2209 
L 2766 2266 
Q 2766 2663 2505 2880 
Q 2244 3097 1772 3097 
Q 1472 3097 1187 3025 
Q 903 2953 641 2809 
L 641 3341 
Q 956 3463 1253 3523 
Q 1550 3584 1831 3584 
Q 2591 3584 2966 3190 
Q 3341 2797 3341 1997 
z
" transform="scale(0.015625)"/>
      <path id="DejaVuSans-55" d="M 2631 2963 
Q 2534 3019 2420 3045 
Q 2306 3072 2169 3072 
Q 1681 3072 1420 2755 
Q 1159 2438 1159 1844 
L 1159 0 
L 581 0 
L 581 3500 
L 1159 3500 
L 1159 2956 
Q 1341 3275 1631 3429 
Q 1922 3584 2338 3584 
Q 2397 3584 2469 3576 
Q 2541 3569 2628 3553 
L 2631 2963 
z
" transform="scale(0.015625)"/>
      <path id="DejaVuSans-57" d="M 1172 4494 
L 1172 3500 
L 2356 3500 
L 2356 3053 
L 1172 3053 
L 1172 1153 
Q 1172 725 1289 603 
Q 1406 481 1766 481 
L 2356 481 
L 2356 0 
L 1766 0 
Q 1100 0 847 248 
Q 594 497 594 1153 
L 594 3053 
L 172 3053 
L 172 3500 
L 594 3500 
L 594 4494 
L 1172 4494 
z
" transform="scale(0.015625)"/>
      <path id="DejaVuSans-52" d="M 1959 3097 
Q 1497 3097 1228 2736 
Q 959 2375 959 1747 
Q 959 1119 1226 758 
Q 1494 397 1959 397 
Q 2419 397 2687 759 
Q 2956 1122 2956 1747 
Q 2956 2369 2687 2733 
Q 2419 3097 1959 3097 
z
M 1959 3584 
Q 2709 3584 3137 3096 
Q 3566 2609 3566 1747 
Q 3566 888 3137 398 
Q 2709 -91 1959 -91 
Q 1206 -91 779 398 
Q 353 888 353 1747 
Q 353 2609 779 3096 
Q 1206 3584 1959 3584 
z
" transform="scale(0.015625)"/>
      <path id="DejaVuSans-49" d="M 2375 4863 
L 2375 4384 
L 1825 4384 
Q 1516 4384 1395 4259 
Q 1275 4134 1275 3809 
L 1275 3500 
L 2222 3500 
L 2222 3053 
L 1275 3053 
L 1275 0 
L 697 0 
L 697 3053 
L 147 3053 
L 147 3500 
L 697 3500 
L 697 3744 
Q 697 4328 969 4595 
Q 1241 4863 1831 4863 
L 2375 4863 
z
" transform="scale(0.015625)"/>
      <path id="DejaVuSans-4b" d="M 3513 2113 
L 3513 0 
L 2938 0 
L 2938 2094 
Q 2938 2591 2744 2837 
Q 2550 3084 2163 3084 
Q 1697 3084 1428 2787 
Q 1159 2491 1159 1978 
L 1159 0 
L 581 0 
L 581 4863 
L 1159 4863 
L 1159 2956 
Q 1366 3272 1645 3428 
Q 1925 3584 2291 3584 
Q 2894 3584 3203 3211 
Q 3513 2838 3513 2113 
z
" transform="scale(0.015625)"/>
      <path id="DejaVuSans-48" d="M 3597 1894 
L 3597 1613 
L 953 1613 
Q 991 1019 1311 708 
Q 1631 397 2203 397 
Q 2534 397 2845 478 
Q 3156 559 3463 722 
L 3463 178 
Q 3153 47 2828 -22 
Q 2503 -91 2169 -91 
Q 1331 -91 842 396 
Q 353 884 353 1716 
Q 353 2575 817 3079 
Q 1281 3584 2069 3584 
Q 2775 3584 3186 3129 
Q 3597 2675 3597 1894 
z
M 3022 2063 
Q 3016 2534 2758 2815 
Q 2500 3097 2075 3097 
Q 1594 3097 1305 2825 
Q 1016 2553 972 2059 
L 3022 2063 
z
" transform="scale(0.015625)"/>
      <path id="DejaVuSans-45" d="M 3116 1747 
Q 3116 2381 2855 2742 
Q 2594 3103 2138 3103 
Q 1681 3103 1420 2742 
Q 1159 2381 1159 1747 
Q 1159 1113 1420 752 
Q 1681 391 2138 391 
Q 2594 391 2855 752 
Q 3116 1113 3116 1747 
z
M 1159 2969 
Q 1341 3281 1617 3432 
Q 1894 3584 2278 3584 
Q 2916 3584 3314 3078 
Q 3713 2572 3713 1747 
Q 3713 922 3314 415 
Q 2916 -91 2278 -91 
Q 1894 -91 1617 61 
Q 1341 213 1159 525 
L 1159 0 
L 581 0 
L 581 4863 
L 1159 4863 
L 1159 2969 
z
" transform="scale(0.015625)"/>
      <path id="DejaVuSans-4f" d="M 603 4863 
L 1178 4863 
L 1178 0 
L 603 0 
L 603 4863 
z
" transform="scale(0.015625)"/>
      <path id="DejaVuSans-f" d="M 750 794 
L 1409 794 
L 1409 256 
L 897 -744 
L 494 -744 
L 750 256 
L 750 794 
z
" transform="scale(0.015625)"/>
      <path id="DejaVuSans-47" d="M 2906 2969 
L 2906 4863 
L 3481 4863 
L 3481 0 
L 2906 0 
L 2906 525 
Q 2725 213 2448 61 
Q 2172 -91 1784 -91 
Q 1150 -91 751 415 
Q 353 922 353 1747 
Q 353 2572 751 3078 
Q 1150 3584 1784 3584 
Q 2172 3584 2448 3432 
Q 2725 3281 2906 2969 
z
M 947 1747 
Q 947 1113 1208 752 
Q 1469 391 1925 391 
Q 2381 391 2643 752 
Q 2906 1113 2906 1747 
Q 2906 2381 2643 2742 
Q 2381 3103 1925 3103 
Q 1469 3103 1208 2742 
Q 947 2381 947 1747 
z
" transform="scale(0.015625)"/>
     </defs>
     <use xlink:href="#DejaVuSans-24"/>
     <use xlink:href="#DejaVuSans-51" transform="translate(68.40625 0)"/>
     <use xlink:href="#DejaVuSans-5c" transform="translate(131.78125 0)"/>
     <use xlink:href="#DejaVuSans-3" transform="translate(190.96875 0)"/>
     <use xlink:href="#DejaVuSans-53" transform="translate(222.75 0)"/>
     <use xlink:href="#DejaVuSans-44" transform="translate(286.234375 0)"/>
     <use xlink:href="#DejaVuSans-55" transform="translate(347.515625 0)"/>
     <use xlink:href="#DejaVuSans-57" transform="translate(388.625 0)"/>
     <use xlink:href="#DejaVuSans-3" transform="translate(427.828125 0)"/>
     <use xlink:href="#DejaVuSans-52" transform="translate(459.609375 0)"/>
     <use xlink:href="#DejaVuSans-49" transform="translate(520.796875 0)"/>
     <use xlink:href="#DejaVuSans-3" transform="translate(556 0)"/>
     <use xlink:href="#DejaVuSans-57" transform="translate(587.78125 0)"/>
     <use xlink:href="#DejaVuSans-4b" transform="translate(626.984375 0)"/>
     <use xlink:href="#DejaVuSans-48" transform="translate(690.359375 0)"/>
     <use xlink:href="#DejaVuSans-3" transform="translate(751.890625 0)"/>
     <use xlink:href="#DejaVuSans-45" transform="translate(783.671875 0)"/>
     <use xlink:href="#DejaVuSans-44" transform="translate(847.15625 0)"/>
     <use xlink:href="#DejaVuSans-4f" transform="translate(908.4375 0)"/>
     <use xlink:href="#DejaVuSans-4f" transform="translate(936.21875 0)"/>
     <use xlink:href="#DejaVuSans-f" transform="translate(964 0)"/>
     <use xlink:href="#DejaVuSans-3" transform="translate(995.78125 0)"/>
     <use xlink:href="#DejaVuSans-4b" transform="translate(1027.5625 0)"/>
     <use xlink:href="#DejaVuSans-48" transform="translate(1090.9375 0)"/>
     <use xlink:href="#DejaVuSans-4f" transform="translate(1152.46875 0)"/>
     <use xlink:href="#DejaVuSans-47" transform="translate(1180.25 0)"/>
     <use xlink:href="#DejaVuSans-3" transform="translate(1243.734375 0)"/>
     <use xlink:href="#DejaVuSans-45" transform="translate(1275.515625 0)"/>
     <use xlink:href="#DejaVuSans-5c" transform="translate(1339 0)"/>
     <use xlink:href="#DejaVuSans-3" transform="translate(1398.1875 0)"/>
     <use xlink:href="#DejaVuSans-44" transform="translate(1429.96875 0)"/>
    </g>
    <!-- runner, breaks the plane of the -->
    <g style="fill: #52514e" transform="translate(21.564356 40.02615) scale(0.072 -0.072)">
     <defs>
      <path id="DejaVuSans-58" d="M 544 1381 
L 544 3500 
L 1119 3500 
L 1119 1403 
Q 1119 906 1312 657 
Q 1506 409 1894 409 
Q 2359 409 2629 706 
Q 2900 1003 2900 1516 
L 2900 3500 
L 3475 3500 
L 3475 0 
L 2900 0 
L 2900 538 
Q 2691 219 2414 64 
Q 2138 -91 1772 -91 
Q 1169 -91 856 284 
Q 544 659 544 1381 
z
M 1991 3584 
L 1991 3584 
z
" transform="scale(0.015625)"/>
      <path id="DejaVuSans-4e" d="M 581 4863 
L 1159 4863 
L 1159 1991 
L 2875 3500 
L 3609 3500 
L 1753 1863 
L 3688 0 
L 2938 0 
L 1159 1709 
L 1159 0 
L 581 0 
L 581 4863 
z
" transform="scale(0.015625)"/>
      <path id="DejaVuSans-56" d="M 2834 3397 
L 2834 2853 
Q 2591 2978 2328 3040 
Q 2066 3103 1784 3103 
Q 1356 3103 1142 2972 
Q 928 2841 928 2578 
Q 928 2378 1081 2264 
Q 1234 2150 1697 2047 
L 1894 2003 
Q 2506 1872 2764 1633 
Q 3022 1394 3022 966 
Q 3022 478 2636 193 
Q 2250 -91 1575 -91 
Q 1294 -91 989 -36 
Q 684 19 347 128 
L 347 722 
Q 666 556 975 473 
Q 1284 391 1588 391 
Q 1994 391 2212 530 
Q 2431 669 2431 922 
Q 2431 1156 2273 1281 
Q 2116 1406 1581 1522 
L 1381 1569 
Q 847 1681 609 1914 
Q 372 2147 372 2553 
Q 372 3047 722 3315 
Q 1072 3584 1716 3584 
Q 2034 3584 2315 3537 
Q 2597 3491 2834 3397 
z
" transform="scale(0.015625)"/>
     </defs>
     <use xlink:href="#DejaVuSans-55"/>
     <use xlink:href="#DejaVuSans-58" transform="translate(41.109375 0)"/>
     <use xlink:href="#DejaVuSans-51" transform="translate(104.484375 0)"/>
     <use xlink:href="#DejaVuSans-51" transform="translate(167.859375 0)"/>
     <use xlink:href="#DejaVuSans-48" transform="translate(231.234375 0)"/>
     <use xlink:href="#DejaVuSans-55" transform="translate(292.765625 0)"/>
     <use xlink:href="#DejaVuSans-f" transform="translate(333.875 0)"/>
     <use xlink:href="#DejaVuSans-3" transform="translate(365.65625 0)"/>
     <use xlink:href="#DejaVuSans-45" transform="translate(397.4375 0)"/>
     <use xlink:href="#DejaVuSans-55" transform="translate(460.921875 0)"/>
     <use xlink:href="#DejaVuSans-48" transform="translate(499.828125 0)"/>
     <use xlink:href="#DejaVuSans-44" transform="translate(561.359375 0)"/>
     <use xlink:href="#DejaVuSans-4e" transform="translate(622.640625 0)"/>
     <use xlink:href="#DejaVuSans-56" transform="translate(680.546875 0)"/>
     <use xlink:href="#DejaVuSans-3" transform="translate(732.640625 0)"/>
     <use xlink:href="#DejaVuSans-57" transform="translate(764.421875 0)"/>
     <use xlink:href="#DejaVuSans-4b" transform="translate(803.625 0)"/>
     <use xlink:href="#DejaVuSans-48" transform="translate(867 0)"/>
     <use xlink:href="#DejaVuSans-3" transform="translate(928.53125 0)"/>
     <use xlink:href="#DejaVuSans-53" transform="translate(960.3125 0)"/>
     <use xlink:href="#DejaVuSans-4f" transform="translate(1023.796875 0)"/>
     <use xlink:href="#DejaVuSans-44" transform="translate(1051.578125 0)"/>
     <use xlink:href="#DejaVuSans-51" transform="translate(1112.859375 0)"/>
     <use xlink:href="#DejaVuSans-48" transform="translate(1176.234375 0)"/>
     <use xlink:href="#DejaVuSans-3" transform="translate(1237.765625 0)"/>
     <use xlink:href="#DejaVuSans-52" transform="translate(1269.546875 0)"/>
     <use xlink:href="#DejaVuSans-49" transform="translate(1330.734375 0)"/>
     <use xlink:href="#DejaVuSans-3" transform="translate(1365.9375 0)"/>
     <use xlink:href="#DejaVuSans-57" transform="translate(1397.71875 0)"/>
     <use xlink:href="#DejaVuSans-4b" transform="translate(1436.921875 0)"/>
     <use xlink:href="#DejaVuSans-48" transform="translate(1500.296875 0)"/>
    </g>
    <!-- goal line. -->
    <g style="fill: #52514e" transform="translate(21.564356 48.66615) scale(0.072 -0.072)">
     <defs>
      <path id="DejaVuSans-4a" d="M 2906 1791 
Q 2906 2416 2648 2759 
Q 2391 3103 1925 3103 
Q 1463 3103 1205 2759 
Q 947 2416 947 1791 
Q 947 1169 1205 825 
Q 1463 481 1925 481 
Q 2391 481 2648 825 
Q 2906 1169 2906 1791 
z
M 3481 434 
Q 3481 -459 3084 -895 
Q 2688 -1331 1869 -1331 
Q 1566 -1331 1297 -1286 
Q 1028 -1241 775 -1147 
L 775 -588 
Q 1028 -725 1275 -790 
Q 1522 -856 1778 -856 
Q 2344 -856 2625 -561 
Q 2906 -266 2906 331 
L 2906 616 
Q 2728 306 2450 153 
Q 2172 0 1784 0 
Q 1141 0 747 490 
Q 353 981 353 1791 
Q 353 2603 747 3093 
Q 1141 3584 1784 3584 
Q 2172 3584 2450 3431 
Q 2728 3278 2906 2969 
L 2906 3500 
L 3481 3500 
L 3481 434 
z
" transform="scale(0.015625)"/>
      <path id="DejaVuSans-4c" d="M 603 3500 
L 1178 3500 
L 1178 0 
L 603 0 
L 603 3500 
z
M 603 4863 
L 1178 4863 
L 1178 4134 
L 603 4134 
L 603 4863 
z
" transform="scale(0.015625)"/>
      <path id="DejaVuSans-11" d="M 684 794 
L 1344 794 
L 1344 0 
L 684 0 
L 684 794 
z
" transform="scale(0.015625)"/>
     </defs>
     <use xlink:href="#DejaVuSans-4a"/>
     <use xlink:href="#DejaVuSans-52" transform="translate(63.484375 0)"/>
     <use xlink:href="#DejaVuSans-44" transform="translate(124.671875 0)"/>
     <use xlink:href="#DejaVuSans-4f" transform="translate(185.953125 0)"/>
     <use xlink:href="#DejaVuSans-3" transform="translate(213.734375 0)"/>
     <use xlink:href="#DejaVuSans-4f" transform="translate(245.515625 0)"/>
     <use xlink:href="#DejaVuSans-4c" transform="translate(273.296875 0)"/>
     <use xlink:href="#DejaVuSans-51" transform="translate(301.078125 0)"/>
     <use xlink:href="#DejaVuSans-48" transform="translate(364.453125 0)"/>
     <use xlink:href="#DejaVuSans-11" transform="translate(425.984375 0)"/>
    </g>
   </g>
   <g id="text_4">
    <g id="patch_3">
     <path d="M 10.392079 73.377296 
C 11.834784 73.377296 13.218594 72.804103 14.23874 71.783957 
C 15.258886 70.76381 15.832079 69.380001 15.832079 67.937296 
C 15.832079 66.494591 15.258886 65.110782 14.23874 64.090635 
C 13.218594 63.070489 11.834784 62.497296 10.392079 62.497296 
C 8.949374 62.497296 7.565565 63.070489 6.545418 64.090635 
C 5.525272 65.110782 4.952079 66.494591 4.952079 67.937296 
C 4.952079 69.380001 5.525272 70.76381 6.545418 71.783957 
C 7.565565 72.804103 8.949374 73.377296 10.392079 73.377296 
z
" style="fill: #1baf7a"/>
    </g>
    <!-- 2 -->
    <g style="fill: #ffffff" transform="translate(7.608954 70.015421) scale(0.08 -0.08)">
     <defs>
      <path id="DejaVuSans-Bold-15" d="M 1844 884 
L 3897 884 
L 3897 0 
L 506 0 
L 506 884 
L 2209 2388 
Q 2438 2594 2547 2791 
Q 2656 2988 2656 3200 
Q 2656 3528 2436 3728 
Q 2216 3928 1850 3928 
Q 1569 3928 1234 3808 
Q 900 3688 519 3450 
L 519 4475 
Q 925 4609 1322 4679 
Q 1719 4750 2100 4750 
Q 2938 4750 3402 4381 
Q 3866 4013 3866 3353 
Q 3866 2972 3669 2642 
Q 3472 2313 2841 1759 
L 1844 884 
z
" transform="scale(0.015625)"/>
     </defs>
     <use xlink:href="#DejaVuSans-Bold-15"/>
    </g>
   </g>
   <g id="text_5">
    <!-- Touchdown. -->
    <g style="fill: #0b0b0b" transform="translate(21.564356 69.062478) scale(0.08 -0.08)">
     <use xlink:href="#DejaVuSans-Bold-37"/>
     <use xlink:href="#DejaVuSans-Bold-52" transform="translate(54.9375 0)"/>
     <use xlink:href="#DejaVuSans-Bold-58" transform="translate(123.640625 0)"/>
     <use xlink:href="#DejaVuSans-Bold-46" transform="translate(194.828125 0)"/>
     <use xlink:href="#DejaVuSans-Bold-4b" transform="translate(254.109375 0)"/>
     <use xlink:href="#DejaVuSans-Bold-47" transform="translate(325.296875 0)"/>
     <use xlink:href="#DejaVuSans-Bold-52" transform="translate(396.875 0)"/>
     <use xlink:href="#DejaVuSans-Bold-5a" transform="translate(465.578125 0)"/>
     <use xlink:href="#DejaVuSans-Bold-51" transform="translate(557.96875 0)"/>
     <use xlink:href="#DejaVuSans-Bold-11" transform="translate(629.15625 0)"/>
    </g>
   </g>
   <g id="text_6">
    <!-- The ball is on the line. The goal -->
    <g style="fill: #52514e" transform="translate(21.564356 80.971686) scale(0.072 -0.072)">
     <defs>
      <path id="DejaVuSans-37" d="M -19 4666 
L 3928 4666 
L 3928 4134 
L 2272 4134 
L 2272 0 
L 1638 0 
L 1638 4134 
L -19 4134 
L -19 4666 
z
" transform="scale(0.015625)"/>
     </defs>
     <use xlink:href="#DejaVuSans-37"/>
     <use xlink:href="#DejaVuSans-4b" transform="translate(61.078125 0)"/>
     <use xlink:href="#DejaVuSans-48" transform="translate(124.453125 0)"/>
     <use xlink:href="#DejaVuSans-3" transform="translate(185.984375 0)"/>
     <use xlink:href="#DejaVuSans-45" transform="translate(217.765625 0)"/>
     <use xlink:href="#DejaVuSans-44" transform="translate(281.25 0)"/>
     <use xlink:href="#DejaVuSans-4f" transform="translate(342.53125 0)"/>
     <use xlink:href="#DejaVuSans-4f" transform="translate(370.3125 0)"/>
     <use xlink:href="#DejaVuSans-3" transform="translate(398.09375 0)"/>
     <use xlink:href="#DejaVuSans-4c" transform="translate(429.875 0)"/>
     <use xlink:href="#DejaVuSans-56" transform="translate(457.65625 0)"/>
     <use xlink:href="#DejaVuSans-3" transform="translate(509.75 0)"/>
     <use xlink:href="#DejaVuSans-52" transform="translate(541.53125 0)"/>
     <use xlink:href="#DejaVuSans-51" transform="translate(602.71875 0)"/>
     <use xlink:href="#DejaVuSans-3" transform="translate(666.09375 0)"/>
     <use xlink:href="#DejaVuSans-57" transform="translate(697.875 0)"/>
     <use xlink:href="#DejaVuSans-4b" transform="translate(737.078125 0)"/>
     <use xlink:href="#DejaVuSans-48" transform="translate(800.453125 0)"/>
     <use xlink:href="#DejaVuSans-3" transform="translate(861.984375 0)"/>
     <use xlink:href="#DejaVuSans-4f" transform="translate(893.765625 0)"/>
     <use xlink:href="#DejaVuSans-4c" transform="translate(921.546875 0)"/>
     <use xlink:href="#DejaVuSans-51" transform="translate(949.328125 0)"/>
     <use xlink:href="#DejaVuSans-48" transform="translate(1012.703125 0)"/>
     <use xlink:href="#DejaVuSans-11" transform="translate(1074.234375 0)"/>
     <use xlink:href="#DejaVuSans-3" transform="translate(1106.015625 0)"/>
     <use xlink:href="#DejaVuSans-37" transform="translate(1137.796875 0)"/>
     <use xlink:href="#DejaVuSans-4b" transform="translate(1198.875 0)"/>
     <use xlink:href="#DejaVuSans-48" transform="translate(1262.25 0)"/>
     <use xlink:href="#DejaVuSans-3" transform="translate(1323.78125 0)"/>
     <use xlink:href="#DejaVuSans-4a" transform="translate(1355.5625 0)"/>
     <use xlink:href="#DejaVuSans-52" transform="translate(1419.046875 0)"/>
     <use xlink:href="#DejaVuSans-44" transform="translate(1480.234375 0)"/>
     <use xlink:href="#DejaVuSans-4f" transform="translate(1541.515625 0)"/>
    </g>
    <!-- line belongs to the end zone. -->
    <g style="fill: #52514e" transform="translate(21.564356 89.611686) scale(0.072 -0.072)">
     <defs>
      <path id="DejaVuSans-5d" d="M 353 3500 
L 3084 3500 
L 3084 2975 
L 922 459 
L 3084 459 
L 3084 0 
L 275 0 
L 275 525 
L 2438 3041 
L 353 3041 
L 353 3500 
z
" transform="scale(0.015625)"/>
     </defs>
     <use xlink:href="#DejaVuSans-4f"/>
     <use xlink:href="#DejaVuSans-4c" transform="translate(27.78125 0)"/>
     <use xlink:href="#DejaVuSans-51" transform="translate(55.5625 0)"/>
     <use xlink:href="#DejaVuSans-48" transform="translate(118.9375 0)"/>
     <use xlink:href="#DejaVuSans-3" transform="translate(180.46875 0)"/>
     <use xlink:href="#DejaVuSans-45" transform="translate(212.25 0)"/>
     <use xlink:href="#DejaVuSans-48" transform="translate(275.734375 0)"/>
     <use xlink:href="#DejaVuSans-4f" transform="translate(337.265625 0)"/>
     <use xlink:href="#DejaVuSans-52" transform="translate(365.046875 0)"/>
     <use xlink:href="#DejaVuSans-51" transform="translate(426.234375 0)"/>
     <use xlink:href="#DejaVuSans-4a" transform="translate(489.609375 0)"/>
     <use xlink:href="#DejaVuSans-56" transform="translate(553.09375 0)"/>
     <use xlink:href="#DejaVuSans-3" transform="translate(605.1875 0)"/>
     <use xlink:href="#DejaVuSans-57" transform="translate(636.96875 0)"/>
     <use xlink:href="#DejaVuSans-52" transform="translate(676.171875 0)"/>
     <use xlink:href="#DejaVuSans-3" transform="translate(737.359375 0)"/>
     <use xlink:href="#DejaVuSans-57" transform="translate(769.140625 0)"/>
     <use xlink:href="#DejaVuSans-4b" transform="translate(808.34375 0)"/>
     <use xlink:href="#DejaVuSans-48" transform="translate(871.71875 0)"/>
     <use xlink:href="#DejaVuSans-3" transform="translate(933.25 0)"/>
     <use xlink:href="#DejaVuSans-48" transform="translate(965.03125 0)"/>
     <use xlink:href="#DejaVuSans-51" transform="translate(1026.5625 0)"/>
     <use xlink:href="#DejaVuSans-47" transform="translate(1089.9375 0)"/>
     <use xlink:href="#DejaVuSans-3" transform="translate(1153.421875 0)"/>
     <use xlink:href="#DejaVuSans-5d" transform="translate(1185.203125 0)"/>
     <use xlink:href="#DejaVuSans-52" transform="translate(1237.6875 0)"/>
     <use xlink:href="#DejaVuSans-51" transform="translate(1298.875 0)"/>
     <use xlink:href="#DejaVuSans-48" transform="translate(1362.25 0)"/>
     <use xlink:href="#DejaVuSans-11" transform="translate(1423.78125 0)"/>
    </g>
   </g>
   <g id="text_7">
    <g id="patch_4">
     <path d="M 10.392079 113.18876 
C 11.834784 113.18876 13.218594 112.615567 14.23874 111.595421 
C 15.258886 110.575274 15.832079 109.191465 15.832079 107.74876 
C 15.832079 106.306055 15.258886 104.922246 14.23874 103.902099 
C 13.218594 102.881953 11.834784 102.30876 10.392079 102.30876 
C 8.949374 102.30876 7.565565 102.881953 6.545418 103.902099 
C 5.525272 104.922246 4.952079 106.306055 4.952079 107.74876 
C 4.952079 109.191465 5.525272 110.575274 6.545418 111.595421 
C 7.565565 112.615567 8.949374 113.18876 10.392079 113.18876 
z
" style="fill: #b84a1f"/>
    </g>
    <!-- 3 -->
    <g style="fill: #ffffff" transform="translate(7.608954 109.826885) scale(0.08 -0.08)">
     <defs>
      <path id="DejaVuSans-Bold-16" d="M 2981 2516 
Q 3453 2394 3698 2092 
Q 3944 1791 3944 1325 
Q 3944 631 3412 270 
Q 2881 -91 1863 -91 
Q 1503 -91 1142 -33 
Q 781 25 428 141 
L 428 1069 
Q 766 900 1098 814 
Q 1431 728 1753 728 
Q 2231 728 2486 893 
Q 2741 1059 2741 1369 
Q 2741 1688 2480 1852 
Q 2219 2016 1709 2016 
L 1228 2016 
L 1228 2791 
L 1734 2791 
Q 2188 2791 2409 2933 
Q 2631 3075 2631 3366 
Q 2631 3634 2415 3781 
Q 2200 3928 1806 3928 
Q 1516 3928 1219 3862 
Q 922 3797 628 3669 
L 628 4550 
Q 984 4650 1334 4700 
Q 1684 4750 2022 4750 
Q 2931 4750 3382 4451 
Q 3834 4153 3834 3553 
Q 3834 3144 3618 2883 
Q 3403 2622 2981 2516 
z
" transform="scale(0.015625)"/>
     </defs>
     <use xlink:href="#DejaVuSans-Bold-16"/>
    </g>
   </g>
   <g id="text_8">
    <!-- Not yet. -->
    <g style="fill: #0b0b0b" transform="translate(21.564356 108.873317) scale(0.08 -0.08)">
     <defs>
      <path id="DejaVuSans-Bold-31" d="M 588 4666 
L 1931 4666 
L 3628 1466 
L 3628 4666 
L 4769 4666 
L 4769 0 
L 3425 0 
L 1728 3200 
L 1728 0 
L 588 0 
L 588 4666 
z
" transform="scale(0.015625)"/>
      <path id="DejaVuSans-Bold-57" d="M 1759 4494 
L 1759 3500 
L 2913 3500 
L 2913 2700 
L 1759 2700 
L 1759 1216 
Q 1759 972 1856 886 
Q 1953 800 2241 800 
L 2816 800 
L 2816 0 
L 1856 0 
Q 1194 0 917 276 
Q 641 553 641 1216 
L 641 2700 
L 84 2700 
L 84 3500 
L 641 3500 
L 641 4494 
L 1759 4494 
z
" transform="scale(0.015625)"/>
      <path id="DejaVuSans-Bold-3" transform="scale(0.015625)"/>
      <path id="DejaVuSans-Bold-5c" d="M 78 3500 
L 1197 3500 
L 2138 1125 
L 2938 3500 
L 4056 3500 
L 2584 -331 
Q 2363 -916 2067 -1148 
Q 1772 -1381 1288 -1381 
L 641 -1381 
L 641 -647 
L 991 -647 
Q 1275 -647 1404 -556 
Q 1534 -466 1606 -231 
L 1638 -134 
L 78 3500 
z
" transform="scale(0.015625)"/>
      <path id="DejaVuSans-Bold-48" d="M 4031 1759 
L 4031 1441 
L 1416 1441 
Q 1456 1047 1700 850 
Q 1944 653 2381 653 
Q 2734 653 3104 758 
Q 3475 863 3866 1075 
L 3866 213 
Q 3469 63 3072 -14 
Q 2675 -91 2278 -91 
Q 1328 -91 801 392 
Q 275 875 275 1747 
Q 275 2603 792 3093 
Q 1309 3584 2216 3584 
Q 3041 3584 3536 3087 
Q 4031 2591 4031 1759 
z
M 2881 2131 
Q 2881 2450 2695 2645 
Q 2509 2841 2209 2841 
Q 1884 2841 1681 2658 
Q 1478 2475 1428 2131 
L 2881 2131 
z
" transform="scale(0.015625)"/>
     </defs>
     <use xlink:href="#DejaVuSans-Bold-31"/>
     <use xlink:href="#DejaVuSans-Bold-52" transform="translate(83.6875 0)"/>
     <use xlink:href="#DejaVuSans-Bold-57" transform="translate(152.390625 0)"/>
     <use xlink:href="#DejaVuSans-Bold-3" transform="translate(200.1875 0)"/>
     <use xlink:href="#DejaVuSans-Bold-5c" transform="translate(235 0)"/>
     <use xlink:href="#DejaVuSans-Bold-48" transform="translate(300.1875 0)"/>
     <use xlink:href="#DejaVuSans-Bold-57" transform="translate(368.015625 0)"/>
     <use xlink:href="#DejaVuSans-Bold-11" transform="translate(415.8125 0)"/>
    </g>
   </g>
   <g id="text_9">
    <!-- His shoulder is over the line, but -->
    <g style="fill: #52514e" transform="translate(21.564356 121.113338) scale(0.072 -0.072)">
     <defs>
      <path id="DejaVuSans-2b" d="M 628 4666 
L 1259 4666 
L 1259 2753 
L 3553 2753 
L 3553 4666 
L 4184 4666 
L 4184 0 
L 3553 0 
L 3553 2222 
L 1259 2222 
L 1259 0 
L 628 0 
L 628 4666 
z
" transform="scale(0.015625)"/>
      <path id="DejaVuSans-59" d="M 191 3500 
L 800 3500 
L 1894 563 
L 2988 3500 
L 3597 3500 
L 2284 0 
L 1503 0 
L 191 3500 
z
" transform="scale(0.015625)"/>
     </defs>
     <use xlink:href="#DejaVuSans-2b"/>
     <use xlink:href="#DejaVuSans-4c" transform="translate(75.203125 0)"/>
     <use xlink:href="#DejaVuSans-56" transform="translate(102.984375 0)"/>
     <use xlink:href="#DejaVuSans-3" transform="translate(155.078125 0)"/>
     <use xlink:href="#DejaVuSans-56" transform="translate(186.859375 0)"/>
     <use xlink:href="#DejaVuSans-4b" transform="translate(238.953125 0)"/>
     <use xlink:href="#DejaVuSans-52" transform="translate(302.328125 0)"/>
     <use xlink:href="#DejaVuSans-58" transform="translate(363.515625 0)"/>
     <use xlink:href="#DejaVuSans-4f" transform="translate(426.890625 0)"/>
     <use xlink:href="#DejaVuSans-47" transform="translate(454.671875 0)"/>
     <use xlink:href="#DejaVuSans-48" transform="translate(518.15625 0)"/>
     <use xlink:href="#DejaVuSans-55" transform="translate(579.6875 0)"/>
     <use xlink:href="#DejaVuSans-3" transform="translate(620.796875 0)"/>
     <use xlink:href="#DejaVuSans-4c" transform="translate(652.578125 0)"/>
     <use xlink:href="#DejaVuSans-56" transform="translate(680.359375 0)"/>
     <use xlink:href="#DejaVuSans-3" transform="translate(732.453125 0)"/>
     <use xlink:href="#DejaVuSans-52" transform="translate(764.234375 0)"/>
     <use xlink:href="#DejaVuSans-59" transform="translate(825.421875 0)"/>
     <use xlink:href="#DejaVuSans-48" transform="translate(884.609375 0)"/>
     <use xlink:href="#DejaVuSans-55" transform="translate(946.140625 0)"/>
     <use xlink:href="#DejaVuSans-3" transform="translate(987.25 0)"/>
     <use xlink:href="#DejaVuSans-57" transform="translate(1019.03125 0)"/>
     <use xlink:href="#DejaVuSans-4b" transform="translate(1058.234375 0)"/>
     <use xlink:href="#DejaVuSans-48" transform="translate(1121.609375 0)"/>
     <use xlink:href="#DejaVuSans-3" transform="translate(1183.140625 0)"/>
     <use xlink:href="#DejaVuSans-4f" transform="translate(1214.921875 0)"/>
     <use xlink:href="#DejaVuSans-4c" transform="translate(1242.703125 0)"/>
     <use xlink:href="#DejaVuSans-51" transform="translate(1270.484375 0)"/>
     <use xlink:href="#DejaVuSans-48" transform="translate(1333.859375 0)"/>
     <use xlink:href="#DejaVuSans-f" transform="translate(1395.390625 0)"/>
     <use xlink:href="#DejaVuSans-3" transform="translate(1427.171875 0)"/>
     <use xlink:href="#DejaVuSans-45" transform="translate(1458.953125 0)"/>
     <use xlink:href="#DejaVuSans-58" transform="translate(1522.4375 0)"/>
     <use xlink:href="#DejaVuSans-57" transform="translate(1585.8125 0)"/>
    </g>
    <!-- the ball is short of it. Only the -->
    <g style="fill: #52514e" transform="translate(21.564356 129.42315) scale(0.072 -0.072)">
     <defs>
      <path id="DejaVuSans-32" d="M 2522 4238 
Q 1834 4238 1429 3725 
Q 1025 3213 1025 2328 
Q 1025 1447 1429 934 
Q 1834 422 2522 422 
Q 3209 422 3611 934 
Q 4013 1447 4013 2328 
Q 4013 3213 3611 3725 
Q 3209 4238 2522 4238 
z
M 2522 4750 
Q 3503 4750 4090 4092 
Q 4678 3434 4678 2328 
Q 4678 1225 4090 567 
Q 3503 -91 2522 -91 
Q 1538 -91 948 565 
Q 359 1222 359 2328 
Q 359 3434 948 4092 
Q 1538 4750 2522 4750 
z
" transform="scale(0.015625)"/>
     </defs>
     <use xlink:href="#DejaVuSans-57"/>
     <use xlink:href="#DejaVuSans-4b" transform="translate(39.203125 0)"/>
     <use xlink:href="#DejaVuSans-48" transform="translate(102.578125 0)"/>
     <use xlink:href="#DejaVuSans-3" transform="translate(164.109375 0)"/>
     <use xlink:href="#DejaVuSans-45" transform="translate(195.890625 0)"/>
     <use xlink:href="#DejaVuSans-44" transform="translate(259.375 0)"/>
     <use xlink:href="#DejaVuSans-4f" transform="translate(320.65625 0)"/>
     <use xlink:href="#DejaVuSans-4f" transform="translate(348.4375 0)"/>
     <use xlink:href="#DejaVuSans-3" transform="translate(376.21875 0)"/>
     <use xlink:href="#DejaVuSans-4c" transform="translate(408 0)"/>
     <use xlink:href="#DejaVuSans-56" transform="translate(435.78125 0)"/>
     <use xlink:href="#DejaVuSans-3" transform="translate(487.875 0)"/>
     <use xlink:href="#DejaVuSans-56" transform="translate(519.65625 0)"/>
     <use xlink:href="#DejaVuSans-4b" transform="translate(571.75 0)"/>
     <use xlink:href="#DejaVuSans-52" transform="translate(635.125 0)"/>
     <use xlink:href="#DejaVuSans-55" transform="translate(696.3125 0)"/>
     <use xlink:href="#DejaVuSans-57" transform="translate(737.421875 0)"/>
     <use xlink:href="#DejaVuSans-3" transform="translate(776.625 0)"/>
     <use xlink:href="#DejaVuSans-52" transform="translate(808.40625 0)"/>
     <use xlink:href="#DejaVuSans-49" transform="translate(869.59375 0)"/>
     <use xlink:href="#DejaVuSans-3" transform="translate(904.796875 0)"/>
     <use xlink:href="#DejaVuSans-4c" transform="translate(936.578125 0)"/>
     <use xlink:href="#DejaVuSans-57" transform="translate(964.359375 0)"/>
     <use xlink:href="#DejaVuSans-11" transform="translate(1003.5625 0)"/>
     <use xlink:href="#DejaVuSans-3" transform="translate(1035.34375 0)"/>
     <use xlink:href="#DejaVuSans-32" transform="translate(1067.125 0)"/>
     <use xlink:href="#DejaVuSans-51" transform="translate(1145.84375 0)"/>
     <use xlink:href="#DejaVuSans-4f" transform="translate(1209.21875 0)"/>
     <use xlink:href="#DejaVuSans-5c" transform="translate(1237 0)"/>
     <use xlink:href="#DejaVuSans-3" transform="translate(1296.1875 0)"/>
     <use xlink:href="#DejaVuSans-57" transform="translate(1327.96875 0)"/>
     <use xlink:href="#DejaVuSans-4b" transform="translate(1367.171875 0)"/>
     <use xlink:href="#DejaVuSans-48" transform="translate(1430.546875 0)"/>
    </g>
    <!-- ball counts. -->
    <g style="fill: #52514e" transform="translate(21.564356 138.76065) scale(0.072 -0.072)">
     <defs>
      <path id="DejaVuSans-46" d="M 3122 3366 
L 3122 2828 
Q 2878 2963 2633 3030 
Q 2388 3097 2138 3097 
Q 1578 3097 1268 2742 
Q 959 2388 959 1747 
Q 959 1106 1268 751 
Q 1578 397 2138 397 
Q 2388 397 2633 464 
Q 2878 531 3122 666 
L 3122 134 
Q 2881 22 2623 -34 
Q 2366 -91 2075 -91 
Q 1284 -91 818 406 
Q 353 903 353 1747 
Q 353 2603 823 3093 
Q 1294 3584 2113 3584 
Q 2378 3584 2631 3529 
Q 2884 3475 3122 3366 
z
" transform="scale(0.015625)"/>
     </defs>
     <use xlink:href="#DejaVuSans-45"/>
     <use xlink:href="#DejaVuSans-44" transform="translate(63.484375 0)"/>
     <use xlink:href="#DejaVuSans-4f" transform="translate(124.765625 0)"/>
     <use xlink:href="#DejaVuSans-4f" transform="translate(152.546875 0)"/>
     <use xlink:href="#DejaVuSans-3" transform="translate(180.328125 0)"/>
     <use xlink:href="#DejaVuSans-46" transform="translate(212.109375 0)"/>
     <use xlink:href="#DejaVuSans-52" transform="translate(267.09375 0)"/>
     <use xlink:href="#DejaVuSans-58" transform="translate(328.28125 0)"/>
     <use xlink:href="#DejaVuSans-51" transform="translate(391.65625 0)"/>
     <use xlink:href="#DejaVuSans-57" transform="translate(455.03125 0)"/>
     <use xlink:href="#DejaVuSans-56" transform="translate(494.234375 0)"/>
     <use xlink:href="#DejaVuSans-11" transform="translate(546.328125 0)"/>
    </g>
   </g>
   <g id="text_10">
    <g id="patch_5">
     <path d="M 10.392079 162.774296 
C 11.834784 162.774296 13.218594 162.201103 14.23874 161.180957 
C 15.258886 160.16081 15.832079 158.777001 15.832079 157.334296 
C 15.832079 155.891591 15.258886 154.507782 14.23874 153.487635 
C 13.218594 152.467489 11.834784 151.894296 10.392079 151.894296 
C 8.949374 151.894296 7.565565 152.467489 6.545418 153.487635 
C 5.525272 154.507782 4.952079 155.891591 4.952079 157.334296 
C 4.952079 158.777001 5.525272 160.16081 6.545418 161.180957 
C 7.565565 162.201103 8.949374 162.774296 10.392079 162.774296 
z
" style="fill: #1baf7a"/>
    </g>
    <!-- 4 -->
    <g style="fill: #ffffff" transform="translate(7.608954 159.412421) scale(0.08 -0.08)">
     <defs>
      <path id="DejaVuSans-Bold-17" d="M 2356 3675 
L 1038 1722 
L 2356 1722 
L 2356 3675 
z
M 2156 4666 
L 3494 4666 
L 3494 1722 
L 4159 1722 
L 4159 850 
L 3494 850 
L 3494 0 
L 2356 0 
L 2356 850 
L 288 850 
L 288 1881 
L 2156 4666 
z
" transform="scale(0.015625)"/>
     </defs>
     <use xlink:href="#DejaVuSans-Bold-17"/>
    </g>
   </g>
   <g id="text_11">
    <!-- Touchdown. -->
    <g style="fill: #0b0b0b" transform="translate(21.564356 158.459478) scale(0.08 -0.08)">
     <use xlink:href="#DejaVuSans-Bold-37"/>
     <use xlink:href="#DejaVuSans-Bold-52" transform="translate(54.9375 0)"/>
     <use xlink:href="#DejaVuSans-Bold-58" transform="translate(123.640625 0)"/>
     <use xlink:href="#DejaVuSans-Bold-46" transform="translate(194.828125 0)"/>
     <use xlink:href="#DejaVuSans-Bold-4b" transform="translate(254.109375 0)"/>
     <use xlink:href="#DejaVuSans-Bold-47" transform="translate(325.296875 0)"/>
     <use xlink:href="#DejaVuSans-Bold-52" transform="translate(396.875 0)"/>
     <use xlink:href="#DejaVuSans-Bold-5a" transform="translate(465.578125 0)"/>
     <use xlink:href="#DejaVuSans-Bold-51" transform="translate(557.96875 0)"/>
     <use xlink:href="#DejaVuSans-Bold-11" transform="translate(629.15625 0)"/>
    </g>
   </g>
   <g id="text_12">
    <!-- Ball over the pylon. The pylon is -->
    <g style="fill: #52514e" transform="translate(21.564356 170.368686) scale(0.072 -0.072)">
     <defs>
      <path id="DejaVuSans-25" d="M 1259 2228 
L 1259 519 
L 2272 519 
Q 2781 519 3026 730 
Q 3272 941 3272 1375 
Q 3272 1813 3026 2020 
Q 2781 2228 2272 2228 
L 1259 2228 
z
M 1259 4147 
L 1259 2741 
L 2194 2741 
Q 2656 2741 2882 2914 
Q 3109 3088 3109 3444 
Q 3109 3797 2882 3972 
Q 2656 4147 2194 4147 
L 1259 4147 
z
M 628 4666 
L 2241 4666 
Q 2963 4666 3353 4366 
Q 3744 4066 3744 3513 
Q 3744 3084 3544 2831 
Q 3344 2578 2956 2516 
Q 3422 2416 3680 2098 
Q 3938 1781 3938 1306 
Q 3938 681 3513 340 
Q 3088 0 2303 0 
L 628 0 
L 628 4666 
z
" transform="scale(0.015625)"/>
     </defs>
     <use xlink:href="#DejaVuSans-25"/>
     <use xlink:href="#DejaVuSans-44" transform="translate(68.609375 0)"/>
     <use xlink:href="#DejaVuSans-4f" transform="translate(129.890625 0)"/>
     <use xlink:href="#DejaVuSans-4f" transform="translate(157.671875 0)"/>
     <use xlink:href="#DejaVuSans-3" transform="translate(185.453125 0)"/>
     <use xlink:href="#DejaVuSans-52" transform="translate(217.234375 0)"/>
     <use xlink:href="#DejaVuSans-59" transform="translate(278.421875 0)"/>
     <use xlink:href="#DejaVuSans-48" transform="translate(337.609375 0)"/>
     <use xlink:href="#DejaVuSans-55" transform="translate(399.140625 0)"/>
     <use xlink:href="#DejaVuSans-3" transform="translate(440.25 0)"/>
     <use xlink:href="#DejaVuSans-57" transform="translate(472.03125 0)"/>
     <use xlink:href="#DejaVuSans-4b" transform="translate(511.234375 0)"/>
     <use xlink:href="#DejaVuSans-48" transform="translate(574.609375 0)"/>
     <use xlink:href="#DejaVuSans-3" transform="translate(636.140625 0)"/>
     <use xlink:href="#DejaVuSans-53" transform="translate(667.921875 0)"/>
     <use xlink:href="#DejaVuSans-5c" transform="translate(731.40625 0)"/>
     <use xlink:href="#DejaVuSans-4f" transform="translate(790.59375 0)"/>
     <use xlink:href="#DejaVuSans-52" transform="translate(818.375 0)"/>
     <use xlink:href="#DejaVuSans-51" transform="translate(879.5625 0)"/>
     <use xlink:href="#DejaVuSans-11" transform="translate(942.9375 0)"/>
     <use xlink:href="#DejaVuSans-3" transform="translate(974.71875 0)"/>
     <use xlink:href="#DejaVuSans-37" transform="translate(1006.5 0)"/>
     <use xlink:href="#DejaVuSans-4b" transform="translate(1067.578125 0)"/>
     <use xlink:href="#DejaVuSans-48" transform="translate(1130.953125 0)"/>
     <use xlink:href="#DejaVuSans-3" transform="translate(1192.484375 0)"/>
     <use xlink:href="#DejaVuSans-53" transform="translate(1224.265625 0)"/>
     <use xlink:href="#DejaVuSans-5c" transform="translate(1287.75 0)"/>
     <use xlink:href="#DejaVuSans-4f" transform="translate(1346.9375 0)"/>
     <use xlink:href="#DejaVuSans-52" transform="translate(1374.71875 0)"/>
     <use xlink:href="#DejaVuSans-51" transform="translate(1435.90625 0)"/>
     <use xlink:href="#DejaVuSans-3" transform="translate(1499.28125 0)"/>
     <use xlink:href="#DejaVuSans-4c" transform="translate(1531.0625 0)"/>
     <use xlink:href="#DejaVuSans-56" transform="translate(1558.84375 0)"/>
    </g>
    <!-- in the end zone too (a ball that -->
    <g style="fill: #52514e" transform="translate(21.564356 179.282623) scale(0.072 -0.072)">
     <defs>
      <path id="DejaVuSans-b" d="M 1984 4856 
Q 1566 4138 1362 3434 
Q 1159 2731 1159 2009 
Q 1159 1288 1364 580 
Q 1569 -128 1984 -844 
L 1484 -844 
Q 1016 -109 783 600 
Q 550 1309 550 2009 
Q 550 2706 781 3412 
Q 1013 4119 1484 4856 
L 1984 4856 
z
" transform="scale(0.015625)"/>
     </defs>
     <use xlink:href="#DejaVuSans-4c"/>
     <use xlink:href="#DejaVuSans-51" transform="translate(27.78125 0)"/>
     <use xlink:href="#DejaVuSans-3" transform="translate(91.15625 0)"/>
     <use xlink:href="#DejaVuSans-57" transform="translate(122.9375 0)"/>
     <use xlink:href="#DejaVuSans-4b" transform="translate(162.140625 0)"/>
     <use xlink:href="#DejaVuSans-48" transform="translate(225.515625 0)"/>
     <use xlink:href="#DejaVuSans-3" transform="translate(287.046875 0)"/>
     <use xlink:href="#DejaVuSans-48" transform="translate(318.828125 0)"/>
     <use xlink:href="#DejaVuSans-51" transform="translate(380.359375 0)"/>
     <use xlink:href="#DejaVuSans-47" transform="translate(443.734375 0)"/>
     <use xlink:href="#DejaVuSans-3" transform="translate(507.21875 0)"/>
     <use xlink:href="#DejaVuSans-5d" transform="translate(539 0)"/>
     <use xlink:href="#DejaVuSans-52" transform="translate(591.484375 0)"/>
     <use xlink:href="#DejaVuSans-51" transform="translate(652.671875 0)"/>
     <use xlink:href="#DejaVuSans-48" transform="translate(716.046875 0)"/>
     <use xlink:href="#DejaVuSans-3" transform="translate(777.578125 0)"/>
     <use xlink:href="#DejaVuSans-57" transform="translate(809.359375 0)"/>
     <use xlink:href="#DejaVuSans-52" transform="translate(848.5625 0)"/>
     <use xlink:href="#DejaVuSans-52" transform="translate(909.75 0)"/>
     <use xlink:href="#DejaVuSans-3" transform="translate(970.9375 0)"/>
     <use xlink:href="#DejaVuSans-b" transform="translate(1002.71875 0)"/>
     <use xlink:href="#DejaVuSans-44" transform="translate(1041.734375 0)"/>
     <use xlink:href="#DejaVuSans-3" transform="translate(1103.015625 0)"/>
     <use xlink:href="#DejaVuSans-45" transform="translate(1134.796875 0)"/>
     <use xlink:href="#DejaVuSans-44" transform="translate(1198.28125 0)"/>
     <use xlink:href="#DejaVuSans-4f" transform="translate(1259.5625 0)"/>
     <use xlink:href="#DejaVuSans-4f" transform="translate(1287.34375 0)"/>
     <use xlink:href="#DejaVuSans-3" transform="translate(1315.125 0)"/>
     <use xlink:href="#DejaVuSans-57" transform="translate(1346.90625 0)"/>
     <use xlink:href="#DejaVuSans-4b" transform="translate(1386.109375 0)"/>
     <use xlink:href="#DejaVuSans-44" transform="translate(1449.484375 0)"/>
     <use xlink:href="#DejaVuSans-57" transform="translate(1510.765625 0)"/>
    </g>
    <!-- crosses outside the pylon is out -->
    <g style="fill: #52514e" transform="translate(21.564356 187.648686) scale(0.072 -0.072)">
     <use xlink:href="#DejaVuSans-46"/>
     <use xlink:href="#DejaVuSans-55" transform="translate(54.984375 0)"/>
     <use xlink:href="#DejaVuSans-52" transform="translate(93.890625 0)"/>
     <use xlink:href="#DejaVuSans-56" transform="translate(155.078125 0)"/>
     <use xlink:href="#DejaVuSans-56" transform="translate(207.171875 0)"/>
     <use xlink:href="#DejaVuSans-48" transform="translate(259.265625 0)"/>
     <use xlink:href="#DejaVuSans-56" transform="translate(320.796875 0)"/>
     <use xlink:href="#DejaVuSans-3" transform="translate(372.890625 0)"/>
     <use xlink:href="#DejaVuSans-52" transform="translate(404.671875 0)"/>
     <use xlink:href="#DejaVuSans-58" transform="translate(465.859375 0)"/>
     <use xlink:href="#DejaVuSans-57" transform="translate(529.234375 0)"/>
     <use xlink:href="#DejaVuSans-56" transform="translate(568.4375 0)"/>
     <use xlink:href="#DejaVuSans-4c" transform="translate(620.53125 0)"/>
     <use xlink:href="#DejaVuSans-47" transform="translate(648.3125 0)"/>
     <use xlink:href="#DejaVuSans-48" transform="translate(711.796875 0)"/>
     <use xlink:href="#DejaVuSans-3" transform="translate(773.328125 0)"/>
     <use xlink:href="#DejaVuSans-57" transform="translate(805.109375 0)"/>
     <use xlink:href="#DejaVuSans-4b" transform="translate(844.3125 0)"/>
     <use xlink:href="#DejaVuSans-48" transform="translate(907.6875 0)"/>
     <use xlink:href="#DejaVuSans-3" transform="translate(969.21875 0)"/>
     <use xlink:href="#DejaVuSans-53" transform="translate(1001 0)"/>
     <use xlink:href="#DejaVuSans-5c" transform="translate(1064.484375 0)"/>
     <use xlink:href="#DejaVuSans-4f" transform="translate(1123.671875 0)"/>
     <use xlink:href="#DejaVuSans-52" transform="translate(1151.453125 0)"/>
     <use xlink:href="#DejaVuSans-51" transform="translate(1212.640625 0)"/>
     <use xlink:href="#DejaVuSans-3" transform="translate(1276.015625 0)"/>
     <use xlink:href="#DejaVuSans-4c" transform="translate(1307.796875 0)"/>
     <use xlink:href="#DejaVuSans-56" transform="translate(1335.578125 0)"/>
     <use xlink:href="#DejaVuSans-3" transform="translate(1387.671875 0)"/>
     <use xlink:href="#DejaVuSans-52" transform="translate(1419.453125 0)"/>
     <use xlink:href="#DejaVuSans-58" transform="translate(1480.640625 0)"/>
     <use xlink:href="#DejaVuSans-57" transform="translate(1544.015625 0)"/>
    </g>
    <!-- of bounds). -->
    <g style="fill: #52514e" transform="translate(21.564356 196.562624) scale(0.072 -0.072)">
     <defs>
      <path id="DejaVuSans-c" d="M 513 4856 
L 1013 4856 
Q 1481 4119 1714 3412 
Q 1947 2706 1947 2009 
Q 1947 1309 1714 600 
Q 1481 -109 1013 -844 
L 513 -844 
Q 928 -128 1133 580 
Q 1338 1288 1338 2009 
Q 1338 2731 1133 3434 
Q 928 4138 513 4856 
z
" transform="scale(0.015625)"/>
     </defs>
     <use xlink:href="#DejaVuSans-52"/>
     <use xlink:href="#DejaVuSans-49" transform="translate(61.1875 0)"/>
     <use xlink:href="#DejaVuSans-3" transform="translate(96.390625 0)"/>
     <use xlink:href="#DejaVuSans-45" transform="translate(128.171875 0)"/>
     <use xlink:href="#DejaVuSans-52" transform="translate(191.65625 0)"/>
     <use xlink:href="#DejaVuSans-58" transform="translate(252.84375 0)"/>
     <use xlink:href="#DejaVuSans-51" transform="translate(316.21875 0)"/>
     <use xlink:href="#DejaVuSans-47" transform="translate(379.59375 0)"/>
     <use xlink:href="#DejaVuSans-56" transform="translate(443.078125 0)"/>
     <use xlink:href="#DejaVuSans-c" transform="translate(495.171875 0)"/>
     <use xlink:href="#DejaVuSans-11" transform="translate(534.1875 0)"/>
    </g>
   </g>
   <g id="text_13">
    <g id="patch_6">
     <path d="M 10.392079 222.133904 
C 11.834784 222.133904 13.218594 221.560711 14.23874 220.540565 
C 15.258886 219.520418 15.832079 218.136609 15.832079 216.693904 
C 15.832079 215.251199 15.258886 213.86739 14.23874 212.847243 
C 13.218594 211.827097 11.834784 211.253904 10.392079 211.253904 
C 8.949374 211.253904 7.565565 211.827097 6.545418 212.847243 
C 5.525272 213.86739 4.952079 215.251199 4.952079 216.693904 
C 4.952079 218.136609 5.525272 219.520418 6.545418 220.540565 
C 7.565565 221.560711 8.949374 222.133904 10.392079 222.133904 
z
" style="fill: #b84a1f"/>
    </g>
    <!-- 5 -->
    <g style="fill: #ffffff" transform="translate(7.608954 218.772029) scale(0.08 -0.08)">
     <defs>
      <path id="DejaVuSans-Bold-18" d="M 678 4666 
L 3669 4666 
L 3669 3781 
L 1638 3781 
L 1638 3059 
Q 1775 3097 1914 3117 
Q 2053 3138 2203 3138 
Q 3056 3138 3531 2711 
Q 4006 2284 4006 1522 
Q 4006 766 3489 337 
Q 2972 -91 2053 -91 
Q 1656 -91 1267 -14 
Q 878 63 494 219 
L 494 1166 
Q 875 947 1217 837 
Q 1559 728 1863 728 
Q 2300 728 2551 942 
Q 2803 1156 2803 1522 
Q 2803 1891 2551 2103 
Q 2300 2316 1863 2316 
Q 1603 2316 1309 2248 
Q 1016 2181 678 2041 
L 678 4666 
z
" transform="scale(0.015625)"/>
     </defs>
     <use xlink:href="#DejaVuSans-Bold-18"/>
    </g>
   </g>
   <g id="text_14">
    <!-- Out of bounds. -->
    <g style="fill: #0b0b0b" transform="translate(21.564356 217.819086) scale(0.08 -0.08)">
     <defs>
      <path id="DejaVuSans-Bold-32" d="M 2719 3878 
Q 2169 3878 1866 3472 
Q 1563 3066 1563 2328 
Q 1563 1594 1866 1187 
Q 2169 781 2719 781 
Q 3272 781 3575 1187 
Q 3878 1594 3878 2328 
Q 3878 3066 3575 3472 
Q 3272 3878 2719 3878 
z
M 2719 4750 
Q 3844 4750 4481 4106 
Q 5119 3463 5119 2328 
Q 5119 1197 4481 553 
Q 3844 -91 2719 -91 
Q 1597 -91 958 553 
Q 319 1197 319 2328 
Q 319 3463 958 4106 
Q 1597 4750 2719 4750 
z
" transform="scale(0.015625)"/>
      <path id="DejaVuSans-Bold-49" d="M 2841 4863 
L 2841 4128 
L 2222 4128 
Q 1984 4128 1890 4042 
Q 1797 3956 1797 3744 
L 1797 3500 
L 2753 3500 
L 2753 2700 
L 1797 2700 
L 1797 0 
L 678 0 
L 678 2700 
L 122 2700 
L 122 3500 
L 678 3500 
L 678 3744 
Q 678 4316 997 4589 
Q 1316 4863 1984 4863 
L 2841 4863 
z
" transform="scale(0.015625)"/>
      <path id="DejaVuSans-Bold-45" d="M 2400 722 
Q 2759 722 2948 984 
Q 3138 1247 3138 1747 
Q 3138 2247 2948 2509 
Q 2759 2772 2400 2772 
Q 2041 2772 1848 2508 
Q 1656 2244 1656 1747 
Q 1656 1250 1848 986 
Q 2041 722 2400 722 
z
M 1656 2988 
Q 1888 3294 2169 3439 
Q 2450 3584 2816 3584 
Q 3463 3584 3878 3070 
Q 4294 2556 4294 1747 
Q 4294 938 3878 423 
Q 3463 -91 2816 -91 
Q 2450 -91 2169 54 
Q 1888 200 1656 506 
L 1656 0 
L 538 0 
L 538 4863 
L 1656 4863 
L 1656 2988 
z
" transform="scale(0.015625)"/>
      <path id="DejaVuSans-Bold-56" d="M 3272 3391 
L 3272 2541 
Q 2913 2691 2578 2766 
Q 2244 2841 1947 2841 
Q 1628 2841 1473 2761 
Q 1319 2681 1319 2516 
Q 1319 2381 1436 2309 
Q 1553 2238 1856 2203 
L 2053 2175 
Q 2913 2066 3209 1816 
Q 3506 1566 3506 1031 
Q 3506 472 3093 190 
Q 2681 -91 1863 -91 
Q 1516 -91 1145 -36 
Q 775 19 384 128 
L 384 978 
Q 719 816 1070 734 
Q 1422 653 1784 653 
Q 2113 653 2278 743 
Q 2444 834 2444 1013 
Q 2444 1163 2330 1236 
Q 2216 1309 1875 1350 
L 1678 1375 
Q 931 1469 631 1722 
Q 331 1975 331 2491 
Q 331 3047 712 3315 
Q 1094 3584 1881 3584 
Q 2191 3584 2531 3537 
Q 2872 3491 3272 3391 
z
" transform="scale(0.015625)"/>
     </defs>
     <use xlink:href="#DejaVuSans-Bold-32"/>
     <use xlink:href="#DejaVuSans-Bold-58" transform="translate(85.015625 0)"/>
     <use xlink:href="#DejaVuSans-Bold-57" transform="translate(156.203125 0)"/>
     <use xlink:href="#DejaVuSans-Bold-3" transform="translate(204 0)"/>
     <use xlink:href="#DejaVuSans-Bold-52" transform="translate(238.8125 0)"/>
     <use xlink:href="#DejaVuSans-Bold-49" transform="translate(307.515625 0)"/>
     <use xlink:href="#DejaVuSans-Bold-3" transform="translate(351.015625 0)"/>
     <use xlink:href="#DejaVuSans-Bold-45" transform="translate(385.828125 0)"/>
     <use xlink:href="#DejaVuSans-Bold-52" transform="translate(457.40625 0)"/>
     <use xlink:href="#DejaVuSans-Bold-58" transform="translate(526.109375 0)"/>
     <use xlink:href="#DejaVuSans-Bold-51" transform="translate(597.296875 0)"/>
     <use xlink:href="#DejaVuSans-Bold-47" transform="translate(668.484375 0)"/>
     <use xlink:href="#DejaVuSans-Bold-56" transform="translate(740.0625 0)"/>
     <use xlink:href="#DejaVuSans-Bold-11" transform="translate(799.578125 0)"/>
    </g>
   </g>
   <g id="text_15">
    <!-- A foot on the sideline: he is out -->
    <g style="fill: #52514e" transform="translate(21.564356 230.425794) scale(0.072 -0.072)">
     <defs>
      <path id="DejaVuSans-1d" d="M 750 794 
L 1409 794 
L 1409 0 
L 750 0 
L 750 794 
z
M 750 3309 
L 1409 3309 
L 1409 2516 
L 750 2516 
L 750 3309 
z
" transform="scale(0.015625)"/>
     </defs>
     <use xlink:href="#DejaVuSans-24"/>
     <use xlink:href="#DejaVuSans-3" transform="translate(68.40625 0)"/>
     <use xlink:href="#DejaVuSans-49" transform="translate(100.1875 0)"/>
     <use xlink:href="#DejaVuSans-52" transform="translate(135.390625 0)"/>
     <use xlink:href="#DejaVuSans-52" transform="translate(196.578125 0)"/>
     <use xlink:href="#DejaVuSans-57" transform="translate(257.765625 0)"/>
     <use xlink:href="#DejaVuSans-3" transform="translate(296.96875 0)"/>
     <use xlink:href="#DejaVuSans-52" transform="translate(328.75 0)"/>
     <use xlink:href="#DejaVuSans-51" transform="translate(389.9375 0)"/>
     <use xlink:href="#DejaVuSans-3" transform="translate(453.3125 0)"/>
     <use xlink:href="#DejaVuSans-57" transform="translate(485.09375 0)"/>
     <use xlink:href="#DejaVuSans-4b" transform="translate(524.296875 0)"/>
     <use xlink:href="#DejaVuSans-48" transform="translate(587.671875 0)"/>
     <use xlink:href="#DejaVuSans-3" transform="translate(649.203125 0)"/>
     <use xlink:href="#DejaVuSans-56" transform="translate(680.984375 0)"/>
     <use xlink:href="#DejaVuSans-4c" transform="translate(733.078125 0)"/>
     <use xlink:href="#DejaVuSans-47" transform="translate(760.859375 0)"/>
     <use xlink:href="#DejaVuSans-48" transform="translate(824.34375 0)"/>
     <use xlink:href="#DejaVuSans-4f" transform="translate(885.875 0)"/>
     <use xlink:href="#DejaVuSans-4c" transform="translate(913.65625 0)"/>
     <use xlink:href="#DejaVuSans-51" transform="translate(941.4375 0)"/>
     <use xlink:href="#DejaVuSans-48" transform="translate(1004.8125 0)"/>
     <use xlink:href="#DejaVuSans-1d" transform="translate(1066.34375 0)"/>
     <use xlink:href="#DejaVuSans-3" transform="translate(1100.03125 0)"/>
     <use xlink:href="#DejaVuSans-4b" transform="translate(1131.8125 0)"/>
     <use xlink:href="#DejaVuSans-48" transform="translate(1195.1875 0)"/>
     <use xlink:href="#DejaVuSans-3" transform="translate(1256.71875 0)"/>
     <use xlink:href="#DejaVuSans-4c" transform="translate(1288.5 0)"/>
     <use xlink:href="#DejaVuSans-56" transform="translate(1316.28125 0)"/>
     <use xlink:href="#DejaVuSans-3" transform="translate(1368.375 0)"/>
     <use xlink:href="#DejaVuSans-52" transform="translate(1400.15625 0)"/>
     <use xlink:href="#DejaVuSans-58" transform="translate(1461.34375 0)"/>
     <use xlink:href="#DejaVuSans-57" transform="translate(1524.71875 0)"/>
    </g>
    <!-- where the ball was, at the 4. -->
    <g style="fill: #52514e" transform="translate(21.564356 238.698482) scale(0.072 -0.072)">
     <defs>
      <path id="DejaVuSans-5a" d="M 269 3500 
L 844 3500 
L 1563 769 
L 2278 3500 
L 2956 3500 
L 3675 769 
L 4391 3500 
L 4966 3500 
L 4050 0 
L 3372 0 
L 2619 2869 
L 1863 0 
L 1184 0 
L 269 3500 
z
" transform="scale(0.015625)"/>
      <path id="DejaVuSans-17" d="M 2419 4116 
L 825 1625 
L 2419 1625 
L 2419 4116 
z
M 2253 4666 
L 3047 4666 
L 3047 1625 
L 3713 1625 
L 3713 1100 
L 3047 1100 
L 3047 0 
L 2419 0 
L 2419 1100 
L 313 1100 
L 313 1709 
L 2253 4666 
z
" transform="scale(0.015625)"/>
     </defs>
     <use xlink:href="#DejaVuSans-5a"/>
     <use xlink:href="#DejaVuSans-4b" transform="translate(81.78125 0)"/>
     <use xlink:href="#DejaVuSans-48" transform="translate(145.15625 0)"/>
     <use xlink:href="#DejaVuSans-55" transform="translate(206.6875 0)"/>
     <use xlink:href="#DejaVuSans-48" transform="translate(245.59375 0)"/>
     <use xlink:href="#DejaVuSans-3" transform="translate(307.125 0)"/>
     <use xlink:href="#DejaVuSans-57" transform="translate(338.90625 0)"/>
     <use xlink:href="#DejaVuSans-4b" transform="translate(378.109375 0)"/>
     <use xlink:href="#DejaVuSans-48" transform="translate(441.484375 0)"/>
     <use xlink:href="#DejaVuSans-3" transform="translate(503.015625 0)"/>
     <use xlink:href="#DejaVuSans-45" transform="translate(534.796875 0)"/>
     <use xlink:href="#DejaVuSans-44" transform="translate(598.28125 0)"/>
     <use xlink:href="#DejaVuSans-4f" transform="translate(659.5625 0)"/>
     <use xlink:href="#DejaVuSans-4f" transform="translate(687.34375 0)"/>
     <use xlink:href="#DejaVuSans-3" transform="translate(715.125 0)"/>
     <use xlink:href="#DejaVuSans-5a" transform="translate(746.90625 0)"/>
     <use xlink:href="#DejaVuSans-44" transform="translate(828.6875 0)"/>
     <use xlink:href="#DejaVuSans-56" transform="translate(889.96875 0)"/>
     <use xlink:href="#DejaVuSans-f" transform="translate(942.0625 0)"/>
     <use xlink:href="#DejaVuSans-3" transform="translate(973.84375 0)"/>
     <use xlink:href="#DejaVuSans-44" transform="translate(1005.625 0)"/>
     <use xlink:href="#DejaVuSans-57" transform="translate(1066.90625 0)"/>
     <use xlink:href="#DejaVuSans-3" transform="translate(1106.109375 0)"/>
     <use xlink:href="#DejaVuSans-57" transform="translate(1137.890625 0)"/>
     <use xlink:href="#DejaVuSans-4b" transform="translate(1177.09375 0)"/>
     <use xlink:href="#DejaVuSans-48" transform="translate(1240.46875 0)"/>
     <use xlink:href="#DejaVuSans-3" transform="translate(1302 0)"/>
     <use xlink:href="#DejaVuSans-17" transform="translate(1333.78125 0)"/>
     <use xlink:href="#DejaVuSans-11" transform="translate(1397.40625 0)"/>
    </g>
   </g>
   <g id="text_16">
    <g id="patch_7">
     <path d="M 10.392079 261.945368 
C 11.834784 261.945368 13.218594 261.372175 14.23874 260.352029 
C 15.258886 259.331882 15.832079 257.948073 15.832079 256.505368 
C 15.832079 255.062663 15.258886 253.678854 14.23874 252.658707 
C 13.218594 251.638561 11.834784 251.065368 10.392079 251.065368 
C 8.949374 251.065368 7.565565 251.638561 6.545418 252.658707 
C 5.525272 253.678854 4.952079 255.062663 4.952079 256.505368 
C 4.952079 257.948073 5.525272 259.331882 6.545418 260.352029 
C 7.565565 261.372175 8.949374 261.945368 10.392079 261.945368 
z
" style="fill: #b84a1f"/>
    </g>
    <!-- 6 -->
    <g style="fill: #ffffff" transform="translate(7.608954 258.583493) scale(0.08 -0.08)">
     <defs>
      <path id="DejaVuSans-Bold-19" d="M 2316 2303 
Q 2000 2303 1842 2098 
Q 1684 1894 1684 1484 
Q 1684 1075 1842 870 
Q 2000 666 2316 666 
Q 2634 666 2792 870 
Q 2950 1075 2950 1484 
Q 2950 1894 2792 2098 
Q 2634 2303 2316 2303 
z
M 3803 4544 
L 3803 3681 
Q 3506 3822 3243 3889 
Q 2981 3956 2731 3956 
Q 2194 3956 1894 3657 
Q 1594 3359 1544 2772 
Q 1750 2925 1990 3001 
Q 2231 3078 2516 3078 
Q 3231 3078 3670 2659 
Q 4109 2241 4109 1563 
Q 4109 813 3618 361 
Q 3128 -91 2303 -91 
Q 1394 -91 895 523 
Q 397 1138 397 2266 
Q 397 3422 980 4083 
Q 1563 4744 2578 4744 
Q 2900 4744 3203 4694 
Q 3506 4644 3803 4544 
z
" transform="scale(0.015625)"/>
     </defs>
     <use xlink:href="#DejaVuSans-Bold-19"/>
    </g>
   </g>
   <g id="text_17">
    <!-- Incomplete. -->
    <g style="fill: #0b0b0b" transform="translate(21.564356 257.63055) scale(0.08 -0.08)">
     <defs>
      <path id="DejaVuSans-Bold-2c" d="M 588 4666 
L 1791 4666 
L 1791 0 
L 588 0 
L 588 4666 
z
" transform="scale(0.015625)"/>
      <path id="DejaVuSans-Bold-50" d="M 3781 2919 
Q 3994 3244 4286 3414 
Q 4578 3584 4928 3584 
Q 5531 3584 5847 3212 
Q 6163 2841 6163 2131 
L 6163 0 
L 5038 0 
L 5038 1825 
Q 5041 1866 5042 1909 
Q 5044 1953 5044 2034 
Q 5044 2406 4934 2573 
Q 4825 2741 4581 2741 
Q 4263 2741 4089 2478 
Q 3916 2216 3909 1719 
L 3909 0 
L 2784 0 
L 2784 1825 
Q 2784 2406 2684 2573 
Q 2584 2741 2328 2741 
Q 2006 2741 1831 2477 
Q 1656 2213 1656 1722 
L 1656 0 
L 531 0 
L 531 3500 
L 1656 3500 
L 1656 2988 
Q 1863 3284 2130 3434 
Q 2397 3584 2719 3584 
Q 3081 3584 3359 3409 
Q 3638 3234 3781 2919 
z
" transform="scale(0.015625)"/>
      <path id="DejaVuSans-Bold-53" d="M 1656 506 
L 1656 -1331 
L 538 -1331 
L 538 3500 
L 1656 3500 
L 1656 2988 
Q 1888 3294 2169 3439 
Q 2450 3584 2816 3584 
Q 3463 3584 3878 3070 
Q 4294 2556 4294 1747 
Q 4294 938 3878 423 
Q 3463 -91 2816 -91 
Q 2450 -91 2169 54 
Q 1888 200 1656 506 
z
M 2400 2772 
Q 2041 2772 1848 2508 
Q 1656 2244 1656 1747 
Q 1656 1250 1848 986 
Q 2041 722 2400 722 
Q 2759 722 2948 984 
Q 3138 1247 3138 1747 
Q 3138 2247 2948 2509 
Q 2759 2772 2400 2772 
z
" transform="scale(0.015625)"/>
      <path id="DejaVuSans-Bold-4f" d="M 538 4863 
L 1656 4863 
L 1656 0 
L 538 0 
L 538 4863 
z
" transform="scale(0.015625)"/>
     </defs>
     <use xlink:href="#DejaVuSans-Bold-2c"/>
     <use xlink:href="#DejaVuSans-Bold-51" transform="translate(37.203125 0)"/>
     <use xlink:href="#DejaVuSans-Bold-46" transform="translate(108.390625 0)"/>
     <use xlink:href="#DejaVuSans-Bold-52" transform="translate(167.671875 0)"/>
     <use xlink:href="#DejaVuSans-Bold-50" transform="translate(236.375 0)"/>
     <use xlink:href="#DejaVuSans-Bold-53" transform="translate(340.578125 0)"/>
     <use xlink:href="#DejaVuSans-Bold-4f" transform="translate(412.15625 0)"/>
     <use xlink:href="#DejaVuSans-Bold-48" transform="translate(446.4375 0)"/>
     <use xlink:href="#DejaVuSans-Bold-57" transform="translate(514.265625 0)"/>
     <use xlink:href="#DejaVuSans-Bold-48" transform="translate(562.0625 0)"/>
     <use xlink:href="#DejaVuSans-Bold-11" transform="translate(629.890625 0)"/>
    </g>
   </g>
   <g id="text_18">
    <!-- A receiver's foot on the end line. -->
    <g style="fill: #52514e" transform="translate(21.564356 270.237258) scale(0.072 -0.072)">
     <defs>
      <path id="DejaVuSans-a" d="M 1147 4666 
L 1147 2931 
L 616 2931 
L 616 4666 
L 1147 4666 
z
" transform="scale(0.015625)"/>
     </defs>
     <use xlink:href="#DejaVuSans-24"/>
     <use xlink:href="#DejaVuSans-3" transform="translate(68.40625 0)"/>
     <use xlink:href="#DejaVuSans-55" transform="translate(100.1875 0)"/>
     <use xlink:href="#DejaVuSans-48" transform="translate(139.09375 0)"/>
     <use xlink:href="#DejaVuSans-46" transform="translate(200.625 0)"/>
     <use xlink:href="#DejaVuSans-48" transform="translate(255.609375 0)"/>
     <use xlink:href="#DejaVuSans-4c" transform="translate(317.140625 0)"/>
     <use xlink:href="#DejaVuSans-59" transform="translate(344.921875 0)"/>
     <use xlink:href="#DejaVuSans-48" transform="translate(404.109375 0)"/>
     <use xlink:href="#DejaVuSans-55" transform="translate(465.640625 0)"/>
     <use xlink:href="#DejaVuSans-a" transform="translate(506.75 0)"/>
     <use xlink:href="#DejaVuSans-56" transform="translate(534.234375 0)"/>
     <use xlink:href="#DejaVuSans-3" transform="translate(586.328125 0)"/>
     <use xlink:href="#DejaVuSans-49" transform="translate(618.109375 0)"/>
     <use xlink:href="#DejaVuSans-52" transform="translate(653.3125 0)"/>
     <use xlink:href="#DejaVuSans-52" transform="translate(714.5 0)"/>
     <use xlink:href="#DejaVuSans-57" transform="translate(775.6875 0)"/>
     <use xlink:href="#DejaVuSans-3" transform="translate(814.890625 0)"/>
     <use xlink:href="#DejaVuSans-52" transform="translate(846.671875 0)"/>
     <use xlink:href="#DejaVuSans-51" transform="translate(907.859375 0)"/>
     <use xlink:href="#DejaVuSans-3" transform="translate(971.234375 0)"/>
     <use xlink:href="#DejaVuSans-57" transform="translate(1003.015625 0)"/>
     <use xlink:href="#DejaVuSans-4b" transform="translate(1042.21875 0)"/>
     <use xlink:href="#DejaVuSans-48" transform="translate(1105.59375 0)"/>
     <use xlink:href="#DejaVuSans-3" transform="translate(1167.125 0)"/>
     <use xlink:href="#DejaVuSans-48" transform="translate(1198.90625 0)"/>
     <use xlink:href="#DejaVuSans-51" transform="translate(1260.4375 0)"/>
     <use xlink:href="#DejaVuSans-47" transform="translate(1323.8125 0)"/>
     <use xlink:href="#DejaVuSans-3" transform="translate(1387.296875 0)"/>
     <use xlink:href="#DejaVuSans-4f" transform="translate(1419.078125 0)"/>
     <use xlink:href="#DejaVuSans-4c" transform="translate(1446.859375 0)"/>
     <use xlink:href="#DejaVuSans-51" transform="translate(1474.640625 0)"/>
     <use xlink:href="#DejaVuSans-48" transform="translate(1538.015625 0)"/>
     <use xlink:href="#DejaVuSans-11" transform="translate(1599.546875 0)"/>
    </g>
    <!-- The end line is out of bounds. -->
    <g style="fill: #52514e" transform="translate(21.564356 278.877258) scale(0.072 -0.072)">
     <use xlink:href="#DejaVuSans-37"/>
     <use xlink:href="#DejaVuSans-4b" transform="translate(61.078125 0)"/>
     <use xlink:href="#DejaVuSans-48" transform="translate(124.453125 0)"/>
     <use xlink:href="#DejaVuSans-3" transform="translate(185.984375 0)"/>
     <use xlink:href="#DejaVuSans-48" transform="translate(217.765625 0)"/>
     <use xlink:href="#DejaVuSans-51" transform="translate(279.296875 0)"/>
     <use xlink:href="#DejaVuSans-47" transform="translate(342.671875 0)"/>
     <use xlink:href="#DejaVuSans-3" transform="translate(406.15625 0)"/>
     <use xlink:href="#DejaVuSans-4f" transform="translate(437.9375 0)"/>
     <use xlink:href="#DejaVuSans-4c" transform="translate(465.71875 0)"/>
     <use xlink:href="#DejaVuSans-51" transform="translate(493.5 0)"/>
     <use xlink:href="#DejaVuSans-48" transform="translate(556.875 0)"/>
     <use xlink:href="#DejaVuSans-3" transform="translate(618.40625 0)"/>
     <use xlink:href="#DejaVuSans-4c" transform="translate(650.1875 0)"/>
     <use xlink:href="#DejaVuSans-56" transform="translate(677.96875 0)"/>
     <use xlink:href="#DejaVuSans-3" transform="translate(730.0625 0)"/>
     <use xlink:href="#DejaVuSans-52" transform="translate(761.84375 0)"/>
     <use xlink:href="#DejaVuSans-58" transform="translate(823.03125 0)"/>
     <use xlink:href="#DejaVuSans-57" transform="translate(886.40625 0)"/>
     <use xlink:href="#DejaVuSans-3" transform="translate(925.609375 0)"/>
     <use xlink:href="#DejaVuSans-52" transform="translate(957.390625 0)"/>
     <use xlink:href="#DejaVuSans-49" transform="translate(1018.578125 0)"/>
     <use xlink:href="#DejaVuSans-3" transform="translate(1053.78125 0)"/>
     <use xlink:href="#DejaVuSans-45" transform="translate(1085.5625 0)"/>
     <use xlink:href="#DejaVuSans-52" transform="translate(1149.046875 0)"/>
     <use xlink:href="#DejaVuSans-58" transform="translate(1210.234375 0)"/>
     <use xlink:href="#DejaVuSans-51" transform="translate(1273.609375 0)"/>
     <use xlink:href="#DejaVuSans-47" transform="translate(1336.984375 0)"/>
     <use xlink:href="#DejaVuSans-56" transform="translate(1400.46875 0)"/>
     <use xlink:href="#DejaVuSans-11" transform="translate(1452.5625 0)"/>
    </g>
   </g>
  </g>
  <g id="axes_2">
   <g id="patch_8">
    <path d="M -98.525966 1027.347639 
L 357.182553 1027.347639 
L 357.182553 41.745493 
L -98.525966 41.745493 
z
" clip-path="url(#p18c6bb05f5)" style="fill: #d9d8d0"/>
   </g>
   <g id="patch_9">
    <path d="M -82.629157 216.61039 
L 341.285744 216.61039 
L 341.285744 57.642302 
L -82.629157 57.642302 
z
" clip-path="url(#p18c6bb05f5)" style="fill: #f3f6ef; stroke: #c3c2b7; stroke-linejoin: miter"/>
   </g>
   <g id="patch_10">
    <path d="M -82.629157 137.126346 
L 341.285744 137.126346 
L 341.285744 57.642302 
L -82.629157 57.642302 
z
" clip-path="url(#p18c6bb05f5)" style="fill: #e1e0d9; opacity: 0.6"/>
   </g>
   <g id="line2d_1">
    <path d="M 341.285744 216.61039 
L -1 216.61039 
" clip-path="url(#p18c6bb05f5)" style="fill: none; stroke: #c3c2b7; stroke-width: 0.8; stroke-linecap: square"/>
   </g>
   <g id="line2d_2">
    <path d="M 341.285744 176.868368 
L -1 176.868368 
" clip-path="url(#p18c6bb05f5)" style="fill: none; stroke: #c3c2b7; stroke-width: 0.5; stroke-linecap: square"/>
   </g>
   <g id="line2d_3">
    <path d="M 341.285744 137.126346 
L -1 137.126346 
" clip-path="url(#p18c6bb05f5)" style="fill: none; stroke: #c3c2b7; stroke-width: 1.1; stroke-linecap: square"/>
   </g>
   <g id="line2d_4">
    <path d="M 156.617815 208.661986 
L 151.053932 208.661986 
" clip-path="url(#p18c6bb05f5)" style="fill: none; stroke: #c3c2b7; stroke-width: 0.5; stroke-linecap: square"/>
   </g>
   <g id="line2d_5">
    <path d="M 107.602655 208.661986 
L 102.038772 208.661986 
" clip-path="url(#p18c6bb05f5)" style="fill: none; stroke: #c3c2b7; stroke-width: 0.5; stroke-linecap: square"/>
   </g>
   <g id="line2d_6">
    <path d="M 342.080585 208.661986 
L 337.311542 208.661986 
" clip-path="url(#p18c6bb05f5)" style="fill: none; stroke: #c3c2b7; stroke-width: 0.5; stroke-linecap: square"/>
   </g>
   <g id="line2d_7">
    <path clip-path="url(#p18c6bb05f5)" style="fill: none; stroke: #c3c2b7; stroke-width: 0.5; stroke-linecap: square"/>
   </g>
   <g id="line2d_8">
    <path d="M 156.617815 200.713581 
L 151.053932 200.713581 
" clip-path="url(#p18c6bb05f5)" style="fill: none; stroke: #c3c2b7; stroke-width: 0.5; stroke-linecap: square"/>
   </g>
   <g id="line2d_9">
    <path d="M 107.602655 200.713581 
L 102.038772 200.713581 
" clip-path="url(#p18c6bb05f5)" style="fill: none; stroke: #c3c2b7; stroke-width: 0.5; stroke-linecap: square"/>
   </g>
   <g id="line2d_10">
    <path d="M 342.080585 200.713581 
L 337.311542 200.713581 
" clip-path="url(#p18c6bb05f5)" style="fill: none; stroke: #c3c2b7; stroke-width: 0.5; stroke-linecap: square"/>
   </g>
   <g id="line2d_11">
    <path clip-path="url(#p18c6bb05f5)" style="fill: none; stroke: #c3c2b7; stroke-width: 0.5; stroke-linecap: square"/>
   </g>
   <g id="line2d_12">
    <path d="M 156.617815 192.765177 
L 151.053932 192.765177 
" clip-path="url(#p18c6bb05f5)" style="fill: none; stroke: #c3c2b7; stroke-width: 0.5; stroke-linecap: square"/>
   </g>
   <g id="line2d_13">
    <path d="M 107.602655 192.765177 
L 102.038772 192.765177 
" clip-path="url(#p18c6bb05f5)" style="fill: none; stroke: #c3c2b7; stroke-width: 0.5; stroke-linecap: square"/>
   </g>
   <g id="line2d_14">
    <path d="M 342.080585 192.765177 
L 337.311542 192.765177 
" clip-path="url(#p18c6bb05f5)" style="fill: none; stroke: #c3c2b7; stroke-width: 0.5; stroke-linecap: square"/>
   </g>
   <g id="line2d_15">
    <path clip-path="url(#p18c6bb05f5)" style="fill: none; stroke: #c3c2b7; stroke-width: 0.5; stroke-linecap: square"/>
   </g>
   <g id="line2d_16">
    <path d="M 156.617815 184.816772 
L 151.053932 184.816772 
" clip-path="url(#p18c6bb05f5)" style="fill: none; stroke: #c3c2b7; stroke-width: 0.5; stroke-linecap: square"/>
   </g>
   <g id="line2d_17">
    <path d="M 107.602655 184.816772 
L 102.038772 184.816772 
" clip-path="url(#p18c6bb05f5)" style="fill: none; stroke: #c3c2b7; stroke-width: 0.5; stroke-linecap: square"/>
   </g>
   <g id="line2d_18">
    <path d="M 342.080585 184.816772 
L 337.311542 184.816772 
" clip-path="url(#p18c6bb05f5)" style="fill: none; stroke: #c3c2b7; stroke-width: 0.5; stroke-linecap: square"/>
   </g>
   <g id="line2d_19">
    <path clip-path="url(#p18c6bb05f5)" style="fill: none; stroke: #c3c2b7; stroke-width: 0.5; stroke-linecap: square"/>
   </g>
   <g id="line2d_20">
    <path d="M 156.617815 168.919964 
L 151.053932 168.919964 
" clip-path="url(#p18c6bb05f5)" style="fill: none; stroke: #c3c2b7; stroke-width: 0.5; stroke-linecap: square"/>
   </g>
   <g id="line2d_21">
    <path d="M 107.602655 168.919964 
L 102.038772 168.919964 
" clip-path="url(#p18c6bb05f5)" style="fill: none; stroke: #c3c2b7; stroke-width: 0.5; stroke-linecap: square"/>
   </g>
   <g id="line2d_22">
    <path d="M 342.080585 168.919964 
L 337.311542 168.919964 
" clip-path="url(#p18c6bb05f5)" style="fill: none; stroke: #c3c2b7; stroke-width: 0.5; stroke-linecap: square"/>
   </g>
   <g id="line2d_23">
    <path clip-path="url(#p18c6bb05f5)" style="fill: none; stroke: #c3c2b7; stroke-width: 0.5; stroke-linecap: square"/>
   </g>
   <g id="line2d_24">
    <path d="M 156.617815 160.971559 
L 151.053932 160.971559 
" clip-path="url(#p18c6bb05f5)" style="fill: none; stroke: #c3c2b7; stroke-width: 0.5; stroke-linecap: square"/>
   </g>
   <g id="line2d_25">
    <path d="M 107.602655 160.971559 
L 102.038772 160.971559 
" clip-path="url(#p18c6bb05f5)" style="fill: none; stroke: #c3c2b7; stroke-width: 0.5; stroke-linecap: square"/>
   </g>
   <g id="line2d_26">
    <path d="M 342.080585 160.971559 
L 337.311542 160.971559 
" clip-path="url(#p18c6bb05f5)" style="fill: none; stroke: #c3c2b7; stroke-width: 0.5; stroke-linecap: square"/>
   </g>
   <g id="line2d_27">
    <path clip-path="url(#p18c6bb05f5)" style="fill: none; stroke: #c3c2b7; stroke-width: 0.5; stroke-linecap: square"/>
   </g>
   <g id="line2d_28">
    <path d="M 156.617815 153.023155 
L 151.053932 153.023155 
" clip-path="url(#p18c6bb05f5)" style="fill: none; stroke: #c3c2b7; stroke-width: 0.5; stroke-linecap: square"/>
   </g>
   <g id="line2d_29">
    <path d="M 107.602655 153.023155 
L 102.038772 153.023155 
" clip-path="url(#p18c6bb05f5)" style="fill: none; stroke: #c3c2b7; stroke-width: 0.5; stroke-linecap: square"/>
   </g>
   <g id="line2d_30">
    <path d="M 342.080585 153.023155 
L 337.311542 153.023155 
" clip-path="url(#p18c6bb05f5)" style="fill: none; stroke: #c3c2b7; stroke-width: 0.5; stroke-linecap: square"/>
   </g>
   <g id="line2d_31">
    <path clip-path="url(#p18c6bb05f5)" style="fill: none; stroke: #c3c2b7; stroke-width: 0.5; stroke-linecap: square"/>
   </g>
   <g id="line2d_32">
    <path d="M 156.617815 145.07475 
L 151.053932 145.07475 
" clip-path="url(#p18c6bb05f5)" style="fill: none; stroke: #c3c2b7; stroke-width: 0.5; stroke-linecap: square"/>
   </g>
   <g id="line2d_33">
    <path d="M 107.602655 145.07475 
L 102.038772 145.07475 
" clip-path="url(#p18c6bb05f5)" style="fill: none; stroke: #c3c2b7; stroke-width: 0.5; stroke-linecap: square"/>
   </g>
   <g id="line2d_34">
    <path d="M 342.080585 145.07475 
L 337.311542 145.07475 
" clip-path="url(#p18c6bb05f5)" style="fill: none; stroke: #c3c2b7; stroke-width: 0.5; stroke-linecap: square"/>
   </g>
   <g id="line2d_35">
    <path clip-path="url(#p18c6bb05f5)" style="fill: none; stroke: #c3c2b7; stroke-width: 0.5; stroke-linecap: square"/>
   </g>
   <g id="line2d_36">
    <path d="M 341.285744 137.126346 
L 174.369252 137.126346 
" clip-path="url(#p18c6bb05f5)" style="fill: none; stroke: #52514e; stroke-width: 2.2; stroke-linecap: square"/>
   </g>
   <g id="text_19">
    <g clip-path="url(#p18c6bb05f5)">
     <!-- out of bounds -->
     <g style="fill: #52514e" transform="translate(362.448065 215.213536) rotate(-90) scale(0.065 -0.065)">
      <use xlink:href="#DejaVuSans-52"/>
      <use xlink:href="#DejaVuSans-58" transform="translate(61.1875 0)"/>
      <use xlink:href="#DejaVuSans-57" transform="translate(124.5625 0)"/>
      <use xlink:href="#DejaVuSans-3" transform="translate(163.765625 0)"/>
      <use xlink:href="#DejaVuSans-52" transform="translate(195.546875 0)"/>
      <use xlink:href="#DejaVuSans-49" transform="translate(256.734375 0)"/>
      <use xlink:href="#DejaVuSans-3" transform="translate(291.9375 0)"/>
      <use xlink:href="#DejaVuSans-45" transform="translate(323.71875 0)"/>
      <use xlink:href="#DejaVuSans-52" transform="translate(387.203125 0)"/>
      <use xlink:href="#DejaVuSans-58" transform="translate(448.390625 0)"/>
      <use xlink:href="#DejaVuSans-51" transform="translate(511.765625 0)"/>
      <use xlink:href="#DejaVuSans-47" transform="translate(575.140625 0)"/>
      <use xlink:href="#DejaVuSans-56" transform="translate(638.625 0)"/>
     </g>
    </g>
   </g>
   <g id="text_20">
    <g clip-path="url(#p18c6bb05f5)">
     <!-- out of bounds -->
     <g style="fill: #52514e" transform="translate(223.456532 47.408426) scale(0.065 -0.065)">
      <use xlink:href="#DejaVuSans-52"/>
      <use xlink:href="#DejaVuSans-58" transform="translate(61.1875 0)"/>
      <use xlink:href="#DejaVuSans-57" transform="translate(124.5625 0)"/>
      <use xlink:href="#DejaVuSans-3" transform="translate(163.765625 0)"/>
      <use xlink:href="#DejaVuSans-52" transform="translate(195.546875 0)"/>
      <use xlink:href="#DejaVuSans-49" transform="translate(256.734375 0)"/>
      <use xlink:href="#DejaVuSans-3" transform="translate(291.9375 0)"/>
      <use xlink:href="#DejaVuSans-45" transform="translate(323.71875 0)"/>
      <use xlink:href="#DejaVuSans-52" transform="translate(387.203125 0)"/>
      <use xlink:href="#DejaVuSans-58" transform="translate(448.390625 0)"/>
      <use xlink:href="#DejaVuSans-51" transform="translate(511.765625 0)"/>
      <use xlink:href="#DejaVuSans-47" transform="translate(575.140625 0)"/>
      <use xlink:href="#DejaVuSans-56" transform="translate(638.625 0)"/>
     </g>
    </g>
   </g>
   <g id="text_21">
    <g clip-path="url(#p18c6bb05f5)">
     <!-- END ZONE -->
     <g style="fill: #898781; opacity: 0.6" transform="translate(214.040126 100.241746) scale(0.11 -0.11)">
      <defs>
       <path id="DejaVuSans-Bold-28" d="M 588 4666 
L 3834 4666 
L 3834 3756 
L 1791 3756 
L 1791 2888 
L 3713 2888 
L 3713 1978 
L 1791 1978 
L 1791 909 
L 3903 909 
L 3903 0 
L 588 0 
L 588 4666 
z
" transform="scale(0.015625)"/>
       <path id="DejaVuSans-Bold-27" d="M 1791 3756 
L 1791 909 
L 2222 909 
Q 2959 909 3348 1275 
Q 3738 1641 3738 2338 
Q 3738 3031 3350 3393 
Q 2963 3756 2222 3756 
L 1791 3756 
z
M 588 4666 
L 1856 4666 
Q 2919 4666 3439 4514 
Q 3959 4363 4331 4000 
Q 4659 3684 4818 3271 
Q 4978 2859 4978 2338 
Q 4978 1809 4818 1395 
Q 4659 981 4331 666 
Q 3956 303 3431 151 
Q 2906 0 1856 0 
L 588 0 
L 588 4666 
z
" transform="scale(0.015625)"/>
       <path id="DejaVuSans-Bold-3d" d="M 359 4666 
L 4281 4666 
L 4281 3938 
L 1778 909 
L 4353 909 
L 4353 0 
L 288 0 
L 288 728 
L 2791 3756 
L 359 3756 
L 359 4666 
z
" transform="scale(0.015625)"/>
      </defs>
      <use xlink:href="#DejaVuSans-Bold-28"/>
      <use xlink:href="#DejaVuSans-Bold-31" transform="translate(68.3125 0)"/>
      <use xlink:href="#DejaVuSans-Bold-27" transform="translate(152 0)"/>
      <use xlink:href="#DejaVuSans-Bold-3" transform="translate(235.015625 0)"/>
      <use xlink:href="#DejaVuSans-Bold-3d" transform="translate(269.828125 0)"/>
      <use xlink:href="#DejaVuSans-Bold-32" transform="translate(342.34375 0)"/>
      <use xlink:href="#DejaVuSans-Bold-31" transform="translate(427.359375 0)"/>
      <use xlink:href="#DejaVuSans-Bold-28" transform="translate(511.046875 0)"/>
     </g>
    </g>
   </g>
   <g id="text_22">
    <g clip-path="url(#p18c6bb05f5)">
     <!-- field of play -->
     <g style="fill: #898781" transform="translate(194.586726 159.075794) scale(0.08 -0.08)">
      <defs>
       <path id="DejaVuSans-13af" d="M 3431 3500 
L 3431 0 
L 2853 0 
L 2853 3053 
L 1275 3053 
L 1275 0 
L 697 0 
L 697 3053 
L 147 3053 
L 147 3500 
L 697 3500 
L 697 3744 
Q 697 4316 967 4589 
Q 1238 4863 1797 4863 
L 2375 4863 
L 2375 4384 
L 1825 4384 
Q 1516 4384 1395 4259 
Q 1275 4134 1275 3809 
L 1275 3500 
L 3431 3500 
z
M 2853 4856 
L 3431 4856 
L 3431 4128 
L 2853 4128 
L 2853 4856 
z
" transform="scale(0.015625)"/>
      </defs>
      <use xlink:href="#DejaVuSans-13af"/>
      <use xlink:href="#DejaVuSans-48" transform="translate(62.984375 0)"/>
      <use xlink:href="#DejaVuSans-4f" transform="translate(124.515625 0)"/>
      <use xlink:href="#DejaVuSans-47" transform="translate(152.296875 0)"/>
      <use xlink:href="#DejaVuSans-3" transform="translate(215.78125 0)"/>
      <use xlink:href="#DejaVuSans-52" transform="translate(247.5625 0)"/>
      <use xlink:href="#DejaVuSans-49" transform="translate(308.75 0)"/>
      <use xlink:href="#DejaVuSans-3" transform="translate(343.953125 0)"/>
      <use xlink:href="#DejaVuSans-53" transform="translate(375.734375 0)"/>
      <use xlink:href="#DejaVuSans-4f" transform="translate(439.21875 0)"/>
      <use xlink:href="#DejaVuSans-44" transform="translate(467 0)"/>
      <use xlink:href="#DejaVuSans-5c" transform="translate(528.28125 0)"/>
     </g>
    </g>
   </g>
   <g id="text_23">
    <g clip-path="url(#p18c6bb05f5)">
     <!-- goal line -->
     <g style="fill: #52514e" transform="translate(177.548613 144.449852) scale(0.065 -0.065)">
      <use xlink:href="#DejaVuSans-4a"/>
      <use xlink:href="#DejaVuSans-52" transform="translate(63.484375 0)"/>
      <use xlink:href="#DejaVuSans-44" transform="translate(124.671875 0)"/>
      <use xlink:href="#DejaVuSans-4f" transform="translate(185.953125 0)"/>
      <use xlink:href="#DejaVuSans-3" transform="translate(213.734375 0)"/>
      <use xlink:href="#DejaVuSans-4f" transform="translate(245.515625 0)"/>
      <use xlink:href="#DejaVuSans-4c" transform="translate(273.296875 0)"/>
      <use xlink:href="#DejaVuSans-51" transform="translate(301.078125 0)"/>
      <use xlink:href="#DejaVuSans-48" transform="translate(364.453125 0)"/>
     </g>
    </g>
   </g>
   <g id="text_24">
    <g clip-path="url(#p18c6bb05f5)">
     <!-- sideline -->
     <g style="fill: #52514e" transform="translate(335.820911 208.661986) rotate(-90) scale(0.065 -0.065)">
      <use xlink:href="#DejaVuSans-56"/>
      <use xlink:href="#DejaVuSans-4c" transform="translate(52.09375 0)"/>
      <use xlink:href="#DejaVuSans-47" transform="translate(79.875 0)"/>
      <use xlink:href="#DejaVuSans-48" transform="translate(143.359375 0)"/>
      <use xlink:href="#DejaVuSans-4f" transform="translate(204.890625 0)"/>
      <use xlink:href="#DejaVuSans-4c" transform="translate(232.671875 0)"/>
      <use xlink:href="#DejaVuSans-51" transform="translate(260.453125 0)"/>
      <use xlink:href="#DejaVuSans-48" transform="translate(323.828125 0)"/>
     </g>
    </g>
   </g>
   <g id="patch_11">
    <path d="M 337.708962 140.703128 
L 344.862526 140.703128 
L 344.862526 133.549564 
L 337.708962 133.549564 
z
" clip-path="url(#p18c6bb05f5)" style="fill: #f07d1a; stroke: #ffffff; stroke-width: 0.4; stroke-linejoin: miter"/>
   </g>
   <g id="patch_12">
    <path d="M -86.205939 140.703128 
L -79.052375 140.703128 
L -79.052375 133.549564 
L -86.205939 133.549564 
z
" clip-path="url(#p18c6bb05f5)" style="fill: #f07d1a; stroke: #ffffff; stroke-width: 0.4; stroke-linejoin: miter"/>
   </g>
   <g id="patch_13">
    <path d="M 337.708962 61.219084 
L 344.862526 61.219084 
L 344.862526 54.06552 
L 337.708962 54.06552 
z
" clip-path="url(#p18c6bb05f5)" style="fill: #f07d1a; stroke: #ffffff; stroke-width: 0.4; stroke-linejoin: miter"/>
   </g>
   <g id="patch_14">
    <path d="M -86.205939 61.219084 
L -79.052375 61.219084 
L -79.052375 54.06552 
L -86.205939 54.06552 
z
" clip-path="url(#p18c6bb05f5)" style="fill: #f07d1a; stroke: #ffffff; stroke-width: 0.4; stroke-linejoin: miter"/>
   </g>
   <g id="patch_15">
    <path d="M 305.517924 137.921186 
C 307.204278 137.921186 308.821789 137.251191 310.014221 136.058759 
C 311.206653 134.866328 311.876648 133.248816 311.876648 131.562463 
C 311.876648 129.87611 311.206653 128.258598 310.014221 127.066166 
C 308.821789 125.873735 307.204278 125.203739 305.517924 125.203739 
C 303.831571 125.203739 302.21406 125.873735 301.021628 127.066166 
C 299.829196 128.258598 299.159201 129.87611 299.159201 131.562463 
C 299.159201 133.248816 299.829196 134.866328 301.021628 136.058759 
C 302.21406 137.251191 303.831571 137.921186 305.517924 137.921186 
z
" clip-path="url(#p18c6bb05f5)" style="fill: #2a78d6; stroke: #ffffff; stroke-width: 0.8; stroke-linejoin: miter"/>
   </g>
   <g id="patch_16">
    <path d="M 276.802424 146.859205 
Q 287.362672 139.633772 297.922919 132.40834 
" style="fill: none; stroke: #52514e; stroke-width: 0.7; stroke-linecap: round"/>
   </g>
   <g id="text_25">
    <g id="patch_17">
     <path d="M 250.077233 157.033314 
L 287.833295 157.033314 
Q 289.073295 157.033314 289.073295 155.793314 
L 289.073295 148.663314 
Q 289.073295 147.423314 287.833295 147.423314 
L 250.077233 147.423314 
Q 248.837233 147.423314 248.837233 148.663314 
L 248.837233 155.793314 
Q 248.837233 157.033314 250.077233 157.033314 
z
" style="fill: #fcfcfb"/>
    </g>
    <!-- his shoulder -->
    <g style="fill: #0b0b0b" transform="translate(250.077233 154.539752) scale(0.062 -0.062)">
     <use xlink:href="#DejaVuSans-4b"/>
     <use xlink:href="#DejaVuSans-4c" transform="translate(63.375 0)"/>
     <use xlink:href="#DejaVuSans-56" transform="translate(91.15625 0)"/>
     <use xlink:href="#DejaVuSans-3" transform="translate(143.25 0)"/>
     <use xlink:href="#DejaVuSans-56" transform="translate(175.03125 0)"/>
     <use xlink:href="#DejaVuSans-4b" transform="translate(227.125 0)"/>
     <use xlink:href="#DejaVuSans-52" transform="translate(290.5 0)"/>
     <use xlink:href="#DejaVuSans-58" transform="translate(351.6875 0)"/>
     <use xlink:href="#DejaVuSans-4f" transform="translate(415.0625 0)"/>
     <use xlink:href="#DejaVuSans-47" transform="translate(442.84375 0)"/>
     <use xlink:href="#DejaVuSans-48" transform="translate(506.328125 0)"/>
     <use xlink:href="#DejaVuSans-55" transform="translate(567.859375 0)"/>
    </g>
   </g>
   <g id="patch_18">
    <path d="M 225.63646 134.344404 
C 225.63646 132.763448 225.259588 131.247031 224.588845 130.129126 
C 223.918102 129.011222 223.008252 128.383101 222.059678 128.383101 
C 221.111104 128.383101 220.201254 129.011222 219.530511 130.129126 
C 218.859768 131.247031 218.482896 132.763448 218.482896 134.344404 
C 218.482896 135.925361 218.859768 137.441778 219.530511 138.559682 
C 220.201254 139.677587 221.111104 140.305708 222.059678 140.305708 
C 223.008252 140.305708 223.918102 139.677587 224.588845 138.559682 
C 225.259588 137.441778 225.63646 135.925361 225.63646 134.344404 
z
" clip-path="url(#p18c6bb05f5)" style="fill: #7a4a21; stroke: #ffffff; stroke-width: 0.8; stroke-linejoin: miter"/>
   </g>
   <g id="patch_19">
    <path d="M 269.352684 137.126346 
C 269.352684 135.54539 268.975812 134.028973 268.305069 132.911068 
C 267.634326 131.793163 266.724476 131.165043 265.775902 131.165043 
C 264.827329 131.165043 263.917478 131.793163 263.246736 132.911068 
C 262.575993 134.028973 262.19912 135.54539 262.19912 137.126346 
C 262.19912 138.707302 262.575993 140.223719 263.246736 141.341624 
C 263.917478 142.459529 264.827329 143.087649 265.775902 143.087649 
C 266.724476 143.087649 267.634326 142.459529 268.305069 141.341624 
C 268.975812 140.223719 269.352684 138.707302 269.352684 137.126346 
z
" clip-path="url(#p18c6bb05f5)" style="fill: #7a4a21; stroke: #ffffff; stroke-width: 0.8; stroke-linejoin: miter"/>
   </g>
   <g id="patch_20">
    <path d="M 309.094706 143.087649 
C 309.094706 141.506693 308.717834 139.990276 308.047091 138.872371 
C 307.376348 137.754466 306.466498 137.126346 305.517924 137.126346 
C 304.569351 137.126346 303.6595 137.754466 302.988758 138.872371 
C 302.318015 139.990276 301.941142 141.506693 301.941142 143.087649 
C 301.941142 144.668605 302.318015 146.185022 302.988758 147.302927 
C 303.6595 148.420832 304.569351 149.048953 305.517924 149.048953 
C 306.466498 149.048953 307.376348 148.420832 308.047091 147.302927 
C 308.717834 146.185022 309.094706 144.668605 309.094706 143.087649 
z
" clip-path="url(#p18c6bb05f5)" style="fill: #7a4a21; stroke: #ffffff; stroke-width: 0.8; stroke-linejoin: miter"/>
   </g>
   <g id="patch_21">
    <path d="M 341.601387 136.530216 
C 342.391865 135.161067 342.823692 133.659376 342.801764 132.35587 
C 342.779836 131.052365 342.305943 130.053471 341.484454 129.579185 
C 340.662965 129.104898 339.560952 129.193941 338.421119 129.826703 
C 337.281286 130.459466 336.196697 131.584285 335.406219 132.953434 
C 334.61574 134.322582 334.183913 135.824274 334.205841 137.127779 
C 334.227769 138.431284 334.701662 139.430178 335.523151 139.904465 
C 336.34464 140.378752 337.446654 140.289708 338.586486 139.656946 
C 339.726319 139.024183 340.810909 137.899364 341.601387 136.530216 
z
" clip-path="url(#p18c6bb05f5)" style="fill: #7a4a21; stroke: #ffffff; stroke-width: 0.8; stroke-linejoin: miter"/>
   </g>
   <g id="patch_22">
    <path d="M 341.285744 175.278687 
C 342.234318 175.278687 343.144168 174.608692 343.814911 173.41626 
C 344.485654 172.223828 344.862526 170.606317 344.862526 168.919964 
C 344.862526 167.23361 344.485654 165.616099 343.814911 164.423667 
C 343.144168 163.231235 342.234318 162.56124 341.285744 162.56124 
C 340.33717 162.56124 339.42732 163.231235 338.756577 164.423667 
C 338.085834 165.616099 337.708962 167.23361 337.708962 168.919964 
C 337.708962 170.606317 338.085834 172.223828 338.756577 173.41626 
C 339.42732 174.608692 340.33717 175.278687 341.285744 175.278687 
z
" clip-path="url(#p18c6bb05f5)" style="fill: #0b0b0b; stroke: #ffffff; stroke-width: 0.6; stroke-linejoin: miter"/>
   </g>
   <g id="patch_23">
    <path d="M 293.595318 64.001025 
C 294.543891 64.001025 295.453742 63.33103 296.124485 62.138598 
C 296.795227 60.946167 297.1721 59.328655 297.1721 57.642302 
C 297.1721 55.955949 296.795227 54.338437 296.124485 53.146005 
C 295.453742 51.953574 294.543891 51.283578 293.595318 51.283578 
C 292.646744 51.283578 291.736894 51.953574 291.066151 53.146005 
C 290.395408 54.338437 290.018536 55.955949 290.018536 57.642302 
C 290.018536 59.328655 290.395408 60.946167 291.066151 62.138598 
C 291.736894 63.33103 292.646744 64.001025 293.595318 64.001025 
z
" clip-path="url(#p18c6bb05f5)" style="fill: #0b0b0b; stroke: #ffffff; stroke-width: 0.6; stroke-linejoin: miter"/>
   </g>
   <g id="text_26">
    <g id="patch_24">
     <path d="M 209.342231 126.272117 
C 210.784936 126.272117 212.168746 125.698924 213.188892 124.678778 
C 214.209038 123.658631 214.782231 122.274822 214.782231 120.832117 
C 214.782231 119.389412 214.209038 118.005602 213.188892 116.985456 
C 212.168746 115.96531 210.784936 115.392117 209.342231 115.392117 
C 207.899526 115.392117 206.515717 115.96531 205.49557 116.985456 
C 204.475424 118.005602 203.902231 119.389412 203.902231 120.832117 
C 203.902231 122.274822 204.475424 123.658631 205.49557 124.678778 
C 206.515717 125.698924 207.899526 126.272117 209.342231 126.272117 
z
" clip-path="url(#p18c6bb05f5)" style="fill: #1baf7a"/>
    </g>
    <g clip-path="url(#p18c6bb05f5)">
     <!-- 1 -->
     <g style="fill: #ffffff" transform="translate(206.559106 122.910242) scale(0.08 -0.08)">
      <use xlink:href="#DejaVuSans-Bold-14"/>
     </g>
    </g>
   </g>
   <g id="text_27">
    <g id="patch_25">
     <path d="M 253.058455 129.054058 
C 254.50116 129.054058 255.88497 128.480866 256.905116 127.460719 
C 257.925263 126.440573 258.498455 125.056763 258.498455 123.614058 
C 258.498455 122.171354 257.925263 120.787544 256.905116 119.767398 
C 255.88497 118.747251 254.50116 118.174058 253.058455 118.174058 
C 251.61575 118.174058 250.231941 118.747251 249.211794 119.767398 
C 248.191648 120.787544 247.618455 122.171354 247.618455 123.614058 
C 247.618455 125.056763 248.191648 126.440573 249.211794 127.460719 
C 250.231941 128.480866 251.61575 129.054058 253.058455 129.054058 
z
" clip-path="url(#p18c6bb05f5)" style="fill: #1baf7a"/>
    </g>
    <g clip-path="url(#p18c6bb05f5)">
     <!-- 2 -->
     <g style="fill: #ffffff" transform="translate(250.27533 125.692183) scale(0.08 -0.08)">
      <use xlink:href="#DejaVuSans-Bold-15"/>
     </g>
    </g>
   </g>
   <g id="text_28">
    <g id="patch_26">
     <path d="M 305.517924 164.424458 
C 306.960629 164.424458 308.344439 163.851265 309.364585 162.831119 
C 310.384732 161.810973 310.957924 160.427163 310.957924 158.984458 
C 310.957924 157.541753 310.384732 156.157944 309.364585 155.137797 
C 308.344439 154.117651 306.960629 153.544458 305.517924 153.544458 
C 304.075219 153.544458 302.69141 154.117651 301.671263 155.137797 
C 300.651117 156.157944 300.077924 157.541753 300.077924 158.984458 
C 300.077924 160.427163 300.651117 161.810973 301.671263 162.831119 
C 302.69141 163.851265 304.075219 164.424458 305.517924 164.424458 
z
" clip-path="url(#p18c6bb05f5)" style="fill: #b84a1f"/>
    </g>
    <g clip-path="url(#p18c6bb05f5)">
     <!-- 3 -->
     <g style="fill: #ffffff" transform="translate(302.734799 161.062583) scale(0.08 -0.08)">
      <use xlink:href="#DejaVuSans-Bold-16"/>
     </g>
    </g>
   </g>
   <g id="text_29">
    <g id="patch_27">
     <path d="M 330.555398 124.285016 
C 331.998103 124.285016 333.381913 123.711823 334.402059 122.691677 
C 335.422205 121.67153 335.995398 120.287721 335.995398 118.845016 
C 335.995398 117.402311 335.422205 116.018501 334.402059 114.998355 
C 333.381913 113.978209 331.998103 113.405016 330.555398 113.405016 
C 329.112693 113.405016 327.728884 113.978209 326.708737 114.998355 
C 325.688591 116.018501 325.115398 117.402311 325.115398 118.845016 
C 325.115398 120.287721 325.688591 121.67153 326.708737 122.691677 
C 327.728884 123.711823 329.112693 124.285016 330.555398 124.285016 
z
" clip-path="url(#p18c6bb05f5)" style="fill: #1baf7a"/>
    </g>
    <g clip-path="url(#p18c6bb05f5)">
     <!-- 4 -->
     <g style="fill: #ffffff" transform="translate(327.772273 120.923141) scale(0.08 -0.08)">
      <use xlink:href="#DejaVuSans-Bold-17"/>
     </g>
    </g>
   </g>
   <g id="text_30">
    <g id="patch_28">
     <path d="M 325.388935 174.359964 
C 326.83164 174.359964 328.21545 173.786771 329.235596 172.766624 
C 330.255743 171.746478 330.828935 170.362668 330.828935 168.919964 
C 330.828935 167.477259 330.255743 166.093449 329.235596 165.073303 
C 328.21545 164.053156 326.83164 163.479964 325.388935 163.479964 
C 323.94623 163.479964 322.562421 164.053156 321.542274 165.073303 
C 320.522128 166.093449 319.948935 167.477259 319.948935 168.919964 
C 319.948935 170.362668 320.522128 171.746478 321.542274 172.766624 
C 322.562421 173.786771 323.94623 174.359964 325.388935 174.359964 
z
" clip-path="url(#p18c6bb05f5)" style="fill: #b84a1f"/>
    </g>
    <g clip-path="url(#p18c6bb05f5)">
     <!-- 5 -->
     <g style="fill: #ffffff" transform="translate(322.60581 170.998089) scale(0.08 -0.08)">
      <use xlink:href="#DejaVuSans-Bold-18"/>
     </g>
    </g>
   </g>
   <g id="text_31">
    <g id="patch_29">
     <path d="M 277.698509 63.082302 
C 279.141214 63.082302 280.525023 62.509109 281.54517 61.488963 
C 282.565316 60.468816 283.138509 59.085007 283.138509 57.642302 
C 283.138509 56.199597 282.565316 54.815787 281.54517 53.795641 
C 280.525023 52.775495 279.141214 52.202302 277.698509 52.202302 
C 276.255804 52.202302 274.871994 52.775495 273.851848 53.795641 
C 272.831702 54.815787 272.258509 56.199597 272.258509 57.642302 
C 272.258509 59.085007 272.831702 60.468816 273.851848 61.488963 
C 274.871994 62.509109 276.255804 63.082302 277.698509 63.082302 
z
" clip-path="url(#p18c6bb05f5)" style="fill: #b84a1f"/>
    </g>
    <g clip-path="url(#p18c6bb05f5)">
     <!-- 6 -->
     <g style="fill: #ffffff" transform="translate(274.915384 59.720427) scale(0.08 -0.08)">
      <use xlink:href="#DejaVuSans-Bold-19"/>
     </g>
    </g>
   </g>
  </g>
 </g>
 <defs>
  <clipPath id="p18c6bb05f5">
   <rect x="170.39505" y="32.207408" width="199.50495" height="188.377184"/>
  </clipPath>
 </defs>
</svg>
